<svg width="16" height="16" viewBox="0 0 16 16" fill="none" xmlns="http://www.w3.org/2000/svg">
<g clip-path="url(#clip0)">
<path d="M14.6533 6.70653C14.2964 6.70653 14.007 6.9959 14.007 7.35284V8.00381C14.0061 9.70187 13.3439 11.2979 12.1425 12.4979C10.9419 13.6971 9.34663 14.3573 7.64994 14.3573C7.64869 14.3573 7.64744 14.3573 7.64619 14.3573C4.14081 14.3553 1.29063 11.5019 1.29263 7.9965C1.29359 6.29847 1.95578 4.7024 3.15722 3.50234C4.35775 2.30322 5.9531 1.64297 7.64975 1.64297C7.651 1.64297 7.65225 1.64297 7.6535 1.64297C8.5495 1.64347 9.41881 1.82865 10.2373 2.19331C10.5634 2.33862 10.9453 2.19203 11.0907 1.866C11.2359 1.53997 11.0894 1.1579 10.7633 1.01259C9.77847 0.573748 8.73244 0.350936 7.65422 0.350342C7.6526 0.350342 7.65135 0.350342 7.64972 0.350342C5.60819 0.350342 3.68825 1.14497 2.24369 2.58784C0.798001 4.03184 0.00118876 5.95244 1.26016e-06 7.99581C-0.00115499 10.0391 0.793407 11.9606 2.23747 13.4063C3.68153 14.852 5.6021 15.6488 7.64544 15.65C7.64703 15.65 7.64831 15.65 7.64994 15.65C9.69147 15.65 11.6114 14.8554 13.056 13.4125C14.5017 11.9685 15.2985 10.0479 15.2997 8.00419V7.35287C15.2997 6.9959 15.0103 6.70653 14.6533 6.70653Z" fill="#60D28D"/>
<path d="M15.8106 1.24372C15.5581 0.99135 15.1489 0.99135 14.8965 1.24372L7.64968 8.49054L6.00565 6.84651C5.75327 6.5941 5.34402 6.5941 5.09165 6.84651C4.83924 7.09891 4.83924 7.50813 5.09165 7.76054L7.19271 9.8616C7.3189 9.98782 7.48434 10.0509 7.64974 10.0509C7.81515 10.0509 7.98055 9.98782 8.10677 9.8616L15.8106 2.15776C16.063 1.90535 16.063 1.49613 15.8106 1.24372Z" fill="#60D28D"/>
</g>
<defs>
<clipPath id="clip0">
<rect width="16" height="16" fill="white"/>
</clipPath>
</defs>
</svg>
