<svg width="16" height="16" viewBox="0 0 16 16" fill="none" xmlns="http://www.w3.org/2000/svg">
<path d="M13.6568 2.34316C12.1458 0.832156 10.1369 0 8 0C5.86312 0 3.85416 0.832188 2.34316 2.34316C0.832156 3.85413 0 5.86312 0 8C0 10.1369 0.832156 12.1458 2.34316 13.6568C3.85413 15.1678 5.86312 16 8 16C10.1369 16 12.1458 15.1678 13.6568 13.6568C15.1678 12.1458 16 10.1369 16 8C16 5.86312 15.1678 3.85413 13.6568 2.34316ZM8 14.7074C4.30156 14.7074 1.29262 11.6984 1.29262 8C1.29262 4.30156 4.30156 1.29262 8 1.29262C11.6984 1.29262 14.7074 4.30156 14.7074 8C14.7074 11.6984 11.6984 14.7074 8 14.7074Z" fill="#D26060"/>
<path d="M10.664 5.33677C10.4116 5.08436 10.0024 5.08436 9.74996 5.33677L5.33774 9.74896C5.08534 10.0014 5.08534 10.4106 5.33774 10.663C5.46393 10.7892 5.62937 10.8523 5.79477 10.8523C5.96018 10.8523 6.12562 10.7892 6.2518 10.663L10.664 6.25077C10.9164 5.99839 10.9164 5.58917 10.664 5.33677Z" fill="#D26060"/>
<path d="M10.664 9.74896L6.25174 5.33677C5.99937 5.08436 5.59012 5.08436 5.33774 5.33677C5.08534 5.58914 5.08534 5.99836 5.33774 6.25077L9.74993 10.663C9.87612 10.7892 10.0416 10.8523 10.207 10.8523C10.3724 10.8523 10.5378 10.7892 10.664 10.663C10.9163 10.4106 10.9163 10.0014 10.664 9.74896Z" fill="#D26060"/>
</svg>
