<svg width="1939" height="915" viewBox="0 0 1939 915" fill="none" xmlns="http://www.w3.org/2000/svg">
<path d="M1777.65 494.754C1866.71 575.884 1870.39 704.072 1785.87 781.066C1726.13 835.485 1638.32 849.766 1560.52 824.816" stroke="#25CAD1" stroke-width="5" stroke-miterlimit="10" stroke-dasharray="20 20"/>
<path d="M29.3627 776.07C31.5363 776.07 33.2984 774.465 33.2984 772.485C33.2984 770.505 31.5363 768.9 29.3627 768.9C27.1891 768.9 25.427 770.505 25.427 772.485C25.427 774.465 27.1891 776.07 29.3627 776.07Z" fill="#EAECF2"/>
<path d="M59.7236 776.07C61.8973 776.07 63.6593 774.465 63.6593 772.485C63.6593 770.505 61.8973 768.9 59.7236 768.9C57.55 768.9 55.788 770.505 55.788 772.485C55.788 774.465 57.55 776.07 59.7236 776.07Z" fill="#EAECF2"/>
<path d="M90.0846 776.07C92.2582 776.07 94.0203 774.465 94.0203 772.485C94.0203 770.505 92.2582 768.9 90.0846 768.9C87.911 768.9 86.1489 770.505 86.1489 772.485C86.1489 774.465 87.911 776.07 90.0846 776.07Z" fill="#EAECF2"/>
<path d="M120.446 776.07C122.619 776.07 124.381 774.465 124.381 772.485C124.381 770.505 122.619 768.9 120.446 768.9C118.272 768.9 116.51 770.505 116.51 772.485C116.51 774.465 118.272 776.07 120.446 776.07Z" fill="#EAECF2"/>
<path d="M150.806 776.07C152.98 776.07 154.742 774.465 154.742 772.485C154.742 770.505 152.98 768.9 150.806 768.9C148.633 768.9 146.871 770.505 146.871 772.485C146.871 774.465 148.633 776.07 150.806 776.07Z" fill="#EAECF2"/>
<path d="M181.167 776.07C183.341 776.07 185.103 774.465 185.103 772.485C185.103 770.505 183.341 768.9 181.167 768.9C178.994 768.9 177.232 770.505 177.232 772.485C177.232 774.465 178.994 776.07 181.167 776.07Z" fill="#EAECF2"/>
<path d="M211.528 776.07C213.702 776.07 215.464 774.465 215.464 772.485C215.464 770.505 213.702 768.9 211.528 768.9C209.355 768.9 207.593 770.505 207.593 772.485C207.593 774.465 209.355 776.07 211.528 776.07Z" fill="#EAECF2"/>
<path d="M241.889 776.07C244.063 776.07 245.825 774.465 245.825 772.485C245.825 770.505 244.063 768.9 241.889 768.9C239.716 768.9 237.954 770.505 237.954 772.485C237.954 774.465 239.716 776.07 241.889 776.07Z" fill="#EAECF2"/>
<path d="M272.25 776.07C274.424 776.07 276.186 774.465 276.186 772.485C276.186 770.505 274.424 768.9 272.25 768.9C270.077 768.9 268.314 770.505 268.314 772.485C268.314 774.465 270.077 776.07 272.25 776.07Z" fill="#EAECF2"/>
<path d="M302.611 776.07C304.785 776.07 306.547 774.465 306.547 772.485C306.547 770.505 304.785 768.9 302.611 768.9C300.438 768.9 298.676 770.505 298.676 772.485C298.676 774.465 300.438 776.07 302.611 776.07Z" fill="#EAECF2"/>
<path d="M332.972 776.07C335.146 776.07 336.908 774.465 336.908 772.485C336.908 770.505 335.146 768.9 332.972 768.9C330.798 768.9 329.036 770.505 329.036 772.485C329.036 774.465 330.798 776.07 332.972 776.07Z" fill="#EAECF2"/>
<path d="M363.333 776.07C365.507 776.07 367.269 774.465 367.269 772.485C367.269 770.505 365.507 768.9 363.333 768.9C361.16 768.9 359.397 770.505 359.397 772.485C359.397 774.465 361.16 776.07 363.333 776.07Z" fill="#EAECF2"/>
<path d="M393.694 776.07C395.868 776.07 397.63 774.465 397.63 772.485C397.63 770.505 395.868 768.9 393.694 768.9C391.52 768.9 389.758 770.505 389.758 772.485C389.758 774.465 391.52 776.07 393.694 776.07Z" fill="#EAECF2"/>
<path d="M424.055 776.07C426.228 776.07 427.991 774.465 427.991 772.485C427.991 770.505 426.228 768.9 424.055 768.9C421.881 768.9 420.119 770.505 420.119 772.485C420.119 774.465 421.881 776.07 424.055 776.07Z" fill="#EAECF2"/>
<path d="M454.416 776.07C456.59 776.07 458.352 774.465 458.352 772.485C458.352 770.505 456.59 768.9 454.416 768.9C452.242 768.9 450.48 770.505 450.48 772.485C450.48 774.465 452.242 776.07 454.416 776.07Z" fill="#EAECF2"/>
<path d="M484.777 776.07C486.95 776.07 488.712 774.465 488.712 772.485C488.712 770.505 486.95 768.9 484.777 768.9C482.603 768.9 480.841 770.505 480.841 772.485C480.841 774.465 482.603 776.07 484.777 776.07Z" fill="#EAECF2"/>
<path d="M515.138 776.07C517.311 776.07 519.073 774.465 519.073 772.485C519.073 770.505 517.311 768.9 515.138 768.9C512.964 768.9 511.202 770.505 511.202 772.485C511.202 774.465 512.964 776.07 515.138 776.07Z" fill="#EAECF2"/>
<path d="M545.499 776.07C547.672 776.07 549.434 774.465 549.434 772.485C549.434 770.505 547.672 768.9 545.499 768.9C543.325 768.9 541.563 770.505 541.563 772.485C541.563 774.465 543.325 776.07 545.499 776.07Z" fill="#EAECF2"/>
<path d="M575.86 776.07C578.033 776.07 579.795 774.465 579.795 772.485C579.795 770.505 578.033 768.9 575.86 768.9C573.686 768.9 571.924 770.505 571.924 772.485C571.924 774.465 573.686 776.07 575.86 776.07Z" fill="#EAECF2"/>
<path d="M29.3627 803.728C31.5363 803.728 33.2984 802.123 33.2984 800.143C33.2984 798.163 31.5363 796.558 29.3627 796.558C27.1891 796.558 25.427 798.163 25.427 800.143C25.427 802.123 27.1891 803.728 29.3627 803.728Z" fill="#EAECF2"/>
<path d="M59.7236 803.728C61.8973 803.728 63.6593 802.123 63.6593 800.143C63.6593 798.163 61.8973 796.558 59.7236 796.558C57.55 796.558 55.788 798.163 55.788 800.143C55.788 802.123 57.55 803.728 59.7236 803.728Z" fill="#EAECF2"/>
<path d="M90.0846 803.728C92.2582 803.728 94.0203 802.123 94.0203 800.143C94.0203 798.163 92.2582 796.558 90.0846 796.558C87.911 796.558 86.1489 798.163 86.1489 800.143C86.1489 802.123 87.911 803.728 90.0846 803.728Z" fill="#EAECF2"/>
<path d="M120.446 803.728C122.619 803.728 124.381 802.123 124.381 800.143C124.381 798.163 122.619 796.558 120.446 796.558C118.272 796.558 116.51 798.163 116.51 800.143C116.51 802.123 118.272 803.728 120.446 803.728Z" fill="#EAECF2"/>
<path d="M150.806 803.728C152.98 803.728 154.742 802.123 154.742 800.143C154.742 798.163 152.98 796.558 150.806 796.558C148.633 796.558 146.871 798.163 146.871 800.143C146.871 802.123 148.633 803.728 150.806 803.728Z" fill="#EAECF2"/>
<path d="M181.167 803.728C183.341 803.728 185.103 802.123 185.103 800.143C185.103 798.163 183.341 796.558 181.167 796.558C178.994 796.558 177.232 798.163 177.232 800.143C177.232 802.123 178.994 803.728 181.167 803.728Z" fill="#EAECF2"/>
<path d="M211.528 803.728C213.702 803.728 215.464 802.123 215.464 800.143C215.464 798.163 213.702 796.558 211.528 796.558C209.355 796.558 207.593 798.163 207.593 800.143C207.593 802.123 209.355 803.728 211.528 803.728Z" fill="#EAECF2"/>
<path d="M241.889 803.728C244.063 803.728 245.825 802.123 245.825 800.143C245.825 798.163 244.063 796.558 241.889 796.558C239.716 796.558 237.954 798.163 237.954 800.143C237.954 802.123 239.716 803.728 241.889 803.728Z" fill="#EAECF2"/>
<path d="M272.25 803.728C274.424 803.728 276.186 802.123 276.186 800.143C276.186 798.163 274.424 796.558 272.25 796.558C270.077 796.558 268.314 798.163 268.314 800.143C268.314 802.123 270.077 803.728 272.25 803.728Z" fill="#EAECF2"/>
<path d="M302.611 803.728C304.785 803.728 306.547 802.123 306.547 800.143C306.547 798.163 304.785 796.558 302.611 796.558C300.438 796.558 298.676 798.163 298.676 800.143C298.676 802.123 300.438 803.728 302.611 803.728Z" fill="#EAECF2"/>
<path d="M332.972 803.728C335.146 803.728 336.908 802.123 336.908 800.143C336.908 798.163 335.146 796.558 332.972 796.558C330.798 796.558 329.036 798.163 329.036 800.143C329.036 802.123 330.798 803.728 332.972 803.728Z" fill="#EAECF2"/>
<path d="M363.333 803.728C365.507 803.728 367.269 802.123 367.269 800.143C367.269 798.163 365.507 796.558 363.333 796.558C361.16 796.558 359.397 798.163 359.397 800.143C359.397 802.123 361.16 803.728 363.333 803.728Z" fill="#EAECF2"/>
<path d="M393.694 803.728C395.868 803.728 397.63 802.123 397.63 800.143C397.63 798.163 395.868 796.558 393.694 796.558C391.52 796.558 389.758 798.163 389.758 800.143C389.758 802.123 391.52 803.728 393.694 803.728Z" fill="#EAECF2"/>
<path d="M424.055 803.728C426.228 803.728 427.991 802.123 427.991 800.143C427.991 798.163 426.228 796.558 424.055 796.558C421.881 796.558 420.119 798.163 420.119 800.143C420.119 802.123 421.881 803.728 424.055 803.728Z" fill="#EAECF2"/>
<path d="M454.416 803.728C456.59 803.728 458.352 802.123 458.352 800.143C458.352 798.163 456.59 796.558 454.416 796.558C452.242 796.558 450.48 798.163 450.48 800.143C450.48 802.123 452.242 803.728 454.416 803.728Z" fill="#EAECF2"/>
<path d="M484.777 803.728C486.95 803.728 488.712 802.123 488.712 800.143C488.712 798.163 486.95 796.558 484.777 796.558C482.603 796.558 480.841 798.163 480.841 800.143C480.841 802.123 482.603 803.728 484.777 803.728Z" fill="#EAECF2"/>
<path d="M515.138 803.728C517.311 803.728 519.073 802.123 519.073 800.143C519.073 798.163 517.311 796.558 515.138 796.558C512.964 796.558 511.202 798.163 511.202 800.143C511.202 802.123 512.964 803.728 515.138 803.728Z" fill="#EAECF2"/>
<path d="M545.499 803.728C547.672 803.728 549.434 802.123 549.434 800.143C549.434 798.163 547.672 796.558 545.499 796.558C543.325 796.558 541.563 798.163 541.563 800.143C541.563 802.123 543.325 803.728 545.499 803.728Z" fill="#EAECF2"/>
<path d="M575.86 803.728C578.033 803.728 579.795 802.123 579.795 800.143C579.795 798.163 578.033 796.558 575.86 796.558C573.686 796.558 571.924 798.163 571.924 800.143C571.924 802.123 573.686 803.728 575.86 803.728Z" fill="#EAECF2"/>
<path d="M29.3627 831.386C31.5363 831.386 33.2984 829.781 33.2984 827.801C33.2984 825.821 31.5363 824.215 29.3627 824.215C27.1891 824.215 25.427 825.821 25.427 827.801C25.427 829.781 27.1891 831.386 29.3627 831.386Z" fill="#EAECF2"/>
<path d="M59.7236 831.386C61.8973 831.386 63.6593 829.781 63.6593 827.801C63.6593 825.821 61.8973 824.215 59.7236 824.215C57.55 824.215 55.788 825.821 55.788 827.801C55.788 829.781 57.55 831.386 59.7236 831.386Z" fill="#EAECF2"/>
<path d="M90.0846 831.386C92.2582 831.386 94.0203 829.781 94.0203 827.801C94.0203 825.821 92.2582 824.215 90.0846 824.215C87.911 824.215 86.1489 825.821 86.1489 827.801C86.1489 829.781 87.911 831.386 90.0846 831.386Z" fill="#EAECF2"/>
<path d="M120.446 831.386C122.619 831.386 124.381 829.781 124.381 827.801C124.381 825.821 122.619 824.215 120.446 824.215C118.272 824.215 116.51 825.821 116.51 827.801C116.51 829.781 118.272 831.386 120.446 831.386Z" fill="#EAECF2"/>
<path d="M150.806 831.386C152.98 831.386 154.742 829.781 154.742 827.801C154.742 825.821 152.98 824.215 150.806 824.215C148.633 824.215 146.871 825.821 146.871 827.801C146.871 829.781 148.633 831.386 150.806 831.386Z" fill="#EAECF2"/>
<path d="M181.167 831.386C183.341 831.386 185.103 829.781 185.103 827.801C185.103 825.821 183.341 824.215 181.167 824.215C178.994 824.215 177.232 825.821 177.232 827.801C177.232 829.781 178.994 831.386 181.167 831.386Z" fill="#EAECF2"/>
<path d="M211.528 831.386C213.702 831.386 215.464 829.781 215.464 827.801C215.464 825.821 213.702 824.215 211.528 824.215C209.355 824.215 207.593 825.821 207.593 827.801C207.593 829.781 209.355 831.386 211.528 831.386Z" fill="#EAECF2"/>
<path d="M241.889 831.386C244.063 831.386 245.825 829.781 245.825 827.801C245.825 825.821 244.063 824.215 241.889 824.215C239.716 824.215 237.954 825.821 237.954 827.801C237.954 829.781 239.716 831.386 241.889 831.386Z" fill="#EAECF2"/>
<path d="M272.25 831.386C274.424 831.386 276.186 829.781 276.186 827.801C276.186 825.821 274.424 824.215 272.25 824.215C270.077 824.215 268.314 825.821 268.314 827.801C268.314 829.781 270.077 831.386 272.25 831.386Z" fill="#EAECF2"/>
<path d="M302.611 831.386C304.785 831.386 306.547 829.781 306.547 827.801C306.547 825.821 304.785 824.215 302.611 824.215C300.438 824.215 298.676 825.821 298.676 827.801C298.676 829.781 300.438 831.386 302.611 831.386Z" fill="#EAECF2"/>
<path d="M332.972 831.386C335.146 831.386 336.908 829.781 336.908 827.801C336.908 825.821 335.146 824.215 332.972 824.215C330.798 824.215 329.036 825.821 329.036 827.801C329.036 829.781 330.798 831.386 332.972 831.386Z" fill="#EAECF2"/>
<path d="M363.333 831.386C365.507 831.386 367.269 829.781 367.269 827.801C367.269 825.821 365.507 824.215 363.333 824.215C361.16 824.215 359.397 825.821 359.397 827.801C359.397 829.781 361.16 831.386 363.333 831.386Z" fill="#EAECF2"/>
<path d="M393.694 831.386C395.868 831.386 397.63 829.781 397.63 827.801C397.63 825.821 395.868 824.215 393.694 824.215C391.52 824.215 389.758 825.821 389.758 827.801C389.758 829.781 391.52 831.386 393.694 831.386Z" fill="#EAECF2"/>
<path d="M424.055 831.386C426.228 831.386 427.991 829.781 427.991 827.801C427.991 825.821 426.228 824.215 424.055 824.215C421.881 824.215 420.119 825.821 420.119 827.801C420.119 829.781 421.881 831.386 424.055 831.386Z" fill="#EAECF2"/>
<path d="M454.416 831.386C456.59 831.386 458.352 829.781 458.352 827.801C458.352 825.821 456.59 824.215 454.416 824.215C452.242 824.215 450.48 825.821 450.48 827.801C450.48 829.781 452.242 831.386 454.416 831.386Z" fill="#EAECF2"/>
<path d="M484.777 831.386C486.95 831.386 488.712 829.781 488.712 827.801C488.712 825.821 486.95 824.215 484.777 824.215C482.603 824.215 480.841 825.821 480.841 827.801C480.841 829.781 482.603 831.386 484.777 831.386Z" fill="#EAECF2"/>
<path d="M515.138 831.386C517.311 831.386 519.073 829.781 519.073 827.801C519.073 825.821 517.311 824.215 515.138 824.215C512.964 824.215 511.202 825.821 511.202 827.801C511.202 829.781 512.964 831.386 515.138 831.386Z" fill="#EAECF2"/>
<path d="M545.499 831.386C547.672 831.386 549.434 829.781 549.434 827.801C549.434 825.821 547.672 824.215 545.499 824.215C543.325 824.215 541.563 825.821 541.563 827.801C541.563 829.781 543.325 831.386 545.499 831.386Z" fill="#EAECF2"/>
<path d="M575.86 831.386C578.033 831.386 579.795 829.781 579.795 827.801C579.795 825.821 578.033 824.215 575.86 824.215C573.686 824.215 571.924 825.821 571.924 827.801C571.924 829.781 573.686 831.386 575.86 831.386Z" fill="#EAECF2"/>
<path d="M29.3627 859.044C31.5363 859.044 33.2984 857.439 33.2984 855.458C33.2984 853.478 31.5363 851.873 29.3627 851.873C27.1891 851.873 25.427 853.478 25.427 855.458C25.427 857.439 27.1891 859.044 29.3627 859.044Z" fill="#EAECF2"/>
<path d="M59.7236 859.044C61.8973 859.044 63.6593 857.439 63.6593 855.458C63.6593 853.478 61.8973 851.873 59.7236 851.873C57.55 851.873 55.788 853.478 55.788 855.458C55.788 857.439 57.55 859.044 59.7236 859.044Z" fill="#EAECF2"/>
<path d="M90.0846 859.044C92.2582 859.044 94.0203 857.439 94.0203 855.458C94.0203 853.478 92.2582 851.873 90.0846 851.873C87.911 851.873 86.1489 853.478 86.1489 855.458C86.1489 857.439 87.911 859.044 90.0846 859.044Z" fill="#EAECF2"/>
<path d="M120.446 859.044C122.619 859.044 124.381 857.439 124.381 855.458C124.381 853.478 122.619 851.873 120.446 851.873C118.272 851.873 116.51 853.478 116.51 855.458C116.51 857.439 118.272 859.044 120.446 859.044Z" fill="#EAECF2"/>
<path d="M150.806 859.044C152.98 859.044 154.742 857.439 154.742 855.458C154.742 853.478 152.98 851.873 150.806 851.873C148.633 851.873 146.871 853.478 146.871 855.458C146.871 857.439 148.633 859.044 150.806 859.044Z" fill="#EAECF2"/>
<path d="M181.167 859.044C183.341 859.044 185.103 857.439 185.103 855.458C185.103 853.478 183.341 851.873 181.167 851.873C178.994 851.873 177.232 853.478 177.232 855.458C177.232 857.439 178.994 859.044 181.167 859.044Z" fill="#EAECF2"/>
<path d="M211.528 859.044C213.702 859.044 215.464 857.439 215.464 855.458C215.464 853.478 213.702 851.873 211.528 851.873C209.355 851.873 207.593 853.478 207.593 855.458C207.593 857.439 209.355 859.044 211.528 859.044Z" fill="#EAECF2"/>
<path d="M241.889 859.044C244.063 859.044 245.825 857.439 245.825 855.458C245.825 853.478 244.063 851.873 241.889 851.873C239.716 851.873 237.954 853.478 237.954 855.458C237.954 857.439 239.716 859.044 241.889 859.044Z" fill="#EAECF2"/>
<path d="M272.25 859.044C274.424 859.044 276.186 857.439 276.186 855.458C276.186 853.478 274.424 851.873 272.25 851.873C270.077 851.873 268.314 853.478 268.314 855.458C268.314 857.439 270.077 859.044 272.25 859.044Z" fill="#EAECF2"/>
<path d="M302.611 859.044C304.785 859.044 306.547 857.439 306.547 855.458C306.547 853.478 304.785 851.873 302.611 851.873C300.438 851.873 298.676 853.478 298.676 855.458C298.676 857.439 300.438 859.044 302.611 859.044Z" fill="#EAECF2"/>
<path d="M332.972 859.044C335.146 859.044 336.908 857.439 336.908 855.458C336.908 853.478 335.146 851.873 332.972 851.873C330.798 851.873 329.036 853.478 329.036 855.458C329.036 857.439 330.798 859.044 332.972 859.044Z" fill="#EAECF2"/>
<path d="M363.333 859.044C365.507 859.044 367.269 857.439 367.269 855.458C367.269 853.478 365.507 851.873 363.333 851.873C361.16 851.873 359.397 853.478 359.397 855.458C359.397 857.439 361.16 859.044 363.333 859.044Z" fill="#EAECF2"/>
<path d="M393.694 859.044C395.868 859.044 397.63 857.439 397.63 855.458C397.63 853.478 395.868 851.873 393.694 851.873C391.52 851.873 389.758 853.478 389.758 855.458C389.758 857.439 391.52 859.044 393.694 859.044Z" fill="#EAECF2"/>
<path d="M424.055 859.044C426.228 859.044 427.991 857.439 427.991 855.458C427.991 853.478 426.228 851.873 424.055 851.873C421.881 851.873 420.119 853.478 420.119 855.458C420.119 857.439 421.881 859.044 424.055 859.044Z" fill="#EAECF2"/>
<path d="M454.416 859.044C456.59 859.044 458.352 857.439 458.352 855.458C458.352 853.478 456.59 851.873 454.416 851.873C452.242 851.873 450.48 853.478 450.48 855.458C450.48 857.439 452.242 859.044 454.416 859.044Z" fill="#EAECF2"/>
<path d="M484.777 859.044C486.95 859.044 488.712 857.439 488.712 855.458C488.712 853.478 486.95 851.873 484.777 851.873C482.603 851.873 480.841 853.478 480.841 855.458C480.841 857.439 482.603 859.044 484.777 859.044Z" fill="#EAECF2"/>
<path d="M515.138 859.044C517.311 859.044 519.073 857.439 519.073 855.458C519.073 853.478 517.311 851.873 515.138 851.873C512.964 851.873 511.202 853.478 511.202 855.458C511.202 857.439 512.964 859.044 515.138 859.044Z" fill="#EAECF2"/>
<path d="M545.499 859.044C547.672 859.044 549.434 857.439 549.434 855.458C549.434 853.478 547.672 851.873 545.499 851.873C543.325 851.873 541.563 853.478 541.563 855.458C541.563 857.439 543.325 859.044 545.499 859.044Z" fill="#EAECF2"/>
<path d="M575.86 859.044C578.033 859.044 579.795 857.439 579.795 855.458C579.795 853.478 578.033 851.873 575.86 851.873C573.686 851.873 571.924 853.478 571.924 855.458C571.924 857.439 573.686 859.044 575.86 859.044Z" fill="#EAECF2"/>
<path d="M29.3627 886.702C31.5363 886.702 33.2984 885.096 33.2984 883.116C33.2984 881.136 31.5363 879.531 29.3627 879.531C27.1891 879.531 25.427 881.136 25.427 883.116C25.427 885.096 27.1891 886.702 29.3627 886.702Z" fill="#EAECF2"/>
<path d="M59.7236 886.702C61.8973 886.702 63.6593 885.096 63.6593 883.116C63.6593 881.136 61.8973 879.531 59.7236 879.531C57.55 879.531 55.788 881.136 55.788 883.116C55.788 885.096 57.55 886.702 59.7236 886.702Z" fill="#EAECF2"/>
<path d="M90.0846 886.702C92.2582 886.702 94.0203 885.096 94.0203 883.116C94.0203 881.136 92.2582 879.531 90.0846 879.531C87.911 879.531 86.1489 881.136 86.1489 883.116C86.1489 885.096 87.911 886.702 90.0846 886.702Z" fill="#EAECF2"/>
<path d="M120.446 886.702C122.619 886.702 124.381 885.096 124.381 883.116C124.381 881.136 122.619 879.531 120.446 879.531C118.272 879.531 116.51 881.136 116.51 883.116C116.51 885.096 118.272 886.702 120.446 886.702Z" fill="#EAECF2"/>
<path d="M150.806 886.702C152.98 886.702 154.742 885.096 154.742 883.116C154.742 881.136 152.98 879.531 150.806 879.531C148.633 879.531 146.871 881.136 146.871 883.116C146.871 885.096 148.633 886.702 150.806 886.702Z" fill="#EAECF2"/>
<path d="M181.167 886.702C183.341 886.702 185.103 885.096 185.103 883.116C185.103 881.136 183.341 879.531 181.167 879.531C178.994 879.531 177.232 881.136 177.232 883.116C177.232 885.096 178.994 886.702 181.167 886.702Z" fill="#EAECF2"/>
<path d="M211.528 886.702C213.702 886.702 215.464 885.096 215.464 883.116C215.464 881.136 213.702 879.531 211.528 879.531C209.355 879.531 207.593 881.136 207.593 883.116C207.593 885.096 209.355 886.702 211.528 886.702Z" fill="#EAECF2"/>
<path d="M241.889 886.702C244.063 886.702 245.825 885.096 245.825 883.116C245.825 881.136 244.063 879.531 241.889 879.531C239.716 879.531 237.954 881.136 237.954 883.116C237.954 885.096 239.716 886.702 241.889 886.702Z" fill="#EAECF2"/>
<path d="M272.25 886.702C274.424 886.702 276.186 885.096 276.186 883.116C276.186 881.136 274.424 879.531 272.25 879.531C270.077 879.531 268.314 881.136 268.314 883.116C268.314 885.096 270.077 886.702 272.25 886.702Z" fill="#EAECF2"/>
<path d="M302.611 886.702C304.785 886.702 306.547 885.096 306.547 883.116C306.547 881.136 304.785 879.531 302.611 879.531C300.438 879.531 298.676 881.136 298.676 883.116C298.676 885.096 300.438 886.702 302.611 886.702Z" fill="#EAECF2"/>
<path d="M332.972 886.702C335.146 886.702 336.908 885.096 336.908 883.116C336.908 881.136 335.146 879.531 332.972 879.531C330.798 879.531 329.036 881.136 329.036 883.116C329.036 885.096 330.798 886.702 332.972 886.702Z" fill="#EAECF2"/>
<path d="M363.333 886.702C365.507 886.702 367.269 885.096 367.269 883.116C367.269 881.136 365.507 879.531 363.333 879.531C361.16 879.531 359.397 881.136 359.397 883.116C359.397 885.096 361.16 886.702 363.333 886.702Z" fill="#EAECF2"/>
<path d="M393.694 886.702C395.868 886.702 397.63 885.096 397.63 883.116C397.63 881.136 395.868 879.531 393.694 879.531C391.52 879.531 389.758 881.136 389.758 883.116C389.758 885.096 391.52 886.702 393.694 886.702Z" fill="#EAECF2"/>
<path d="M424.055 886.702C426.228 886.702 427.991 885.096 427.991 883.116C427.991 881.136 426.228 879.531 424.055 879.531C421.881 879.531 420.119 881.136 420.119 883.116C420.119 885.096 421.881 886.702 424.055 886.702Z" fill="#EAECF2"/>
<path d="M454.416 886.702C456.59 886.702 458.352 885.096 458.352 883.116C458.352 881.136 456.59 879.531 454.416 879.531C452.242 879.531 450.48 881.136 450.48 883.116C450.48 885.096 452.242 886.702 454.416 886.702Z" fill="#EAECF2"/>
<path d="M484.777 886.702C486.95 886.702 488.712 885.096 488.712 883.116C488.712 881.136 486.95 879.531 484.777 879.531C482.603 879.531 480.841 881.136 480.841 883.116C480.841 885.096 482.603 886.702 484.777 886.702Z" fill="#EAECF2"/>
<path d="M515.138 886.702C517.311 886.702 519.073 885.096 519.073 883.116C519.073 881.136 517.311 879.531 515.138 879.531C512.964 879.531 511.202 881.136 511.202 883.116C511.202 885.096 512.964 886.702 515.138 886.702Z" fill="#EAECF2"/>
<path d="M545.499 886.702C547.672 886.702 549.434 885.096 549.434 883.116C549.434 881.136 547.672 879.531 545.499 879.531C543.325 879.531 541.563 881.136 541.563 883.116C541.563 885.096 543.325 886.702 545.499 886.702Z" fill="#EAECF2"/>
<path d="M575.86 886.702C578.033 886.702 579.795 885.096 579.795 883.116C579.795 881.136 578.033 879.531 575.86 879.531C573.686 879.531 571.924 881.136 571.924 883.116C571.924 885.096 573.686 886.702 575.86 886.702Z" fill="#EAECF2"/>
<path d="M29.3627 914.359C31.5363 914.359 33.2984 912.754 33.2984 910.774C33.2984 908.794 31.5363 907.189 29.3627 907.189C27.1891 907.189 25.427 908.794 25.427 910.774C25.427 912.754 27.1891 914.359 29.3627 914.359Z" fill="#EAECF2"/>
<path d="M59.7236 914.359C61.8973 914.359 63.6593 912.754 63.6593 910.774C63.6593 908.794 61.8973 907.189 59.7236 907.189C57.55 907.189 55.788 908.794 55.788 910.774C55.788 912.754 57.55 914.359 59.7236 914.359Z" fill="#EAECF2"/>
<path d="M90.0846 914.359C92.2582 914.359 94.0203 912.754 94.0203 910.774C94.0203 908.794 92.2582 907.189 90.0846 907.189C87.911 907.189 86.1489 908.794 86.1489 910.774C86.1489 912.754 87.911 914.359 90.0846 914.359Z" fill="#EAECF2"/>
<path d="M120.446 914.359C122.619 914.359 124.381 912.754 124.381 910.774C124.381 908.794 122.619 907.189 120.446 907.189C118.272 907.189 116.51 908.794 116.51 910.774C116.51 912.754 118.272 914.359 120.446 914.359Z" fill="#EAECF2"/>
<path d="M150.806 914.359C152.98 914.359 154.742 912.754 154.742 910.774C154.742 908.794 152.98 907.189 150.806 907.189C148.633 907.189 146.871 908.794 146.871 910.774C146.871 912.754 148.633 914.359 150.806 914.359Z" fill="#EAECF2"/>
<path d="M181.167 914.359C183.341 914.359 185.103 912.754 185.103 910.774C185.103 908.794 183.341 907.189 181.167 907.189C178.994 907.189 177.232 908.794 177.232 910.774C177.232 912.754 178.994 914.359 181.167 914.359Z" fill="#EAECF2"/>
<path d="M211.528 914.359C213.702 914.359 215.464 912.754 215.464 910.774C215.464 908.794 213.702 907.189 211.528 907.189C209.355 907.189 207.593 908.794 207.593 910.774C207.593 912.754 209.355 914.359 211.528 914.359Z" fill="#EAECF2"/>
<path d="M241.889 914.359C244.063 914.359 245.825 912.754 245.825 910.774C245.825 908.794 244.063 907.189 241.889 907.189C239.716 907.189 237.954 908.794 237.954 910.774C237.954 912.754 239.716 914.359 241.889 914.359Z" fill="#EAECF2"/>
<path d="M272.25 914.359C274.424 914.359 276.186 912.754 276.186 910.774C276.186 908.794 274.424 907.189 272.25 907.189C270.077 907.189 268.314 908.794 268.314 910.774C268.314 912.754 270.077 914.359 272.25 914.359Z" fill="#EAECF2"/>
<path d="M302.611 914.359C304.785 914.359 306.547 912.754 306.547 910.774C306.547 908.794 304.785 907.189 302.611 907.189C300.438 907.189 298.676 908.794 298.676 910.774C298.676 912.754 300.438 914.359 302.611 914.359Z" fill="#EAECF2"/>
<path d="M332.972 914.359C335.146 914.359 336.908 912.754 336.908 910.774C336.908 908.794 335.146 907.189 332.972 907.189C330.798 907.189 329.036 908.794 329.036 910.774C329.036 912.754 330.798 914.359 332.972 914.359Z" fill="#EAECF2"/>
<path d="M363.333 914.359C365.507 914.359 367.269 912.754 367.269 910.774C367.269 908.794 365.507 907.189 363.333 907.189C361.16 907.189 359.397 908.794 359.397 910.774C359.397 912.754 361.16 914.359 363.333 914.359Z" fill="#EAECF2"/>
<path d="M393.694 914.359C395.868 914.359 397.63 912.754 397.63 910.774C397.63 908.794 395.868 907.189 393.694 907.189C391.52 907.189 389.758 908.794 389.758 910.774C389.758 912.754 391.52 914.359 393.694 914.359Z" fill="#EAECF2"/>
<path d="M424.055 914.359C426.228 914.359 427.991 912.754 427.991 910.774C427.991 908.794 426.228 907.189 424.055 907.189C421.881 907.189 420.119 908.794 420.119 910.774C420.119 912.754 421.881 914.359 424.055 914.359Z" fill="#EAECF2"/>
<path d="M454.416 914.359C456.59 914.359 458.352 912.754 458.352 910.774C458.352 908.794 456.59 907.189 454.416 907.189C452.242 907.189 450.48 908.794 450.48 910.774C450.48 912.754 452.242 914.359 454.416 914.359Z" fill="#EAECF2"/>
<path d="M484.777 914.359C486.95 914.359 488.712 912.754 488.712 910.774C488.712 908.794 486.95 907.189 484.777 907.189C482.603 907.189 480.841 908.794 480.841 910.774C480.841 912.754 482.603 914.359 484.777 914.359Z" fill="#EAECF2"/>
<path d="M515.138 914.359C517.311 914.359 519.073 912.754 519.073 910.774C519.073 908.794 517.311 907.189 515.138 907.189C512.964 907.189 511.202 908.794 511.202 910.774C511.202 912.754 512.964 914.359 515.138 914.359Z" fill="#EAECF2"/>
<path d="M545.499 914.359C547.672 914.359 549.434 912.754 549.434 910.774C549.434 908.794 547.672 907.189 545.499 907.189C543.325 907.189 541.563 908.794 541.563 910.774C541.563 912.754 543.325 914.359 545.499 914.359Z" fill="#EAECF2"/>
<path d="M575.86 914.359C578.033 914.359 579.795 912.754 579.795 910.774C579.795 908.794 578.033 907.189 575.86 907.189C573.686 907.189 571.924 908.794 571.924 910.774C571.924 912.754 573.686 914.359 575.86 914.359Z" fill="#EAECF2"/>
<path d="M174.562 283.907C79.7 283.907 2.79688 217.426 2.79688 135.413C2.79688 77.4485 41.2147 27.2404 97.2374 2.78174" stroke="#FCCB0A" stroke-width="5" stroke-miterlimit="10" stroke-dasharray="20 20"/>
</svg>
