<svg width="1508" height="855" viewBox="0 0 1508 855" fill="none" xmlns="http://www.w3.org/2000/svg">
<path opacity="0.1" d="M1322.08 854.248H109.438C113.958 839.211 119.221 824.166 125.088 809.528C130.903 795.013 137.458 780.531 144.56 766.484C151.613 752.54 159.388 738.677 167.669 725.281C175.903 711.964 184.841 698.775 194.234 686.087C203.588 673.451 213.627 660.996 224.07 649.068C234.488 637.169 245.565 625.508 256.994 614.393C268.424 603.277 280.471 592.471 292.824 582.228C305.176 571.984 318.163 562.054 331.376 552.738C344.627 543.396 358.452 534.432 372.465 526.094C386.539 517.719 401.156 509.767 415.908 502.459C430.751 495.109 446.096 488.221 461.523 482.003C477.065 475.734 493.081 469.977 509.126 464.896C642.983 422.687 788.529 422.687 922.386 464.896C938.429 469.981 954.445 475.738 969.99 482.003C985.419 488.226 1000.77 495.109 1015.61 502.459C1030.36 509.767 1044.97 517.722 1059.05 526.094C1073.06 534.433 1086.89 543.397 1100.14 552.738C1113.35 562.055 1126.32 571.976 1138.69 582.227C1151.05 592.477 1163.1 603.288 1174.52 614.392C1185.94 625.495 1197.02 637.169 1207.44 649.067C1217.88 660.995 1227.92 673.447 1237.28 686.086C1246.67 698.775 1255.61 711.962 1263.84 725.28C1272.12 738.675 1279.9 752.539 1286.95 766.483C1294.05 780.527 1300.61 795.009 1306.42 809.527C1312.29 824.168 1317.55 839.213 1322.07 854.247L1322.08 854.248Z" fill="#672ED6"/>
<path opacity="0.1" d="M1357.55 462.191C1412.98 474.782 1469.13 444.05 1482.95 393.548C1496.77 343.046 1463.04 291.898 1407.6 279.307C1352.16 266.715 1296.02 297.448 1282.19 347.95C1268.37 398.452 1302.11 449.599 1357.55 462.191Z" fill="#25CAD1"/>
<path opacity="0.1" d="M63.5593 115.682C98.3372 115.682 126.53 89.9995 126.53 58.3181C126.53 26.6367 98.3372 0.953857 63.5593 0.953857C28.7815 0.953857 0.588501 26.6367 0.588501 58.3181C0.588501 89.9995 28.7815 115.682 63.5593 115.682Z" fill="#FF335F"/>
</svg>
