<svg width="586" height="371" viewBox="0 0 586 371" fill="none" xmlns="http://www.w3.org/2000/svg">
<path d="M585.357 369.679C585.357 369.903 475.754 370.089 340.585 370.089C205.367 370.089 95.7856 369.907 95.7856 369.679C95.7856 369.452 205.365 369.27 340.585 369.27C475.754 369.274 585.357 369.456 585.357 369.679Z" fill="#455A64"/>
<path d="M15.4102 13.7522C15.2236 13.9079 11.8242 10.7896 7.57589 7.00237C3.32755 3.21512 -0.161757 0.180792 0.00579291 0.00766579C0.173343 -0.16546 3.94153 2.61276 8.19999 6.42358C12.4585 10.2344 15.5868 13.6057 15.4102 13.7522Z" fill="#455A64"/>
<path d="M568.552 0.33869C568.722 0.499518 565.013 4.03365 560.265 8.22645C555.518 12.4193 551.53 15.6942 551.359 15.5334C551.189 15.3726 554.896 11.8405 559.646 7.64563C564.396 3.45077 568.381 0.177862 568.552 0.33869Z" fill="#455A64"/>
<path d="M570.56 369.206C570.416 369.381 566.052 366.598 561.01 362.769C555.968 358.94 552.165 355.544 552.328 355.383C552.491 355.222 556.55 358.334 561.58 362.144C566.61 365.954 570.712 369.023 570.56 369.206Z" fill="#455A64"/>
<path d="M474.009 193.147C473.992 193.008 473.985 192.869 473.986 192.73C473.986 192.433 473.974 192.042 473.966 191.536C473.954 190.459 473.94 188.915 473.92 186.919C473.897 182.863 473.864 176.971 473.821 169.487C473.773 154.503 473.708 133.15 473.624 107.545L474.01 107.896L380.051 107.95H380.042L380.491 107.541C380.469 138.886 380.449 168.256 380.429 193.143L380.044 192.791L448.043 192.97C456.259 193.011 462.726 193.041 467.177 193.062C469.369 193.08 471.061 193.093 472.244 193.103L473.556 193.123C473.708 193.122 473.861 193.129 474.013 193.144C473.876 193.159 473.737 193.165 473.598 193.162C473.283 193.168 472.866 193.174 472.33 193.183L467.337 193.224L448.291 193.316L380.045 193.495H379.659V193.143C379.642 168.256 379.621 138.885 379.6 107.541V107.131H380.049L474.009 107.185H474.396V107.537C474.315 133.235 474.246 154.665 474.199 169.703C474.156 177.153 474.121 183.02 474.1 187.056C474.08 189.023 474.064 190.539 474.054 191.604C474.045 192.094 474.038 192.474 474.033 192.761C474.035 192.89 474.027 193.019 474.009 193.147Z" fill="white"/>
<path d="M474.01 193.146C474.01 193.146 474.245 192.977 474.727 192.69L476.881 191.427L485.202 186.652L515.797 169.292L515.637 169.553C515.608 147.212 515.568 117.618 515.525 85.236L515.974 85.6458H515.712L423.091 85.5433L423.258 85.5044L391.72 101.689L383.09 106.067L380.83 107.188C380.317 107.436 380.043 107.544 380.043 107.544C380.043 107.544 380.284 107.383 380.781 107.109L382.993 105.911C384.989 104.856 387.861 103.335 391.539 101.39C399.01 97.4802 409.738 91.8688 422.932 84.9656L423.007 84.9266H423.098L515.719 84.8242H516.429V85.234C516.386 117.616 516.348 147.208 516.316 169.551V169.723L516.157 169.814C503.225 177.013 492.722 182.866 485.404 186.943L476.988 191.577L474.782 192.766C474.278 193.031 474.01 193.146 474.01 193.146Z" fill="white"/>
<path d="M515.98 85.2341C516.105 85.4288 506.81 90.5803 495.223 96.7408C483.637 102.901 474.138 107.738 474.014 107.545C473.891 107.351 483.183 102.201 494.772 96.038C506.361 89.8755 515.852 85.0405 515.98 85.2341Z" fill="white"/>
<path d="M384.497 189.632C384.621 189.826 383.721 190.506 382.491 191.149C381.261 191.793 380.162 192.157 380.04 191.963C379.917 191.768 380.815 191.089 382.048 190.446C383.28 189.802 384.374 189.437 384.497 189.632Z" fill="white"/>
<path d="M393.415 184.969C393.537 185.162 392.64 185.843 391.407 186.486C390.175 187.13 389.078 187.494 388.957 187.3C388.835 187.105 389.733 186.426 390.963 185.782C392.193 185.139 393.297 184.773 393.415 184.969Z" fill="white"/>
<path d="M402.331 180.31C402.455 180.504 401.555 181.184 400.325 181.827C399.095 182.47 397.996 182.835 397.875 182.64C397.753 182.446 398.65 181.767 399.881 181.124C401.112 180.48 402.21 180.112 402.331 180.31Z" fill="white"/>
<path d="M411.246 175.645C411.37 175.838 410.47 176.518 409.24 177.162C408.01 177.805 406.911 178.17 406.789 177.975C406.666 177.78 407.565 177.101 408.797 176.458C410.029 175.815 411.12 175.449 411.246 175.645Z" fill="white"/>
<path d="M420.164 170.983C420.286 171.176 419.389 171.857 418.156 172.5C416.924 173.143 415.827 173.508 415.706 173.313C415.584 173.119 416.482 172.44 417.712 171.794C418.942 171.149 420.042 170.787 420.164 170.983Z" fill="white"/>
<path d="M422.422 162.777C422.668 162.777 422.86 163.827 422.847 165.122C422.835 166.416 422.622 167.461 422.382 167.458C422.141 167.455 421.944 166.408 421.957 165.113C421.969 163.819 422.175 162.774 422.422 162.777Z" fill="white"/>
<path d="M422.503 153.411C422.75 153.411 422.941 154.461 422.929 155.756C422.918 157.05 422.705 158.095 422.462 158.094C422.219 158.093 422.025 157.042 422.037 155.75C422.048 154.457 422.256 153.409 422.503 153.411Z" fill="white"/>
<path d="M422.577 144.045C422.824 144.045 423.015 145.098 423.004 146.391C422.992 147.683 422.779 148.731 422.538 148.729C422.297 148.728 422.1 147.677 422.112 146.384C422.124 145.091 422.336 144.043 422.577 144.045Z" fill="white"/>
<path d="M422.664 134.68C422.91 134.68 423.102 135.732 423.09 137.025C423.079 138.317 422.865 139.364 422.625 139.363C422.384 139.362 422.187 138.311 422.199 137.018C422.21 135.726 422.417 134.678 422.664 134.68Z" fill="white"/>
<path d="M422.746 125.315C422.992 125.315 423.184 126.367 423.172 127.66C423.161 128.953 422.947 130 422.707 129.999C422.466 129.998 422.269 128.947 422.281 127.654C422.292 126.36 422.5 125.313 422.746 125.315Z" fill="white"/>
<path d="M422.825 115.952C423.071 115.952 423.264 117.002 423.251 118.294C423.239 119.587 423.026 120.636 422.786 120.633C422.545 120.63 422.348 119.583 422.359 118.288C422.371 116.993 422.58 115.949 422.825 115.952Z" fill="white"/>
<path d="M422.907 106.586C423.152 106.586 423.344 107.637 423.332 108.931C423.32 110.224 423.107 111.27 422.866 111.269C422.626 111.268 422.429 110.217 422.44 108.924C422.451 107.632 422.661 106.585 422.907 106.586Z" fill="white"/>
<path d="M422.988 97.2212C423.234 97.2212 423.425 98.2711 423.413 99.5658C423.401 100.861 423.188 101.905 422.947 101.904C422.707 101.903 422.51 100.852 422.522 99.5597C422.535 98.267 422.74 97.2191 422.988 97.2212Z" fill="white"/>
<path d="M423.068 87.8555C423.314 87.8555 423.505 88.9074 423.493 90.2001C423.48 91.4928 423.268 92.5396 423.027 92.5386C422.787 92.5375 422.59 91.4866 422.602 90.194C422.614 88.9013 422.82 87.8534 423.068 87.8555Z" fill="white"/>
<path d="M510.833 169.551C510.833 169.327 511.985 169.142 513.404 169.142C514.823 169.142 515.974 169.323 515.974 169.551C515.974 169.78 514.825 169.961 513.404 169.961C511.982 169.961 510.833 169.777 510.833 169.551Z" fill="white"/>
<path d="M500.553 169.551C500.553 169.327 501.705 169.142 503.124 169.142C504.543 169.142 505.694 169.323 505.694 169.551C505.694 169.78 504.545 169.961 503.124 169.961C501.702 169.961 500.553 169.777 500.553 169.551Z" fill="white"/>
<path d="M490.272 169.551C490.272 169.327 491.423 169.142 492.843 169.142C494.262 169.142 495.413 169.323 495.413 169.551C495.413 169.78 494.264 169.961 492.843 169.961C491.421 169.961 490.272 169.777 490.272 169.551Z" fill="white"/>
<path d="M479.992 169.551C479.992 169.327 481.144 169.142 482.563 169.142C483.982 169.142 485.133 169.323 485.133 169.551C485.133 169.78 483.984 169.961 482.563 169.961C481.141 169.961 479.992 169.777 479.992 169.551Z" fill="white"/>
<path d="M469.711 169.551C469.711 169.327 470.862 169.142 472.281 169.142C473.701 169.142 474.852 169.323 474.852 169.551C474.852 169.78 473.703 169.961 472.281 169.961C470.86 169.961 469.711 169.777 469.711 169.551Z" fill="white"/>
<path d="M459.43 169.551C459.43 169.327 460.581 169.142 462.001 169.142C463.42 169.142 464.571 169.323 464.571 169.551C464.571 169.78 463.422 169.961 462.001 169.961C460.579 169.961 459.43 169.777 459.43 169.551Z" fill="white"/>
<path d="M449.15 169.551C449.15 169.327 450.301 169.142 451.72 169.142C453.14 169.142 454.291 169.323 454.291 169.551C454.291 169.78 453.142 169.961 451.72 169.961C450.299 169.961 449.15 169.777 449.15 169.551Z" fill="white"/>
<path d="M438.869 169.551C438.869 169.327 440.02 169.142 441.439 169.142C442.858 169.142 444.01 169.323 444.01 169.551C444.01 169.78 442.861 169.961 441.439 169.961C440.018 169.961 438.869 169.777 438.869 169.551Z" fill="white"/>
<path d="M428.589 169.551C428.589 169.327 429.74 169.142 431.16 169.142C432.579 169.142 433.73 169.323 433.73 169.551C433.73 169.78 432.581 169.961 431.16 169.961C429.738 169.961 428.589 169.777 428.589 169.551Z" fill="white"/>
<path d="M422.36 169.551C422.339 169.449 422.352 169.344 422.399 169.249C422.446 169.154 422.524 169.075 422.622 169.022C422.72 168.969 422.834 168.945 422.947 168.953C423.061 168.961 423.17 169 423.258 169.067C423.346 169.133 423.409 169.222 423.439 169.322C423.47 169.422 423.465 169.529 423.427 169.626C423.388 169.724 423.318 169.809 423.224 169.869C423.131 169.929 423.02 169.961 422.906 169.961C422.774 169.972 422.643 169.935 422.541 169.858C422.438 169.782 422.374 169.671 422.36 169.551Z" fill="white"/>
<path d="M527.349 141.041C528.132 141.084 528.919 141.049 529.694 140.939C530.723 140.735 531.691 140.331 532.531 139.754C533.372 139.176 534.065 138.439 534.562 137.594C535.231 136.315 535.556 134.908 535.51 133.491C535.463 132.075 535.048 130.688 534.297 129.447C534.12 129.113 533.864 128.819 533.547 128.586C533.231 128.354 532.861 128.189 532.465 128.103C532.041 128.05 531.61 128.074 531.196 128.175C530.782 128.275 530.395 128.449 530.056 128.688C528.619 129.69 527.821 131.498 527.082 133.225C526.338 135.095 525.888 137.052 525.747 139.037L524.878 139.019C524.779 132.82 524.729 127.406 524.731 123.541C524.747 121.726 524.76 120.214 524.77 119.004C524.743 118.455 524.784 117.905 524.89 117.365C525.019 117.903 525.081 118.453 525.074 119.004C525.132 120.212 525.205 121.723 525.292 123.537C525.445 127.397 525.606 132.809 525.75 139.005L524.879 138.987C525.01 136.923 525.47 134.887 526.244 132.944C526.604 132.036 527.033 131.153 527.53 130.3C528.01 129.424 528.695 128.654 529.538 128.046C529.973 127.745 530.471 127.527 531.001 127.405C531.531 127.283 532.083 127.26 532.623 127.338C533.138 127.447 533.619 127.66 534.032 127.96C534.445 128.26 534.78 128.64 535.012 129.073C535.812 130.421 536.24 131.926 536.258 133.459C536.276 134.991 535.884 136.504 535.116 137.868C534.561 138.764 533.79 139.534 532.861 140.119C531.933 140.705 530.87 141.091 529.754 141.248C529.154 141.325 528.544 141.314 527.948 141.215C527.544 141.137 527.342 141.066 527.349 141.041Z" fill="white"/>
<path d="M481.795 75.4658C481.81 75.4781 481.746 75.5857 481.579 75.767C481.32 76.0252 481.009 76.236 480.663 76.3878C480.103 76.6396 479.482 76.7597 478.857 76.7371C477.996 76.7106 477.175 76.3968 476.551 75.8551C475.85 75.1719 475.322 74.3572 475.004 73.4683C474.615 72.5535 474.248 71.5496 473.915 70.4648C473.181 68.0582 472.743 65.5843 472.611 63.0893L473.448 63.0391C473.729 66.0005 474.129 69.3718 473.141 72.8045C472.682 74.7586 471.509 76.5133 469.814 77.782C469.364 78.0715 468.854 78.2766 468.316 78.3854C467.777 78.4943 467.22 78.5047 466.677 78.4161C466.162 78.2998 465.679 78.0885 465.257 77.7951C464.835 77.5017 464.484 77.1325 464.225 76.7105C463.594 75.5558 463.225 74.2973 463.139 73.0099C463.054 71.7225 463.254 70.4327 463.728 69.2172C464.201 68.0018 464.939 66.8857 465.896 65.9355C466.853 64.9852 468.011 64.2204 469.299 63.6865C469.851 63.4557 470.428 63.2772 471.02 63.1538C471.223 63.0926 471.438 63.0696 471.651 63.0862C471.673 63.1579 470.814 63.3157 469.455 63.9692C467.541 64.8889 465.981 66.3184 464.983 68.0667C464.318 69.2677 463.94 70.5831 463.873 71.9266C463.76 73.4495 464.126 74.9702 464.926 76.311C465.13 76.6419 465.405 76.9313 465.736 77.1616C466.066 77.3919 466.445 77.558 466.849 77.6498C467.719 77.7774 468.608 77.5859 469.323 77.1171C470.831 75.9461 471.87 74.3527 472.278 72.5863C473.215 69.3585 472.863 66.0569 472.615 63.1005L473.452 63.0503C473.554 65.4953 473.939 67.9236 474.601 70.2948C474.902 71.3642 475.233 72.3599 475.585 73.2655C475.849 74.0921 476.303 74.8582 476.917 75.513C477.388 75.9321 477.984 76.216 478.63 76.3293C479.277 76.4426 479.946 76.3803 480.554 76.1501C480.995 75.9652 481.411 75.7357 481.795 75.4658Z" fill="white"/>
<path d="M323.57 171.074C323.618 171.226 323.646 171.383 323.655 171.542L323.812 172.922C323.934 174.192 324.106 175.971 324.322 178.235C324.705 182.851 325.302 189.539 325.334 197.833C325.515 207.568 324.296 217.283 321.706 226.729C320.117 232.305 317.815 237.692 314.847 242.778C311.582 248.211 307.459 253.178 302.609 257.519C297.724 262.026 292.651 266.123 288.414 270.622C284.336 274.941 281.044 279.827 278.664 285.095C274.075 295.185 272.795 305.116 272.367 313.331C271.984 321.587 272.386 328.287 272.599 332.906C272.711 335.174 272.808 336.956 272.873 338.233C272.896 338.805 272.913 339.257 272.926 339.618C272.942 339.776 272.938 339.936 272.914 340.093C272.868 339.939 272.842 339.781 272.835 339.623C272.799 339.267 272.751 338.812 272.693 338.243C272.589 336.971 272.439 335.19 272.253 332.925C271.714 326.399 271.542 319.852 271.736 313.31C272.087 305.055 273.304 295.038 277.906 284.81C280.3 279.458 283.627 274.492 287.757 270.105C292.039 265.546 297.126 261.433 301.978 256.95C306.77 252.665 310.848 247.764 314.083 242.404C317.03 237.376 319.325 232.053 320.921 226.541C323.529 217.16 324.802 207.513 324.709 197.836C324.756 189.57 324.26 182.881 323.98 178.262C323.833 175.994 323.719 174.212 323.642 172.935C323.613 172.362 323.589 171.911 323.573 171.549C323.552 171.391 323.551 171.232 323.57 171.074Z" fill="white"/>
<path d="M304.409 197.693C303.562 196.362 302.847 194.965 302.273 193.518C301.062 190.902 299.444 187.27 297.709 183.234L297.438 182.599L298.243 182.647C296.393 185.735 294.958 189.015 293.97 192.416C293.211 195.015 292.943 196.663 292.806 196.646C292.759 195.175 292.948 193.706 293.368 192.285C294.195 188.779 295.576 185.401 297.467 182.256L297.924 181.494L298.272 182.302C298.357 182.507 298.452 182.719 298.544 182.936C300.28 186.97 301.805 190.638 302.865 193.308C303.522 194.725 304.039 196.192 304.409 197.693Z" fill="white"/>
<path d="M295.69 345.485C295.444 345.485 295.947 308.975 296.814 263.954C297.681 218.933 298.586 182.428 298.838 182.431C299.09 182.434 298.58 218.934 297.714 263.971C296.84 308.989 295.935 345.488 295.69 345.485Z" fill="white"/>
<path d="M333.785 261.098C333.785 261.322 319.776 261.507 302.5 261.507C285.223 261.507 271.211 261.325 271.211 261.098C271.211 260.871 285.217 260.688 302.5 260.688C319.783 260.688 333.785 260.875 333.785 261.098Z" fill="white"/>
<path d="M326.838 267.366C328.325 266.553 329.886 265.857 331.502 265.285C334.434 264.091 338.514 262.49 343.067 260.755L343.099 261.516L342.576 261.358C337.771 259.906 333.44 258.548 330.319 257.528C328.602 257.054 326.931 256.449 325.324 255.72C327.092 256.009 328.829 256.433 330.518 256.987C333.689 257.867 338.052 259.138 342.859 260.591L343.381 260.748L344.514 261.09L343.412 261.508C338.855 263.238 334.736 264.754 331.743 265.811C330.16 266.455 328.519 266.975 326.838 267.366Z" fill="white"/>
<path d="M333.949 249.808C333.994 249.852 333.848 250.05 333.537 250.378L332.525 251.447L333.267 250.16C333.853 249.135 335.37 246.974 337.235 244.52C339.774 241.182 341.996 238.579 342.201 238.706C342.405 238.833 340.508 241.644 337.968 244.985C336.104 247.437 334.409 249.492 333.568 250.351L333.294 250.133C333.675 249.877 333.907 249.764 333.949 249.808Z" fill="white"/>
<path d="M344.681 248.712C344.504 248.867 341.982 246.734 339.052 243.947C336.122 241.159 333.887 238.774 334.066 238.62C334.245 238.466 336.765 240.599 339.696 243.387C342.628 246.176 344.857 248.557 344.681 248.712Z" fill="white"/>
<path d="M287.757 246.493C287.726 246.475 288.185 246.148 289.097 246.321C289.722 246.477 290.285 246.794 290.717 247.234C291.15 247.674 291.433 248.218 291.534 248.801C291.718 250.48 291.387 252.172 290.579 253.69C290.159 254.639 289.477 255.473 288.6 256.112C288.109 256.474 287.534 256.727 286.919 256.854C286.303 256.981 285.664 256.978 285.05 256.845C284.45 256.669 283.901 256.375 283.442 255.981C282.983 255.588 282.626 255.106 282.398 254.572C281.996 253.607 281.9 252.559 282.12 251.548C282.393 249.859 283.299 248.308 284.684 247.158C285.167 246.782 285.737 246.509 286.35 246.358C286.964 246.207 287.607 246.182 288.232 246.285C289.11 246.467 289.459 246.824 289.43 246.849C289.392 246.913 288.986 246.666 288.181 246.598C287.619 246.563 287.055 246.633 286.524 246.805C285.994 246.977 285.507 247.246 285.095 247.596C283.904 248.7 283.144 250.131 282.933 251.667C282.761 252.539 282.856 253.436 283.205 254.262C283.387 254.683 283.669 255.061 284.029 255.372C284.39 255.683 284.821 255.917 285.292 256.06C285.775 256.16 286.276 256.159 286.759 256.057C287.242 255.956 287.693 255.756 288.078 255.473C288.846 254.921 289.449 254.201 289.831 253.381C290.609 251.996 290.981 250.453 290.912 248.899C290.85 248.397 290.639 247.921 290.303 247.52C289.966 247.119 289.516 246.81 289 246.624C288.595 246.527 288.176 246.483 287.757 246.493Z" fill="white"/>
<path d="M279.094 193.493C278.894 193.626 277.586 192.291 276.17 190.515C274.755 188.738 273.772 187.19 273.97 187.057C274.168 186.925 275.478 188.259 276.893 190.037C278.309 191.816 279.293 193.362 279.094 193.493Z" fill="white"/>
<path d="M275.353 201.816C275.121 201.736 276.451 197.978 278.322 193.416C280.194 188.855 281.898 185.222 282.128 185.305C282.357 185.388 281.029 189.143 279.158 193.704C277.287 198.265 275.584 201.892 275.353 201.816Z" fill="white"/>
<path d="M376.848 264.257C376.663 264.406 374.48 262.454 371.971 259.897C369.463 257.34 367.577 255.146 367.76 254.995C367.943 254.845 370.122 256.796 372.637 259.355C375.153 261.914 377.032 264.107 376.848 264.257Z" fill="white"/>
<path d="M374.84 277.225C374.949 275.99 375.22 274.771 375.648 273.595C376.283 271.385 377.28 268.36 378.564 265.076C379.848 261.792 381.181 258.876 382.225 256.799C382.711 255.641 383.347 254.541 384.12 253.521C383.813 254.724 383.373 255.896 382.808 257.019C381.915 259.145 380.685 262.079 379.403 265.346C378.121 268.613 377.042 271.595 376.254 273.756C375.912 274.953 375.439 276.115 374.84 277.225Z" fill="white"/>
<path d="M406.919 260.201C406.919 260.425 403.763 260.61 399.872 260.61C395.981 260.61 392.823 260.428 392.823 260.201C392.823 259.973 395.979 259.791 399.872 259.791C403.765 259.791 406.919 259.978 406.919 260.201Z" fill="white"/>
<path d="M408.506 270.692C408.506 270.917 404.862 271.102 400.368 271.102C395.873 271.102 392.228 270.921 392.228 270.692C392.228 270.464 395.871 270.282 400.368 270.282C404.864 270.282 408.506 270.465 408.506 270.692Z" fill="white"/>
<path d="M430.494 275.619C430.31 275.771 427.182 272.764 423.503 268.908C419.823 265.051 416.997 261.807 417.185 261.664C417.374 261.52 420.504 264.525 424.176 268.375C427.849 272.225 430.675 275.467 430.494 275.619Z" fill="white"/>
<path d="M429.564 259.667C429.064 260.796 428.433 261.874 427.684 262.883C426.257 265.08 424.608 267.622 422.789 270.427L417.914 277.984C417.31 279.071 416.58 280.096 415.735 281.041C416.132 279.875 416.677 278.756 417.361 277.707C418.477 275.703 420.108 272.971 422.02 270.015C423.931 267.058 425.765 264.438 427.149 262.576C427.825 261.523 428.636 260.546 429.564 259.667Z" fill="white"/>
<path d="M442.848 255.351C442.822 255.542 438.651 254.812 432.446 255.065L431.696 255.095L432.1 254.513C433.596 252.362 435.286 249.93 437.082 247.343C438.472 245.251 440.377 243.301 439.875 241.323C439.782 240.887 439.546 240.487 439.198 240.176C438.849 239.865 438.406 239.658 437.925 239.582C437.037 239.431 436.12 239.555 435.318 239.933C434.155 240.593 433.191 241.507 432.514 242.592C432.275 243.014 431.977 243.406 431.628 243.759C431.74 243.291 431.938 242.843 432.213 242.434C432.818 241.212 433.789 240.171 435.014 239.429C435.937 238.944 437.015 238.763 438.067 238.917C438.699 239.008 439.286 239.271 439.752 239.67C440.217 240.07 440.54 240.588 440.677 241.157C440.92 242.37 440.663 243.621 439.957 244.672C439.307 245.742 438.561 246.721 437.832 247.78L432.764 254.894L432.418 254.343C434.959 254.283 437.502 254.423 440.018 254.761C440.987 254.837 441.939 255.036 442.848 255.351Z" fill="white"/>
<path d="M486.118 243.457C486.168 243.397 486.694 243.827 487.836 244.232C489.436 244.812 491.213 244.832 492.828 244.289C493.976 243.858 494.942 243.103 495.584 242.135C496.226 241.167 496.51 240.036 496.395 238.91C496.318 238.262 496.078 237.638 495.694 237.087C495.31 236.537 494.792 236.074 494.181 235.735C493.544 235.346 492.814 235.104 492.053 235.028C491.291 234.951 490.521 235.043 489.807 235.296L489.488 234.539L490.037 234.373C491.627 233.99 493.107 233.296 494.372 232.338C494.927 231.914 495.352 231.366 495.605 230.747C495.858 230.129 495.931 229.461 495.816 228.81C495.656 228.227 495.353 227.686 494.929 227.227C494.505 226.767 493.971 226.402 493.369 226.16C492.275 225.745 491.061 225.673 489.917 225.955C488.218 226.4 486.733 227.354 485.703 228.663C484.941 229.585 484.629 230.173 484.562 230.142C484.721 229.541 485.013 228.977 485.419 228.482C486.408 227.012 487.947 225.918 489.753 225.401C491.035 225.042 492.412 225.09 493.661 225.535C494.385 225.808 495.028 226.231 495.541 226.77C496.055 227.309 496.423 227.949 496.619 228.64C496.777 229.42 496.708 230.224 496.42 230.973C496.132 231.721 495.635 232.389 494.977 232.908C493.625 233.958 492.034 234.72 490.318 235.138L489.766 235.303L489.449 234.546C490.266 234.263 491.144 234.153 492.015 234.225C492.887 234.297 493.728 234.549 494.476 234.962C495.225 235.375 495.859 235.938 496.333 236.608C496.806 237.278 497.105 238.038 497.208 238.829C497.326 240.104 496.983 241.379 496.232 242.46C495.481 243.54 494.362 244.368 493.047 244.816C491.29 245.358 489.37 245.247 487.702 244.508C487.259 244.316 486.843 244.075 486.465 243.791C486.218 243.595 486.096 243.484 486.118 243.457Z" fill="white"/>
<path d="M512.188 224.379C512.391 224.222 512.648 224.136 512.913 224.135C513.297 224.141 513.674 224.233 514.009 224.403C514.345 224.573 514.629 224.816 514.837 225.11C515.175 225.523 515.362 226.022 515.372 226.538C515.358 227.139 515.182 227.728 514.858 228.251C514.025 229.438 512.982 230.49 511.772 231.366C510.387 232.473 508.921 233.495 507.387 234.425C505.801 235.395 504.143 236.765 504.279 238.704C504.339 239.69 504.728 240.636 505.393 241.416C506.058 242.195 506.967 242.773 508.001 243.07C509.112 243.43 510.302 243.545 511.471 243.405C512.641 243.265 513.757 242.875 514.729 242.266C515.697 241.678 516.37 240.764 516.601 239.725C516.67 239.221 516.628 238.71 516.476 238.222C516.323 237.734 516.065 237.28 515.715 236.885C514.342 235.193 512.116 234.455 510.043 233.801C507.94 233.301 506.008 232.332 504.42 230.981C503.71 230.314 503.205 229.488 502.958 228.585C502.753 227.736 502.848 226.849 503.229 226.052C503.903 224.732 505.085 223.682 506.55 223.101C507.623 222.685 508.762 222.426 509.923 222.332C510.645 222.263 511.37 222.229 512.095 222.229C512.348 222.208 512.604 222.223 512.853 222.273C512.859 222.344 511.813 222.393 509.971 222.645C508.861 222.79 507.781 223.083 506.765 223.513C505.451 224.082 504.405 225.061 503.816 226.272C503.517 227.003 503.466 227.799 503.671 228.556C503.876 229.313 504.327 229.996 504.965 230.516C506.492 231.763 508.332 232.648 510.323 233.094C512.38 233.725 514.837 234.485 516.424 236.406C516.847 236.885 517.16 237.437 517.342 238.03C517.525 238.622 517.574 239.242 517.487 239.852C517.356 240.472 517.093 241.063 516.712 241.59C516.331 242.117 515.839 242.571 515.265 242.925C514.176 243.612 512.923 244.052 511.61 244.208C510.297 244.363 508.963 244.231 507.717 243.821C506.508 243.444 505.447 242.751 504.669 241.828C503.928 240.931 503.51 239.847 503.469 238.726C503.433 237.646 503.828 236.59 504.581 235.755C505.272 235.022 506.079 234.388 506.976 233.874C508.507 232.979 509.975 231.997 511.371 230.933C512.55 230.118 513.579 229.139 514.421 228.03C514.736 227.635 514.916 227.164 514.939 226.677C514.962 226.189 514.826 225.706 514.55 225.288C514.38 225.019 514.143 224.789 513.859 224.618C513.575 224.446 513.252 224.337 512.913 224.299C512.67 224.311 512.428 224.338 512.188 224.379Z" fill="white"/>
<path d="M529.451 236.849C528.489 237.176 527.479 237.371 526.454 237.43C525.395 237.563 524.306 237.697 523.176 237.84C522.51 237.937 521.837 237.99 521.163 237.999C520.739 237.994 520.324 237.888 519.96 237.691C519.757 237.571 519.585 237.413 519.457 237.226C519.329 237.04 519.247 236.83 519.216 236.612C519.202 235.899 519.396 235.195 519.779 234.573C520.049 234.019 520.311 233.479 520.572 232.945C521.051 232.002 521.513 231.09 521.96 230.209C522.324 229.334 522.825 228.512 523.449 227.769C523.29 228.692 522.984 229.59 522.54 230.432C522.148 231.338 521.744 232.273 521.327 233.237C521.082 233.776 520.835 234.324 520.581 234.884C520.283 235.38 520.119 235.934 520.103 236.5C520.159 236.951 520.6 237.176 521.213 237.203C521.841 237.199 522.468 237.163 523.091 237.093L526.389 236.858C527.404 236.72 528.435 236.717 529.451 236.849Z" fill="white"/>
<path d="M531.088 245.248C530.843 245.265 530.267 240.861 529.803 235.414C529.339 229.966 529.162 225.532 529.407 225.515C529.652 225.497 530.228 229.899 530.692 235.348C531.157 240.798 531.334 245.231 531.088 245.248Z" fill="white"/>
<path d="M494.86 274.774C495.059 275.333 495.152 275.919 495.136 276.506L494.661 276.521C494.36 273.841 494.01 270.742 493.611 267.199C492.891 261.105 492.106 256.184 492.358 256.143C492.807 257.161 493.105 258.229 493.244 259.318C493.66 261.299 494.135 264.054 494.498 267.115C494.887 270.231 495.1 273.363 495.136 276.499L494.659 276.515C494.617 275.929 494.685 275.34 494.86 274.774Z" fill="white"/>
<path d="M514.595 254.371C514.661 254.586 512.206 255.405 509.113 256.201C506.019 256.997 503.456 257.466 503.388 257.25C503.321 257.035 505.775 256.214 508.869 255.42C511.962 254.626 514.527 254.154 514.595 254.371Z" fill="white"/>
<path d="M503.004 272.824C503.469 272.874 503.93 272.957 504.381 273.072C505.617 273.235 506.877 273.127 508.058 272.756C509.799 272.243 511.259 271.144 512.14 269.683C512.642 268.841 512.876 267.888 512.814 266.932C512.784 266.437 512.641 265.954 512.394 265.513C512.147 265.072 511.802 264.683 511.381 264.371C510.869 264.04 510.272 263.836 509.648 263.78C509.023 263.723 508.394 263.816 507.821 264.048C506.68 264.469 505.61 265.035 504.644 265.729L504.07 266.113L504.007 265.478C503.777 263.281 503.745 261.07 503.912 258.868C503.916 258.019 504.053 257.175 504.318 256.361C504.528 256.372 504.124 260.063 504.801 265.402L504.163 265.151C505.176 264.387 506.309 263.765 507.525 263.307C508.236 263.021 509.017 262.91 509.79 262.984C510.564 263.058 511.302 263.316 511.932 263.731C512.452 264.113 512.878 264.592 513.181 265.135C513.484 265.678 513.657 266.273 513.689 266.881C513.75 267.985 513.463 269.081 512.862 270.041C512.366 270.836 511.702 271.534 510.91 272.095C510.118 272.657 509.211 273.07 508.243 273.312C506.963 273.662 505.603 273.689 504.308 273.389C503.828 273.303 503.38 273.109 503.004 272.824Z" fill="white"/>
<path d="M478.741 255.187C478.741 255.411 477.137 255.596 475.161 255.596C473.186 255.596 471.58 255.415 471.58 255.187C471.58 254.958 473.184 254.777 475.161 254.777C477.139 254.777 478.741 254.962 478.741 255.187Z" fill="white"/>
<path d="M85.8702 262.257C85.6239 262.257 85.4204 228.158 85.4204 186.103C85.4204 144.048 85.6206 109.942 85.8702 109.942C86.1198 109.942 86.3199 144.035 86.3199 186.103C86.3199 228.172 86.1119 262.257 85.8702 262.257Z" fill="white"/>
<path d="M90.8706 111.265C90.6457 111.36 88.119 107.418 85.192 102.423L85.9904 102.376L85.9027 102.562C83.449 107.888 81.2743 112.13 81.0472 112.042C80.82 111.954 82.6214 107.572 85.0807 102.247L85.1684 102.06L85.5316 101.271L85.9656 102.013C88.9028 107.048 91.0899 111.17 90.8706 111.265Z" fill="white"/>
<path d="M84.9426 91.9596C84.7964 92.1286 83.4178 91.3092 82.3293 89.7882C81.2408 88.2672 80.9552 86.7944 81.1846 86.7401C81.4297 86.6695 82.0549 87.9385 83.0748 89.3417C84.0947 90.7449 85.1113 91.7834 84.9426 91.9596Z" fill="white"/>
<path d="M82.3156 96.3497C82.0907 96.2472 83.1983 93.8758 84.4454 90.9205C85.6924 87.9652 86.628 85.5354 86.8731 85.5938C87.1183 85.6522 86.5527 88.2141 85.2775 91.2114C84.0023 94.2087 82.5259 96.4521 82.3156 96.3497Z" fill="white"/>
<path d="M73.8977 130.004C73.6727 129.873 74.9929 127.977 75.4248 125.325C75.9049 122.678 75.2831 120.51 75.5372 120.442C75.7396 120.34 76.8124 122.581 76.303 125.45C75.8285 128.323 74.0562 130.155 73.8977 130.004Z" fill="white"/>
<path d="M75.5338 123.635C75.6294 123.671 75.3269 124.305 74.262 124.531C73.907 124.601 73.5394 124.6 73.1848 124.528C72.8303 124.455 72.4974 124.313 72.2092 124.112C71.921 123.91 71.6845 123.654 71.5161 123.361C71.3478 123.067 71.2516 122.744 71.2343 122.414C71.217 122.083 71.279 121.753 71.4159 121.447C71.5529 121.14 71.7615 120.864 72.0273 120.639C72.2931 120.413 72.6097 120.243 72.9551 120.14C73.3004 120.037 73.6662 120.004 74.027 120.043C75.1076 120.177 75.4787 120.78 75.3854 120.824C75.2976 120.926 74.8231 120.577 73.9989 120.619C73.7505 120.62 73.5048 120.666 73.2766 120.756C73.0485 120.846 72.8427 120.976 72.6716 121.141C72.5005 121.305 72.3677 121.499 72.2812 121.711C72.1947 121.923 72.1562 122.149 72.1681 122.375C72.1801 122.601 72.2421 122.822 72.3506 123.026C72.4591 123.23 72.6118 123.411 72.7993 123.56C72.9869 123.708 73.2056 123.82 73.4421 123.889C73.6786 123.959 73.9281 123.984 74.1755 123.963C75.0064 123.93 75.436 123.55 75.5338 123.635Z" fill="white"/>
<path d="M216.029 251.438C216.029 251.662 184.004 251.848 144.512 251.848C105.02 251.848 72.9849 251.665 72.9849 251.438C72.9849 251.211 105.002 251.028 144.512 251.028C184.022 251.028 216.029 251.214 216.029 251.438Z" fill="white"/>
<path d="M217.495 251.283C217.403 251.487 214.766 250.727 211.604 249.576C208.442 248.424 205.951 247.322 206.043 247.117C206.135 246.912 208.771 247.673 211.934 248.824C215.097 249.975 217.586 251.075 217.495 251.283Z" fill="white"/>
<path d="M219.06 251.761C219.142 251.973 217.023 252.843 214.327 253.707C211.632 254.572 209.38 255.095 209.299 254.882C209.218 254.669 211.336 253.801 214.033 252.936C216.729 252.072 218.979 251.55 219.06 251.761Z" fill="white"/>
<path d="M79.1536 255.58C79.1806 255.503 80.449 256.271 80.9977 258.283C81.3078 259.461 81.2084 260.697 80.7132 261.82C80.4249 262.52 79.9261 263.131 79.2739 263.584C78.885 263.842 78.4209 263.988 77.9404 264.005C77.46 264.022 76.9848 263.909 76.5752 263.679C75.8982 263.227 75.3553 262.628 74.9951 261.936C74.635 261.245 74.4689 260.483 74.5117 259.719C74.4903 259.101 74.6218 258.487 74.8965 257.922C75.1711 257.356 75.5819 256.855 76.0984 256.454C76.7996 255.923 77.6978 255.659 78.6071 255.715C79.2413 255.772 79.5303 255.975 79.5067 256.013C79.4831 256.079 79.1603 255.989 78.5981 256.031C77.8137 256.097 77.0759 256.399 76.5021 256.891C76.0961 257.257 75.7813 257.698 75.5787 258.185C75.3762 258.671 75.2907 259.192 75.3281 259.711C75.3109 260.339 75.4555 260.962 75.7504 261.53C76.0453 262.098 76.4822 262.595 77.0261 262.981C77.2892 263.133 77.5967 263.21 77.9085 263.201C78.2203 263.192 78.5218 263.097 78.7735 262.93C79.2985 262.567 79.7067 262.082 79.9553 261.526C80.4236 260.541 80.57 259.453 80.377 258.394C80.1327 257.403 79.7199 256.454 79.1536 255.58Z" fill="white"/>
<path d="M195.632 257.296C195.582 257.266 196.151 257.021 196.838 257.553C197.037 257.714 197.193 257.914 197.297 258.137C197.401 258.36 197.449 258.601 197.438 258.843C197.387 259.475 197.087 260.069 196.594 260.516C195.582 261.54 193.745 261.914 192.897 263.162C192.702 263.484 192.601 263.847 192.604 264.216C192.607 264.584 192.713 264.945 192.914 265.265C193.137 265.6 193.461 265.87 193.847 266.044C194.233 266.217 194.665 266.286 195.093 266.244C195.521 266.204 195.926 266.051 196.26 265.803C196.593 265.556 196.84 265.225 196.97 264.852C197.096 264.497 197.119 264.119 197.038 263.754C196.957 263.389 196.775 263.048 196.508 262.766C195.984 262.2 195.341 261.735 194.617 261.398C194.223 261.258 193.866 261.044 193.57 260.768C193.274 260.493 193.047 260.163 192.902 259.801C192.824 259.486 192.824 259.16 192.902 258.845C192.98 258.53 193.134 258.235 193.352 257.981C193.671 257.619 194.09 257.341 194.566 257.176C195.331 256.919 195.783 256.971 195.787 257.015C195.8 257.081 195.364 257.143 194.714 257.463C194.33 257.649 194.002 257.917 193.756 258.244C193.608 258.449 193.509 258.68 193.466 258.922C193.424 259.164 193.438 259.412 193.507 259.648C193.78 260.679 195.901 260.826 197.146 262.298C197.51 262.675 197.761 263.131 197.874 263.622C197.988 264.113 197.961 264.623 197.796 265.102C197.616 265.624 197.271 266.087 196.805 266.433C196.338 266.778 195.771 266.992 195.173 267.048C194.576 267.105 193.973 267.005 193.438 266.758C192.902 266.512 192.456 266.13 192.152 265.658C191.882 265.216 191.744 264.717 191.751 264.212C191.758 263.706 191.91 263.211 192.192 262.775C192.736 262.081 193.471 261.528 194.322 261.171C194.977 260.892 195.589 260.536 196.144 260.113C196.566 259.776 196.847 259.317 196.939 258.814C196.964 258.628 196.946 258.44 196.886 258.261C196.825 258.083 196.725 257.918 196.59 257.777C196.12 257.286 195.625 257.367 195.632 257.296Z" fill="white"/>
<path d="M195.214 254.238C194.968 254.238 194.765 252.628 194.765 250.639C194.765 248.65 194.965 247.04 195.214 247.04C195.464 247.04 195.664 248.652 195.664 250.639C195.664 252.626 195.464 254.238 195.214 254.238Z" fill="white"/>
<path d="M233.49 251.593C232.698 251.839 231.865 251.954 231.029 251.933L228.353 252.078C228.143 252.098 227.932 252.06 227.748 251.968C227.621 251.892 227.523 251.782 227.466 251.654C227.409 251.526 227.396 251.385 227.43 251.251C227.525 250.949 227.717 250.68 227.982 250.479L229.17 249.373C229.955 248.804 230.47 247.982 230.61 247.078C230.641 246.748 230.549 246.419 230.348 246.143C230.147 245.868 229.849 245.663 229.503 245.562C228.96 245.507 228.412 245.603 227.929 245.835C227.545 245.988 227.319 246.073 227.285 246.024C227.25 245.974 227.406 245.808 227.752 245.562C228.267 245.167 228.927 244.963 229.6 244.993C230.129 245.085 230.604 245.347 230.939 245.731C231.275 246.114 231.449 246.595 231.429 247.085C231.385 247.629 231.221 248.16 230.947 248.646C230.673 249.132 230.296 249.562 229.836 249.913L228.635 251.004C228.478 251.113 228.351 251.253 228.262 251.413C228.304 251.423 228.109 251.413 228.12 251.426C228.12 251.426 228.127 251.426 228.139 251.404C228.156 251.377 228.17 251.348 228.182 251.318L228.206 251.324C228.248 251.33 228.29 251.332 228.333 251.33L231.012 251.36C231.847 251.303 232.686 251.381 233.49 251.593Z" fill="white"/>
<path d="M104.921 251.438C104.841 250.694 104.803 249.947 104.809 249.199C104.778 247.671 104.734 245.662 104.685 243.216C104.597 238.153 104.505 231.141 104.486 223.139L104.921 223.538L96.6113 223.546C97.4985 222.735 96.8565 223.326 97.0555 223.146V224.219V225.291C97.0555 226.005 97.0555 226.711 97.0555 227.411C97.0555 228.812 97.0525 230.187 97.0465 231.535C97.033 234.22 97.0229 236.792 97.0105 239.211C96.961 243.976 96.9183 248.14 96.8834 251.444L96.6124 251.196L102.659 251.333C103.415 251.335 104.171 251.372 104.923 251.444C104.226 251.524 103.523 251.561 102.821 251.554L96.6113 251.692L96.3403 251.698V251.444C96.3066 248.141 96.2627 243.976 96.2155 239.211C96.2031 236.792 96.1919 234.221 96.1795 231.535C96.1795 230.187 96.1765 228.813 96.1705 227.411C96.1705 226.711 96.1705 226.005 96.1705 225.291V223.141C96.3707 222.959 95.7207 223.541 96.6203 222.731L104.93 222.74H105.368V223.136C105.347 231.311 105.255 238.453 105.169 243.494C105.117 245.904 105.076 247.88 105.045 249.385C105.055 250.071 105.014 250.757 104.921 251.438Z" fill="white"/>
<path d="M184.045 251.446C184.003 251.16 183.983 250.871 183.987 250.582C183.971 249.954 183.951 249.164 183.927 248.194C183.897 246.043 183.853 243.084 183.8 239.447C183.711 232.045 183.62 221.796 183.604 210.179L184.045 210.58H175.735C176.621 209.769 175.98 210.363 176.179 210.186V213.416C176.179 214.488 176.179 215.551 176.179 216.604C176.179 218.706 176.173 220.768 176.169 222.779C176.153 226.793 176.14 230.605 176.126 234.149C176.065 241.156 176.014 247.087 175.976 251.445L175.737 251.23L181.816 251.35L183.456 251.401C183.655 251.4 183.854 251.415 184.051 251.445C183.355 251.514 182.655 251.546 181.955 251.541L175.736 251.663H175.501V251.442C175.463 247.085 175.41 241.153 175.348 234.146C175.336 230.603 175.321 226.791 175.307 222.776C175.307 220.765 175.298 218.704 175.294 216.601C175.294 215.548 175.294 214.486 175.294 213.413V210.183C175.494 209.999 174.845 210.577 175.744 209.766H184.054H184.496V210.168C184.482 221.954 184.39 232.338 184.303 239.72C184.25 243.32 184.205 246.244 184.174 248.374C184.151 249.31 184.129 250.07 184.115 250.674C184.122 250.933 184.099 251.192 184.045 251.446Z" fill="white"/>
<path d="M124.921 251.438C124.877 251.083 124.857 250.725 124.861 250.368C124.846 249.614 124.828 248.626 124.802 247.391C124.771 244.742 124.726 241.04 124.671 236.477C124.623 227.21 124.559 214.441 124.479 200.024L124.921 200.427C122.26 200.427 119.457 200.427 116.611 200.427C117.497 199.616 116.856 200.212 117.053 200.036V204.154V208.21C117.053 210.886 117.044 213.505 117.041 216.054C117.024 221.144 117.008 225.953 116.992 230.384C116.924 239.163 116.865 246.426 116.826 251.436L116.61 251.239C119.208 251.288 121.246 251.325 122.725 251.35L124.344 251.397C124.538 251.396 124.732 251.409 124.923 251.436C124.758 251.467 124.59 251.48 124.422 251.475L122.847 251.522L116.605 251.633H116.392V251.428C116.352 246.418 116.294 239.155 116.225 230.376C116.21 225.945 116.195 221.135 116.177 216.045C116.177 213.497 116.17 210.877 116.165 208.202C116.165 206.864 116.165 205.512 116.165 204.145V200.027C116.365 199.842 115.715 200.419 116.614 199.607C119.461 199.607 122.264 199.607 124.924 199.607H125.369V200.01C125.293 214.542 125.225 227.413 125.176 236.752C125.121 241.279 125.077 244.947 125.046 247.572C125.02 248.77 125.001 249.723 124.986 250.46C124.994 250.787 124.972 251.114 124.921 251.438Z" fill="white"/>
<path d="M144.503 251.282C144.481 251.14 144.47 250.995 144.472 250.851C144.466 250.533 144.456 250.134 144.443 249.638C144.427 248.526 144.407 246.982 144.381 245.019C144.349 240.97 144.304 235.202 144.248 228.062C144.199 213.721 144.135 193.874 144.059 171.615L144.503 172.019C141.857 172.019 139.04 172.019 136.194 172.019C137.077 171.208 136.439 171.808 136.636 171.634V174.933V178.225C136.636 180.41 136.636 182.57 136.636 184.704C136.636 188.975 136.626 193.144 136.62 197.188C136.601 205.272 136.582 212.855 136.567 219.755C136.483 233.473 136.417 244.454 136.375 251.281L136.195 251.117C138.815 251.156 140.863 251.188 142.319 251.211L143.935 251.249C144.126 251.249 144.317 251.259 144.507 251.281C144.339 251.307 144.168 251.318 143.998 251.314L142.424 251.353L136.195 251.446H136.013V251.279C135.971 244.452 135.9 233.471 135.821 219.753C135.804 212.851 135.787 205.269 135.766 197.186C135.766 193.142 135.757 188.973 135.752 184.702C135.752 182.567 135.752 180.407 135.752 178.223C135.752 177.13 135.752 176.033 135.752 174.931V171.632C135.952 171.445 135.302 172.017 136.202 171.204H144.511H144.96V171.614C144.885 193.991 144.819 213.935 144.77 228.356C144.715 235.455 144.671 241.191 144.639 245.218C144.613 247.141 144.593 248.654 144.577 249.745C144.565 250.219 144.555 250.6 144.547 250.904C144.548 251.031 144.533 251.158 144.503 251.282Z" fill="white"/>
<path d="M164.561 251.283C164.561 251.283 164.541 251.032 164.531 250.566C164.522 250.071 164.512 249.394 164.498 248.524C164.485 246.701 164.462 244.078 164.435 240.713C164.405 233.915 164.358 224.132 164.302 212.017C164.255 187.778 164.189 154.223 164.116 116.792L164.566 117.202H156.259C157.136 116.391 156.502 117.003 156.698 116.835V122.674C156.698 124.626 156.698 126.568 156.698 128.499C156.698 132.362 156.698 136.179 156.698 139.95C156.691 147.487 156.685 154.823 156.681 161.908C156.657 176.073 156.636 189.233 156.616 200.987C156.513 224.418 156.436 242.218 156.391 251.284L156.254 251.158L162.483 251.231L164.036 251.261C164.213 251.259 164.391 251.267 164.567 251.285C164.407 251.304 164.245 251.312 164.083 251.308L162.563 251.338L156.252 251.412H156.115V251.284C156.076 242.221 155.997 224.421 155.89 200.987C155.871 189.233 155.849 176.073 155.827 161.908C155.827 154.823 155.815 147.487 155.811 139.95C155.811 136.181 155.811 132.365 155.811 128.499V119.739V118.266V116.832C156.014 116.638 155.361 117.201 156.26 116.387H165.012V116.797C164.938 154.345 164.874 188.006 164.826 212.321C164.769 224.396 164.724 234.148 164.692 240.922C164.665 244.247 164.643 246.838 164.629 248.638L164.598 250.628C164.6 250.847 164.588 251.065 164.561 251.283Z" fill="white"/>
<path d="M303.786 54.4387C303.786 54.4387 304.1 54.5125 304.699 54.6927C305.299 54.873 306.202 55.124 307.346 55.5419C316.044 58.6993 323.672 63.8939 329.457 70.6C334.202 76.0206 337.424 82.4141 338.843 89.2259C340.441 97.5371 339.226 106.095 335.357 113.761C333.233 118.029 330.269 121.906 326.612 125.201C324.702 126.924 322.605 128.465 320.353 129.803C319.172 130.417 318.011 131.086 316.778 131.647C315.525 132.166 314.305 132.78 312.98 133.192C302.522 136.982 290.485 137.138 278.537 136.094C272.527 135.564 266.458 134.772 260.305 133.903C254.036 133.084 247.855 131.778 241.831 129.999C235.745 128.234 230.12 125.354 225.301 121.536C222.992 119.61 220.962 117.423 219.263 115.028C217.649 112.642 216.356 110.089 215.409 107.423C213.619 102.216 213.017 96.7313 213.642 91.3053C214.258 86.1133 215.904 81.0663 218.5 76.4102C223.621 67.9297 231.353 60.999 240.743 56.472C248.835 52.4934 257.671 49.9254 266.796 48.9C274.301 48.0856 281.883 48.0433 289.398 48.774C295.063 49.3122 300.688 50.1499 306.245 51.2827C310.819 52.2046 314.329 53.0743 316.703 53.6735L319.393 54.3906C319.998 54.5575 320.301 54.6641 320.301 54.6641C320.301 54.6641 319.983 54.6108 319.369 54.4705L316.655 53.8323C314.267 53.2842 310.746 52.4678 306.169 51.5941C300.615 50.5186 294.999 49.7279 289.348 49.2257C281.869 48.5476 274.331 48.6297 266.873 49.4706C257.838 50.5245 249.098 53.0994 241.096 57.0641C231.859 61.5491 224.26 68.3922 219.23 76.7543C216.693 81.3302 215.087 86.2869 214.49 91.3842C213.887 96.7027 214.484 102.077 216.246 107.178C217.172 109.78 218.437 112.271 220.014 114.599C221.671 116.931 223.649 119.06 225.899 120.935C230.631 124.678 236.151 127.501 242.123 129.232C248.101 130.997 254.233 132.293 260.452 133.106C266.586 133.977 272.652 134.772 278.628 135.304C290.516 136.356 302.418 136.201 312.686 132.497C322.486 129.047 330.395 122.213 334.694 113.481C338.528 105.942 339.761 97.5203 338.23 89.3294C336.86 82.595 333.717 76.2639 329.07 70.8796C325.603 66.7887 321.434 63.2337 316.724 60.3513C313.751 58.5245 310.59 56.9646 307.287 55.6935C306.155 55.2531 305.263 54.9898 304.677 54.7716C304.091 54.5534 303.786 54.4387 303.786 54.4387Z" fill="white"/>
<path d="M243.911 107.235C243.313 107.371 242.699 107.437 242.083 107.432C240.904 107.506 239.197 107.585 237.09 107.667L235.435 107.727C234.797 107.791 234.153 107.767 233.523 107.655C233.125 107.55 232.787 107.308 232.582 106.979C232.408 106.671 232.306 106.334 232.281 105.988L232.146 104.121C231.983 101.56 231.808 98.7832 231.622 95.8668C231.471 92.9247 231.239 90.1722 231.22 87.5764C231.193 86.3091 231.518 85.056 232.165 83.9337C232.794 82.9636 233.761 82.2132 234.912 81.8019C236.528 81.2825 238.253 81.1073 239.954 81.2897C240.574 81.2998 241.188 81.4004 241.772 81.5878C241.163 81.646 240.55 81.6518 239.939 81.6053C238.31 81.5482 236.684 81.7921 235.16 82.3223C234.165 82.7151 233.339 83.395 232.809 84.2574C232.256 85.2915 231.992 86.4341 232.041 87.5836C232.103 90.0698 232.363 92.8971 232.512 95.8145C232.662 98.732 232.826 101.512 232.968 104.073C233.106 105.28 232.814 106.803 233.749 107.006C234.297 107.103 234.857 107.133 235.414 107.093L237.07 107.084C239.18 107.076 240.893 107.084 242.069 107.107C242.687 107.08 243.305 107.123 243.911 107.235Z" fill="white"/>
<path d="M241.387 93.8489C241.387 94.0732 239.305 94.2954 236.726 94.3436C234.146 94.3917 232.051 94.2514 232.047 94.0271C232.042 93.8029 234.128 93.5806 236.708 93.5325C239.287 93.4844 241.381 93.6226 241.387 93.8489Z" fill="white"/>
<path d="M264.735 90.0621C264.719 90.2945 261.542 90.2669 257.639 90.3847C253.736 90.5024 250.564 90.6919 250.531 90.4584C250.498 90.2249 253.655 89.678 257.615 89.5736C261.576 89.4691 264.757 89.847 264.735 90.0621Z" fill="white"/>
<path d="M266.095 99.826C266.107 100.044 262.963 100.36 259.074 100.27C255.184 100.18 252.06 99.7296 252.085 99.5123C252.11 99.295 255.241 99.3729 259.096 99.458C262.951 99.5431 266.078 99.5964 266.095 99.826Z" fill="white"/>
<path d="M303.804 105.691C303.738 105.691 303.82 104.806 303.739 103.2C303.63 100.914 303.176 98.6526 302.39 96.4796C301.863 95.1478 301.305 93.4606 299.803 92.6196C299.421 92.4273 298.986 92.3397 298.55 92.3673C298.114 92.3949 297.696 92.5366 297.346 92.7753C296.545 93.3253 295.908 94.0508 295.496 94.8845C293.512 98.3799 293.247 102.875 293.215 107.564L292.346 107.528C292.604 104.399 292.561 101.255 292.219 98.133C292.093 96.8645 291.893 95.603 291.621 94.3539C291.409 93.1948 290.742 92.1456 289.743 91.4025C289.275 91.0776 288.706 90.8947 288.118 90.8797C287.53 90.8646 286.951 91.0181 286.464 91.3185C285.461 91.924 284.734 92.8412 284.418 93.899C284.091 94.9597 283.876 96.0465 283.776 97.1444C283.641 98.2293 283.545 99.2957 283.485 100.32C283.372 102.26 283.372 104.204 283.485 106.144L282.81 106.185C282.617 101.601 282.457 97.8318 282.34 95.0853C282.31 93.8489 282.284 92.8439 282.263 92.052C282.233 91.6973 282.246 91.3407 282.302 90.9887C282.399 91.3344 282.453 91.6891 282.462 92.0459C282.53 92.8347 282.616 93.8366 282.723 95.071C282.913 97.8103 283.172 101.569 283.491 106.143L282.816 106.184C282.666 104.222 282.636 102.253 282.727 100.288C282.775 99.2414 282.861 98.1637 282.986 97.0635C283.08 95.9147 283.297 94.7771 283.633 93.6665C284.002 92.4307 284.851 91.3589 286.022 90.6506C286.653 90.2814 287.388 90.0838 288.138 90.0811C288.91 90.0969 289.657 90.3322 290.275 90.7541C291.449 91.6067 292.241 92.8204 292.503 94.1675C292.788 95.4514 292.995 96.7485 293.124 98.0531C293.473 101.222 293.511 104.414 293.236 107.589L292.367 107.554C292.42 102.859 292.715 98.2221 294.841 94.5711C295.32 93.6396 296.053 92.8355 296.97 92.2354C297.43 91.9379 297.973 91.7662 298.536 91.7405C299.1 91.7147 299.659 91.8359 300.15 92.0899C301.979 93.1891 302.42 94.9696 302.944 96.3249C303.695 98.5503 304.072 100.866 304.063 103.195C304.061 103.816 304.024 104.436 303.95 105.054C303.935 105.272 303.886 105.486 303.804 105.691Z" fill="white"/>
<path d="M323.458 104.398C323.484 104.431 323.144 104.734 322.387 105.088C321.301 105.573 320.112 105.839 318.902 105.869C317.08 105.92 315.283 105.473 313.742 104.586C311.874 103.432 310.544 101.686 310.012 99.688C309.48 97.6899 309.783 95.5828 310.864 93.7776C311.788 92.3463 313.162 91.2005 314.808 90.4884C315.897 90.0105 317.086 89.7523 318.294 89.7314C318.736 89.6907 319.182 89.7487 319.593 89.9004C318.029 90.0042 316.5 90.3775 315.088 91.0006C313.615 91.7254 312.397 92.8153 311.576 94.1443C310.642 95.7932 310.392 97.6932 310.872 99.4962C311.351 101.299 312.528 102.885 314.186 103.962C315.583 104.802 317.213 105.264 318.887 105.293C320.459 105.261 322.01 104.957 323.458 104.398Z" fill="white"/>
<path d="M328.745 81.2391C328.764 81.4511 324.542 81.1366 318.767 82.8207L317.254 83.2612L318.373 82.2215C320.549 80.4191 322.424 78.338 323.942 76.0433C325.142 74.1428 325.558 71.9138 325.113 69.7587C324.875 68.8132 324.247 68.0479 323.374 68.0172C322.489 68.0426 321.622 68.2581 320.846 68.6462C319.651 69.1931 318.598 69.966 317.757 70.9132C317.152 71.5862 316.902 72.0226 316.835 71.9919C316.935 71.5294 317.155 71.0953 317.476 70.7257C318.257 69.649 319.313 68.7611 320.554 68.1381C321.421 67.6574 322.408 67.3846 323.422 67.3452C323.736 67.3576 324.044 67.4274 324.327 67.5506C324.61 67.6738 324.864 67.8479 325.072 68.0623C325.475 68.4966 325.762 69.0109 325.908 69.5641C326.454 71.9023 326.035 74.3418 324.731 76.4162C323.175 78.7867 321.215 80.9172 318.926 82.7285L318.533 82.1293C320.927 81.4734 323.407 81.1116 325.906 81.0536C326.857 80.9774 327.816 81.04 328.745 81.2391Z" fill="white"/>
<path d="M524.144 271.442C524.625 271.271 525.123 271.143 525.631 271.06C526.963 270.745 528.225 270.221 529.358 269.51C530.178 269 530.874 268.343 531.405 267.579C531.936 266.815 532.289 265.96 532.443 265.067C532.571 264.028 532.335 262.978 531.769 262.069C531.482 261.59 531.083 261.173 530.602 260.848C530.12 260.523 529.566 260.298 528.979 260.188C528.359 260.064 527.715 260.082 527.105 260.24C526.495 260.399 525.938 260.694 525.484 261.098L524.852 260.552C525.675 259.892 526.572 259.313 527.527 258.824C528.308 258.408 528.926 257.78 529.294 257.027C529.447 256.721 529.49 256.379 529.417 256.05C529.343 255.72 529.157 255.421 528.886 255.193C528.361 254.796 527.692 254.593 527.011 254.625C525.983 254.739 525.009 255.112 524.2 255.7C523.588 256.097 523.251 256.315 523.215 256.279C523.179 256.243 523.448 255.957 524.012 255.484C524.817 254.754 525.854 254.274 526.976 254.113C527.816 254.034 528.656 254.255 529.322 254.727C529.711 255.032 529.985 255.441 530.106 255.895C530.227 256.35 530.189 256.827 529.997 257.261C529.598 258.165 528.893 258.929 527.984 259.442C527.089 259.92 526.248 260.475 525.471 261.1L524.839 260.554C525.39 260.044 526.074 259.67 526.827 259.466C527.579 259.262 528.377 259.234 529.144 259.386C529.855 259.519 530.526 259.793 531.109 260.187C531.691 260.582 532.172 261.088 532.518 261.669C533.165 262.731 533.42 263.954 533.244 265.158C533.06 266.145 532.649 267.084 532.038 267.915C531.427 268.746 530.629 269.45 529.697 269.98C528.48 270.687 527.116 271.158 525.69 271.365C525.185 271.483 524.66 271.51 524.144 271.442Z" fill="white"/>
<path d="M546.188 279.097C546.222 279.32 532.775 281.239 516.156 283.382C499.538 285.525 486.034 287.084 486 286.865C485.966 286.645 499.409 284.725 516.032 282.58C532.654 280.435 546.15 278.876 546.188 279.097Z" fill="white"/>
<path d="M438.726 287.195C438.749 287.419 425.433 288.834 408.986 290.371C392.538 291.907 379.177 292.96 379.151 292.737C379.125 292.513 392.44 291.098 408.895 289.561C425.349 288.025 438.701 286.972 438.726 287.195Z" fill="white"/>
<path d="M442.022 293.957C442.049 294.18 429.575 295.652 414.165 297.246C398.755 298.84 386.233 299.949 386.205 299.726C386.177 299.502 398.647 298.03 414.064 296.439C429.48 294.847 441.993 293.734 442.022 293.957Z" fill="white"/>
<path d="M280.442 364.133H221.486V369.982H280.442V364.133Z" fill="#FAFAFA"/>
<path d="M303.567 301.976V369.909H431.758L303.567 301.976ZM323.231 329.326L376.513 358.07H323.235L323.231 329.326Z" fill="#E8505B"/>
<path d="M315.88 308.498C316.089 308.617 315.058 310.477 313.576 312.655C312.094 314.833 310.721 316.503 310.512 316.384C310.303 316.265 311.334 314.405 312.816 312.226C314.298 310.047 315.671 308.379 315.88 308.498Z" fill="#263238"/>
<path d="M334.898 318.464C335.105 318.586 334.084 320.396 332.618 322.51C331.152 324.624 329.791 326.239 329.582 326.12C329.373 326.001 330.394 324.189 331.862 322.074C333.331 319.959 334.689 318.345 334.898 318.464Z" fill="#263238"/>
<path d="M353.914 328.432C354.108 328.571 352.884 330.276 351.183 332.236C349.482 334.196 347.944 335.675 347.751 335.536C347.558 335.397 348.781 333.692 350.482 331.732C352.184 329.772 353.718 328.293 353.914 328.432Z" fill="#263238"/>
<path d="M372.594 338.788C372.788 338.928 371.564 340.632 369.863 342.592C368.162 344.551 366.625 346.031 366.431 345.891C366.238 345.752 367.461 344.047 369.162 342.088C370.864 340.128 372.395 338.649 372.594 338.788Z" fill="#263238"/>
<path d="M392.119 348.971C392.321 349.097 391.196 350.917 389.606 353.033C388.015 355.149 386.557 356.763 386.355 356.635C386.152 356.507 387.277 354.689 388.868 352.574C390.459 350.459 391.915 348.845 392.119 348.971Z" fill="#263238"/>
<path d="M412.401 359.694C412.607 359.816 411.597 361.548 410.152 363.56C408.707 365.572 407.359 367.106 407.153 366.983C406.947 366.86 407.955 365.129 409.402 363.116C410.849 361.102 412.194 359.571 412.401 359.694Z" fill="#263238"/>
<path d="M321.811 311.645C322.02 311.764 321.586 312.738 320.852 313.82C320.119 314.903 319.347 315.686 319.138 315.568C318.928 315.451 319.362 314.476 320.096 313.393C320.829 312.31 321.606 311.526 321.811 311.645Z" fill="#263238"/>
<path d="M328.046 314.81C328.255 314.929 327.821 315.903 327.088 316.986C326.355 318.069 325.582 318.853 325.373 318.735C325.164 318.618 325.598 317.642 326.331 316.557C327.064 315.472 327.837 314.691 328.046 314.81Z" fill="#263238"/>
<path d="M341.913 322.238C342.122 322.357 341.688 323.331 340.955 324.414C340.222 325.496 339.449 326.28 339.24 326.162C339.031 326.044 339.465 325.069 340.198 323.984C340.931 322.9 341.704 322.122 341.913 322.238Z" fill="#263238"/>
<path d="M348.148 325.405C348.357 325.523 347.923 326.497 347.19 327.58C346.457 328.663 345.684 329.445 345.475 329.328C345.266 329.212 345.7 328.235 346.433 327.151C347.166 326.066 347.939 325.286 348.148 325.405Z" fill="#263238"/>
<path d="M360.678 332.478C360.887 332.597 360.453 333.571 359.72 334.654C358.987 335.737 358.214 336.521 358.005 336.403C357.796 336.285 358.23 335.31 358.963 334.227C359.696 333.144 360.469 332.359 360.678 332.478Z" fill="#263238"/>
<path d="M366.628 335.648C366.837 335.764 366.403 336.741 365.67 337.824C364.937 338.907 364.164 339.689 363.955 339.572C363.746 339.456 364.18 338.478 364.913 337.394C365.646 336.311 366.419 335.529 366.628 335.648Z" fill="#263238"/>
<path d="M379.46 342.395C379.669 342.514 379.235 343.488 378.502 344.573C377.769 345.658 376.997 346.439 376.787 346.32C376.578 346.201 377.012 345.227 377.743 344.144C378.474 343.061 379.252 342.279 379.46 342.395Z" fill="#263238"/>
<path d="M386.354 346.099C386.564 346.218 386.13 347.192 385.396 348.275C384.663 349.358 383.891 350.141 383.682 350.023C383.472 349.906 383.906 348.93 384.64 347.848C385.373 346.765 386.145 345.98 386.354 346.099Z" fill="#263238"/>
<path d="M398.751 352.71C398.96 352.829 398.526 353.803 397.793 354.886C397.059 355.969 396.287 356.753 396.078 356.635C395.869 356.517 396.303 355.542 397.036 354.459C397.769 353.376 398.542 352.591 398.751 352.71Z" fill="#263238"/>
<path d="M405.908 356.444C406.117 356.563 405.683 357.537 404.95 358.622C404.217 359.707 403.444 360.488 403.235 360.369C403.026 360.25 403.46 359.276 404.193 358.193C404.926 357.11 405.699 356.327 405.908 356.444Z" fill="#263238"/>
</svg>
