<svg width="25" height="22" viewBox="0 0 25 22" fill="none" xmlns="http://www.w3.org/2000/svg">
<path fill-rule="evenodd" clip-rule="evenodd" d="M12.3984 17.411L5.06535 21.5039V17.411H2.65694C2.34067 17.411 2.02749 17.3553 1.73528 17.2472C1.44308 17.139 1.17758 16.9805 0.953941 16.7807C0.7303 16.5809 0.552898 16.3437 0.431864 16.0826C0.310831 15.8215 0.248535 15.5416 0.248535 15.259V2.3494C0.248535 1.77866 0.502277 1.23131 0.953941 0.82774C1.40561 0.424171 2.01819 0.197449 2.65694 0.197449H21.9219C22.5607 0.197449 23.1733 0.424171 23.6249 0.82774C24.0766 1.23131 24.3303 1.77866 24.3303 2.3494V15.259C24.3303 15.8298 24.0766 16.3771 23.6249 16.7807C23.1733 17.1843 22.5607 17.411 21.9219 17.411H12.3984ZM7.47716 17.622L11.7069 15.259H21.9265V2.3494H2.65694V15.259H7.47262L7.47716 17.622ZM6.26671 12.0316V9.8807H14.6956V12.0327L6.26671 12.0316ZM6.26671 7.72774V5.57478H17.104V7.72876L6.26671 7.72774Z" fill="black"/>
</svg>
