<svg width="24" height="18" viewBox="0 0 24 18" fill="none" xmlns="http://www.w3.org/2000/svg">
<path d="M19.8739 0.811035H4.13125C3.23656 0.811035 2.37851 1.1348 1.74587 1.71111C1.11323 2.28742 0.757813 3.06907 0.757812 3.88409V14.1276C0.757813 14.9427 1.11323 15.7243 1.74587 16.3006C2.37851 16.8769 3.23656 17.2007 4.13125 17.2007H19.8739C20.7686 17.2007 21.6267 16.8769 22.2593 16.3006C22.892 15.7243 23.2474 14.9427 23.2474 14.1276V3.88409C23.2474 3.06907 22.892 2.28742 22.2593 1.71111C21.6267 1.1348 20.7686 0.811035 19.8739 0.811035ZM19.1205 2.85974L12.0026 7.72542L4.88465 2.85974H19.1205ZM19.8739 15.152H4.13125C3.83302 15.152 3.547 15.0441 3.33612 14.852C3.12524 14.6598 3.00677 14.3993 3.00677 14.1276V4.14018L11.3279 9.82534C11.5225 9.95833 11.7593 10.0302 12.0026 10.0302C12.2459 10.0302 12.4826 9.95833 12.6773 9.82534L20.9984 4.14018V14.1276C20.9984 14.3993 20.8799 14.6598 20.6691 14.852C20.4582 15.0441 20.1722 15.152 19.8739 15.152Z" fill="black"/>
</svg>
