<svg xmlns="http://www.w3.org/2000/svg" xmlns:xlink="http://www.w3.org/1999/xlink" width="1043.132" height="713.265" viewBox="0 0 1043.132 713.265">
  <defs>
    <clipPath id="clip-path">
      <rect id="Rectangle_30" data-name="Rectangle 30" width="244.093" height="147.739" rx="9.347" fill="#25cad1"/>
    </clipPath>
    <clipPath id="clip-path-2">
      <path id="Path_159" data-name="Path 159" d="M789.1,350.011H522.309c-6.6,0,7.512-45.19,7.512-51.79l50.768-142.574c0-6.6,91.412,3.827,98.012,3.827L789.1,92.589a11.95,11.95,0,0,1,11.95,11.95V338.062A11.95,11.95,0,0,1,789.1,350.011Z" transform="translate(-520.551 -92.589)" fill="none"/>
    </clipPath>
  </defs>
  <g id="Group_184" data-name="Group 184" transform="translate(-44.458 -62.509)">
    <g id="Group_19" data-name="Group 19" transform="translate(44.958 112.455)">
      <g id="Group_17" data-name="Group 17" transform="translate(373.072 17.446)">
        <g id="Group_2" data-name="Group 2" transform="translate(0 76.137)">
          <path id="Path_5" data-name="Path 5" d="M364.954,158.5l5.559,5.557a15.806,15.806,0,0,1,22.351,0l5.557-5.557a23.661,23.661,0,0,0-33.467,0Z" transform="translate(-346.516 -125.494)" fill="none" stroke="#672ed6" stroke-miterlimit="10" stroke-width="1"/>
          <path id="Path_6" data-name="Path 6" d="M360.136,155.509l5.559,5.557a28.842,28.842,0,0,1,40.789,0l5.557-5.557a36.7,36.7,0,0,0-51.9,0Z" transform="translate(-350.917 -131.719)" fill="none" stroke="#672ed6" stroke-miterlimit="10" stroke-width="1"/>
          <path id="Path_7" data-name="Path 7" d="M390.489,137.943a49.409,49.409,0,0,0-35.171,14.571l5.559,5.557a41.878,41.878,0,0,1,59.228,0l5.557-5.557A49.4,49.4,0,0,0,390.489,137.943Z" transform="translate(-355.318 -137.943)" fill="none" stroke="#672ed6" stroke-miterlimit="10" stroke-width="1"/>
          <circle id="Ellipse_1" data-name="Ellipse 1" cx="6.708" cy="6.708" r="6.708" transform="translate(28.464 38.567)" fill="none" stroke="#672ed6" stroke-miterlimit="10" stroke-width="1"/>
        </g>
        <g id="Group_3" data-name="Group 3" transform="translate(126.52 340.954)">
          <line id="Line_1" data-name="Line 1" y2="17.21" transform="translate(8.605)" fill="none" stroke="#672ed6" stroke-linecap="round" stroke-linejoin="round" stroke-width="0.75"/>
          <line id="Line_2" data-name="Line 2" x2="17.211" transform="translate(0 8.605)" fill="none" stroke="#672ed6" stroke-linecap="round" stroke-linejoin="round" stroke-width="0.75"/>
        </g>
        <g id="Group_6" data-name="Group 6" transform="translate(651.974 482.056)">
          <line id="Line_7" data-name="Line 7" y2="17.21" transform="translate(8.605)" fill="none" stroke="#fccb0a" stroke-linecap="round" stroke-linejoin="round" stroke-width="0.75"/>
          <line id="Line_8" data-name="Line 8" x2="17.211" transform="translate(0 8.605)" fill="none" stroke="#fccb0a" stroke-linecap="round" stroke-linejoin="round" stroke-width="0.75"/>
        </g>
        <g id="Group_12" data-name="Group 12" transform="translate(524.223 456.456)">
          <circle id="Ellipse_3" data-name="Ellipse 3" cx="38" cy="38" r="38" transform="translate(0 38.528) rotate(-30.461)" fill="#ff335f"/>
          <g id="Group_11" data-name="Group 11" transform="translate(35.235 39.663)">
            <rect id="Rectangle_9" data-name="Rectangle 9" width="34.7" height="26.069" fill="none" stroke="#fff" stroke-miterlimit="10" stroke-width="3"/>
            <path id="Path_8" data-name="Path 8" d="M645.121,355.5l17.35,16.029,17.35-16.029" transform="translate(-645.121 -355.495)" fill="none" stroke="#fff" stroke-miterlimit="10" stroke-width="3"/>
          </g>
        </g>
        <path id="Path_12" data-name="Path 12" d="M424.905,379.5l12.334,10.829,12.334,10.829-15.545,5.267-15.546,5.267,3.211-16.1Z" transform="translate(-297.619 158.846)" fill="none" stroke="#d96980" stroke-miterlimit="10" stroke-width="1"/>
        <path id="Path_14" data-name="Path 14" d="M713.671,397.634l-3.725,13.738-3.725,13.738-10.035-10.1-10.035-10.1,13.76-3.643Z" transform="translate(-53.113 175.413)" fill="none" stroke="#9e88e5" stroke-miterlimit="10" stroke-width="1"/>
        <path id="Path_16" data-name="Path 16" d="M419.906,110.629A12.477,12.477,0,1,1,407.43,98.153,12.477,12.477,0,0,1,419.906,110.629Z" transform="translate(-319.114 -98.153)" fill="none" stroke="#d96980" stroke-miterlimit="10" stroke-width="1"/>
        <path id="Path_18" data-name="Path 18" d="M419.707,429.551a7.928,7.928,0,1,1-7.929-7.929A7.929,7.929,0,0,1,419.707,429.551Z" transform="translate(-310.986 197.325)" fill="#ff335f"/>
        <circle id="Ellipse_6" data-name="Ellipse 6" cx="14.028" cy="14.028" r="14.028" transform="translate(465.786 619.319) rotate(-22.606)" fill="none" stroke="#d96980" stroke-miterlimit="10" stroke-width="1"/>
        <circle id="Ellipse_7" data-name="Ellipse 7" cx="12.298" cy="12.298" r="12.298" transform="translate(246.019 365.491)" fill="none" stroke="#672ed6" stroke-miterlimit="10" stroke-width="1"/>
        <path id="Path_20" data-name="Path 20" d="M685.978,296.264a9.575,9.575,0,1,1-9.575-9.575A9.575,9.575,0,0,1,685.978,296.264Z" transform="translate(-70.764 74.068)" fill="#672ed6"/>
        <path id="Path_21" data-name="Path 21" d="M393.58,415.817A9.575,9.575,0,1,1,384,406.242,9.575,9.575,0,0,1,393.58,415.817Z" transform="translate(-337.86 183.276)" fill="none" stroke="#672ed6" stroke-miterlimit="10" stroke-width="1"/>
        <path id="Path_22" data-name="Path 22" d="M618.835,391.938s15.878-1.559,20.034,8.469,5.817,19.737,30.753,7.4" transform="translate(-114.604 170.129)" fill="none" stroke="#fccb0a" stroke-miterlimit="10" stroke-width="1"/>
        <path id="Path_25" data-name="Path 25" d="M372.15,229a7.169,7.169,0,1,1-7.168-7.17A7.167,7.167,0,0,1,372.15,229Z" transform="translate(-353.04 14.826)" fill="#fccb0a"/>
      </g>
      <g id="Group_18" data-name="Group 18">
        <path id="Path_26" data-name="Path 26" d="M207.794,477.326c-89.931,0-162.836-69.187-162.836-154.533,0-60.322,36.421-112.573,89.531-138.026" transform="translate(-44.958 -1.588)" fill="none" stroke="#c1c0ff" stroke-miterlimit="10" stroke-width="1" stroke-dasharray="4"/>
        <path id="Path_27" data-name="Path 27" d="M422.219,356.37c6.609,60.42-38.849,114.959-101.534,121.817S201.826,441.622,195.215,381.2" transform="translate(92.297 155.166)" fill="none" stroke="#c1c0ff" stroke-miterlimit="10" stroke-width="1" stroke-dasharray="4"/>
        <ellipse id="Ellipse_10" data-name="Ellipse 10" cx="110.966" cy="108.506" rx="110.966" ry="108.506" transform="translate(534.529)" fill="none" stroke="#c1c0ff" stroke-miterlimit="10" stroke-width="1" stroke-dasharray="4"/>
        <ellipse id="Ellipse_11" data-name="Ellipse 11" cx="105.873" cy="103.526" rx="105.873" ry="103.526" transform="translate(199.982 152.146)" fill="none" stroke="#c1c0ff" stroke-miterlimit="10" stroke-width="1" stroke-dasharray="4"/>
        <ellipse id="Ellipse_12" data-name="Ellipse 12" cx="103.812" cy="95.949" rx="103.812" ry="95.949" transform="translate(686.981 310.813)" fill="none" stroke="#c1c0ff" stroke-miterlimit="10" stroke-width="1" stroke-dasharray="4"/>
      </g>
    </g>
    <g id="Group_166" data-name="Group 166" transform="translate(565.359 92.376)">
      <g id="Group_118" data-name="Group 118" transform="translate(19.775 452.959)">
        <g id="Group_117" data-name="Group 117" transform="translate(0 0)">
          <g id="Group_93" data-name="Group 93" transform="translate(0 13.857)">
            <rect id="Rectangle_27" data-name="Rectangle 27" width="281.339" height="193.817" rx="9.347" fill="#ffeeea"/>
            <path id="Path_108" data-name="Path 108" d="M527.705,418.088a7.671,7.671,0,1,1-7.671-7.671A7.671,7.671,0,0,1,527.705,418.088Z" transform="translate(-378.966 -242.202)" fill="none" stroke="#000" stroke-miterlimit="10" stroke-width="0.25"/>
          </g>
          <g id="Group_116" data-name="Group 116" transform="translate(18.623)">
            <rect id="Rectangle_28" data-name="Rectangle 28" width="244.093" height="147.739" rx="9.347" transform="translate(0 25.128)" fill="#fff" stroke="#000" stroke-miterlimit="10" stroke-width="1"/>
            <g id="Group_115" data-name="Group 115">
              <g id="Group_102" data-name="Group 102" transform="translate(28.157)">
                <g id="Group_94" data-name="Group 94" transform="translate(0)">
                  <path id="Path_109" data-name="Path 109" d="M514.413,406.115s36.693,17.575,50.449-8.151-8.18-57.31-26-61.895S507.011,381.917,514.413,406.115Z" transform="translate(-425.718 -296.527)"/>
                  <path id="Path_110" data-name="Path 110" d="M530.824,413.666s-15.995,11.971-40.449,2.8-9.424-54,0-67.754,30.581-22.16,40-17.83S547.556,385.565,530.824,413.666Z" transform="translate(-457.96 -302.04)"/>
                  <circle id="Ellipse_24" data-name="Ellipse 24" cx="17.559" cy="17.559" r="17.559" transform="matrix(0.594, -0.804, 0.804, 0.594, 0, 28.246)"/>
                </g>
                <g id="Group_101" data-name="Group 101" transform="translate(46.935 11.684)">
                  <path id="Path_111" data-name="Path 111" d="M541.708,360.3s-5.9-13.473-10.87-12.635-3.574,9.579-2.889,14.334,2.991,10.778-2.239,16.343S546.292,375.588,541.708,360.3Z" transform="translate(-461.132 -297.382)" fill="#fff" stroke="#000" stroke-miterlimit="10" stroke-width="1"/>
                  <g id="Group_100" data-name="Group 100">
                    <path id="Path_112" data-name="Path 112" d="M535.588,334.615H520.567c-9.986,0-18.157,9.3-18.157,20.671v23.285c0,.656.034,1.3.088,1.944a9.232,9.232,0,0,0-.256,2.133v29.136a9.378,9.378,0,0,0,9.351,9.351h5.958a9.378,9.378,0,0,0,9.351-9.351V399.242h8.685c9.984,0,18.155-9.3,18.155-20.671V355.286C553.743,343.918,545.572,334.615,535.588,334.615Z" transform="translate(-481.927 -309.272)" fill="#fff" stroke="#000" stroke-miterlimit="10" stroke-width="1"/>
                    <g id="Group_95" data-name="Group 95" transform="translate(29.992 57.658)">
                      <path id="Path_113" data-name="Path 113" d="M507.3,359.918a8.415,8.415,0,1,0,8.416-8.415A8.415,8.415,0,0,0,507.3,359.918Z" transform="translate(-507.299 -351.503)" fill="#ff335f" opacity="0.1"/>
                      <path id="Path_114" data-name="Path 114" d="M531.036,352.92a6.423,6.423,0,0,1,1.485.18v8.729a17.986,17.986,0,0,1-.312,3.794,7.656,7.656,0,0,1-1.173.107,6.405,6.405,0,1,1,0-12.811Z" transform="translate(-491.468 -350.209)" fill="#ff335f" opacity="0.1"/>
                    </g>
                    <g id="Group_97" data-name="Group 97" transform="translate(41.759 50.237)">
                      <g id="Group_96" data-name="Group 96" transform="translate(0 0.001)">
                        <path id="Path_115" data-name="Path 115" d="M513.449,351.01a3.386,3.386,0,1,0,3.385-3.385A3.387,3.387,0,0,0,513.449,351.01Z" transform="translate(-513.449 -347.625)" fill="#0c0c0c"/>
                        <path id="Path_116" data-name="Path 116" d="M525.033,350.514a2.89,2.89,0,1,0,2.891-2.889A2.891,2.891,0,0,0,525.033,350.514Z" transform="translate(-502.867 -347.625)" fill="#0c0c0c"/>
                      </g>
                      <path id="Path_117" data-name="Path 117" d="M529.293,357.966s-1.7,4.958-5.3,5.3-6.418-3.645-6.611-6.756Z" transform="translate(-509.854 -339.512)" fill="#fff7f7" stroke="#0c0c0c" stroke-miterlimit="10" stroke-width="0.223"/>
                      <path id="Path_118" data-name="Path 118" d="M521.686,347.625l-.693,11.529L526.5,355.8Z" transform="translate(-506.557 -347.625)" fill="#ff335f" opacity="0.1"/>
                    </g>
                    <path id="Path_119" data-name="Path 119" d="M501.543,343.627l.013-.015c.589-8.662,5.536-16.683,11.886-16.8,14.01-.255,13.741,10.189,13.741,10.189,23.93-29.548,54.779-11.971,44.844,9.713S523.7,365.02,523.7,365.02c-1.967.048-3.8-.633-5.457-.3-4.554.918-7.725,6.523-9.1,13.658C505.739,396.094,492.446,357.387,501.543,343.627Z" transform="translate(-485.424 -321.37)"/>
                    <g id="Group_99" data-name="Group 99" transform="translate(0 48.724)">
                      <path id="Path_120" data-name="Path 120" d="M505.146,346.834a13.516,13.516,0,0,1,6.221,1.515v3.678a10.3,10.3,0,1,0,0,16.462v3.678a13.448,13.448,0,1,1-6.221-25.332Z" transform="translate(-491.625 -346.834)"/>
                      <g id="Group_98" data-name="Group 98" transform="translate(1.563 1.563)">
                        <path id="Path_121" data-name="Path 121" d="M492.442,359.511a11.959,11.959,0,1,0,11.957-11.86A11.909,11.909,0,0,0,492.442,359.511Z" transform="translate(-492.442 -347.651)" fill="#fff"/>
                        <path id="Path_122" data-name="Path 122" d="M505.771,358.119s.526-8.056-7.748-7.16" transform="translate(-487.344 -344.693)" fill="none" stroke="#020202" stroke-miterlimit="10" stroke-width="0.275"/>
                      </g>
                    </g>
                  </g>
                </g>
              </g>
              <g id="Group_114" data-name="Group 114" transform="translate(0 25.128)">
                <g id="Group_113" data-name="Group 113" clip-path="url(#clip-path)">
                  <g id="Group_112" data-name="Group 112" transform="translate(9.18 36.586)">
                    <g id="Group_104" data-name="Group 104" transform="translate(0 47.68)">
                      <path id="Path_123" data-name="Path 123" d="M457.178,491.241c9.215-72.1,71.992-124.988,114.354-109.647,33.708,12.206,48.491,79.788,53.445,109.647Z" transform="translate(-457.178 -366.499)" fill="#25cad1" stroke="#020106" stroke-miterlimit="10" stroke-width="1"/>
                      <rect id="Rectangle_29" data-name="Rectangle 29" width="41.538" height="20.586" rx="4.752" transform="translate(118.485 20.586) rotate(180)" fill="#ff335f" stroke="#020106" stroke-miterlimit="10" stroke-width="1"/>
                      <g id="Group_103" data-name="Group 103" transform="translate(80.191)">
                        <line id="Line_26" data-name="Line 26" y2="18.511" transform="translate(34.163 1.039)" fill="none" stroke="#020106" stroke-miterlimit="10" stroke-width="1"/>
                        <line id="Line_27" data-name="Line 27" y2="20.586" transform="translate(29.494)" fill="none" stroke="#020106" stroke-miterlimit="10" stroke-width="1"/>
                        <line id="Line_28" data-name="Line 28" y2="20.586" transform="translate(24.578)" fill="none" stroke="#020106" stroke-miterlimit="10" stroke-width="1"/>
                        <line id="Line_29" data-name="Line 29" y2="20.586" transform="translate(19.662)" fill="none" stroke="#020106" stroke-miterlimit="10" stroke-width="1"/>
                        <line id="Line_30" data-name="Line 30" y2="20.586" transform="translate(14.747)" fill="none" stroke="#020106" stroke-miterlimit="10" stroke-width="1"/>
                        <line id="Line_31" data-name="Line 31" y2="20.586" transform="translate(9.831)" fill="none" stroke="#020106" stroke-miterlimit="10" stroke-width="1"/>
                        <line id="Line_32" data-name="Line 32" y2="20.586" transform="translate(4.916)" fill="none" stroke="#020106" stroke-miterlimit="10" stroke-width="1"/>
                        <line id="Line_33" data-name="Line 33" y2="17.349" transform="translate(0 1.622)" fill="none" stroke="#020106" stroke-miterlimit="10" stroke-width="1"/>
                      </g>
                    </g>
                    <g id="Group_111" data-name="Group 111" transform="translate(28.638)">
                      <g id="Group_107" data-name="Group 107" transform="translate(0 4.573)">
                        <path id="Path_124" data-name="Path 124" d="M473.944,350.063c2.195-1.466,4.432,7.681,5.549,13.746-.406-5.006-.84-13.115,1.047-13.7,2.005-.618,4.034,8.182,5,13.58-.4-5-.888-13.429.892-13.576,2.285-.191,3.984,7.558,4.958,13.58-.568-5.26-.875-11.666.94-12.028,3.1-.622,4.034,3.1,5.585,11.791s4.034,14.584,15.826,19.55c10.317,4.345,22.535,10.589,33.953,48.462l-33.325,1.579c-.04-.961-.088-1.919-.149-2.874-2.315-35.374-22.2-34.134-31.63-41.272S469.679,352.908,473.944,350.063Z" transform="translate(-472.144 -349.906)" fill="#fff" stroke="#020106" stroke-miterlimit="10" stroke-width="1"/>
                        <path id="Path_125" data-name="Path 125" d="M481.962,479.464c14.929-19.288,24.94-54.27,23.4-85.591l32.95-2.047c1.774,5.756,3.53,12.239,5.256,19.609,7.361,31.413,2.57,54.3-2.776,68.03Z" transform="translate(-463.176 -311.615)" fill="#a8eaed" stroke="#020106" stroke-miterlimit="10" stroke-width="1"/>
                        <g id="Group_106" data-name="Group 106" transform="translate(41.384 72.183)">
                          <path id="Path_126" data-name="Path 126" d="M530.3,405.337H494.727c.029-3.236-.054-6.448-.26-9.621-.155-2.355-.392-4.539-.695-6.584l31.094-1.5C526.693,392.773,528.507,398.623,530.3,405.337Z" transform="translate(-493.772 -387.63)" fill="#ff335f" stroke="#020106" stroke-miterlimit="10" stroke-width="1"/>
                          <g id="Group_105" data-name="Group 105" transform="translate(6.925 0.241)">
                            <line id="Line_34" data-name="Line 34" x2="4.085" y2="17.466" transform="translate(19.19)" fill="none" stroke="#020106" stroke-miterlimit="10" stroke-width="1"/>
                            <line id="Line_35" data-name="Line 35" x2="2.208" y2="17.152" transform="translate(12.688 0.314)" fill="none" stroke="#020106" stroke-miterlimit="10" stroke-width="1"/>
                            <line id="Line_36" data-name="Line 36" x2="1.047" y2="17.152" transform="translate(6.052 0.314)" fill="none" stroke="#020106" stroke-miterlimit="10" stroke-width="1"/>
                            <line id="Line_37" data-name="Line 37" x2="0.583" y2="16.074" transform="translate(0 0.926)" fill="none" stroke="#020106" stroke-miterlimit="10" stroke-width="1"/>
                          </g>
                        </g>
                      </g>
                      <g id="Group_110" data-name="Group 110" transform="translate(85.716)">
                        <path id="Path_127" data-name="Path 127" d="M544.8,366.092c1.349-7.889-6.291-16.366-3.745-18.367s16.657,10.828,12.66,23.771-18.545,15.235-13.436,34.594c1.814,6.873,5.762,16.247,10.685,26.389l-33.166.852c-2.166-23.241.13-40.284,2.8-45.872C523.738,380.871,543.452,373.979,544.8,366.092Z" transform="translate(-516.941 -347.516)" fill="#25cad1" stroke="#000" stroke-miterlimit="10" stroke-width="1"/>
                        <path id="Path_128" data-name="Path 128" d="M540.136,481c-6.349-18.059-17.82-52.4-21.083-73.605-.769-5-1.33-9.785-1.726-14.332l31.66-2.914a535.885,535.885,0,0,0,31.289,55.963A70.865,70.865,0,0,1,591.243,481Z" transform="translate(-516.587 -308.576)" fill="#25cad1" stroke="#020106" stroke-miterlimit="10" stroke-width="1"/>
                        <g id="Group_109" data-name="Group 109" transform="translate(0.23 76.997)">
                          <path id="Path_129" data-name="Path 129" d="M518.605,404.7c-.79-6.008-1.284-11.68-1.544-16.942h30.066c2.29,5.1,4.939,10.534,7.784,16.067Z" transform="translate(-517.061 -387.756)" fill="#25cad1" stroke="#000" stroke-miterlimit="10" stroke-width="1"/>
                          <g id="Group_108" data-name="Group 108" transform="translate(6.695)">
                            <line id="Line_38" data-name="Line 38" x2="4.458" y2="16.627" transform="translate(19.104 0.314)" fill="none" stroke="#000" stroke-miterlimit="10" stroke-width="1"/>
                            <line id="Line_39" data-name="Line 39" x2="2.152" y2="16.145" transform="translate(12.736 0.314)" fill="none" stroke="#000" stroke-miterlimit="10" stroke-width="1"/>
                            <line id="Line_40" data-name="Line 40" x2="0.824" y2="16.63" transform="translate(6.946)" fill="none" stroke="#000" stroke-miterlimit="10" stroke-width="1"/>
                            <line id="Line_41" data-name="Line 41" x2="1.272" y2="16.787" fill="none" stroke="#000" stroke-miterlimit="10" stroke-width="1"/>
                          </g>
                        </g>
                      </g>
                    </g>
                  </g>
                </g>
              </g>
            </g>
            <rect id="Rectangle_31" data-name="Rectangle 31" width="244.093" height="147.739" rx="9.347" transform="translate(0 25.128)" fill="none" stroke="#000" stroke-miterlimit="10" stroke-width="1"/>
          </g>
        </g>
      </g>
      <g id="Group_165" data-name="Group 165">
        <g id="Group_120" data-name="Group 120">
          <g id="Group_119" data-name="Group 119">
            <rect id="Rectangle_32" data-name="Rectangle 32" width="469.693" height="350.023" rx="13.61" fill="#fccb0a" opacity="0.5"/>
            <path id="Path_130" data-name="Path 130" d="M582.379,339.282H541.448a10.184,10.184,0,0,1-9.345-14.232l22.057-50.938,18.872-43.585a10.185,10.185,0,0,1,18.693,0L610.6,274.111l22.056,50.938a10.184,10.184,0,0,1-9.345,14.232Z" transform="translate(-341.936 54.684)" fill="#fde584"/>
          </g>
          <path id="Path_131" data-name="Path 131" d="M575.976,246.686a12.024,12.024,0,1,1-12.024-12.024A12.025,12.025,0,0,1,575.976,246.686Z" transform="translate(-323.05 64.068)" fill="none" stroke="#000" stroke-miterlimit="10" stroke-width="1"/>
        </g>
        <g id="Group_164" data-name="Group 164" transform="translate(28.066 7.216)">
          <rect id="Rectangle_33" data-name="Rectangle 33" width="421.275" height="257.423" rx="6.245" transform="translate(0 19.662)" fill="#fff" stroke="#000" stroke-miterlimit="10" stroke-width="1"/>
          <g id="Group_140" data-name="Group 140" transform="translate(27.398 29.098)">
            <g id="Group_123" data-name="Group 123">
              <rect id="Rectangle_34" data-name="Rectangle 34" width="287.756" height="217.202" rx="13.447" transform="translate(287.756 217.202) rotate(180)" fill="#fff" stroke="#000" stroke-miterlimit="10" stroke-width="1"/>
              <g id="Group_122" data-name="Group 122" transform="translate(0.662 14.965)">
                <g id="Group_121" data-name="Group 121" transform="translate(17.692)">
                  <path id="Path_132" data-name="Path 132" d="M480.622,110.253a4.865,4.865,0,1,1-4.864-4.912A4.889,4.889,0,0,1,480.622,110.253Z" transform="translate(-470.892 -105.341)" fill="#ff335f" stroke="#000" stroke-miterlimit="10" stroke-width="1"/>
                  <path id="Path_133" data-name="Path 133" d="M490.75,110.253a4.865,4.865,0,1,1-4.866-4.912A4.891,4.891,0,0,1,490.75,110.253Z" transform="translate(-461.64 -105.341)" fill="#fcd846" stroke="#000" stroke-miterlimit="10" stroke-width="1"/>
                  <path id="Path_134" data-name="Path 134" d="M500.877,110.253a4.865,4.865,0,1,1-4.866-4.912A4.891,4.891,0,0,1,500.877,110.253Z" transform="translate(-452.39 -105.341)" fill="#3cc754" stroke="#000" stroke-miterlimit="10" stroke-width="1"/>
                </g>
                <line id="Line_42" data-name="Line 42" x2="287.094" transform="translate(0 22.158)" fill="#fff" stroke="#000" stroke-miterlimit="10" stroke-width="1"/>
              </g>
            </g>
            <g id="Group_139" data-name="Group 139" transform="translate(17.736 47.735)">
              <g id="Group_125" data-name="Group 125" transform="translate(200.091 80.412)">
                <rect id="Rectangle_35" data-name="Rectangle 35" width="53.598" height="33.405" fill="none" stroke="#9e88e5" stroke-miterlimit="10" stroke-width="1"/>
                <g id="Group_124" data-name="Group 124" transform="translate(6.576 8.776)">
                  <line id="Line_43" data-name="Line 43" x2="38.907" fill="none" stroke="#9e88e5" stroke-miterlimit="10" stroke-width="1"/>
                  <line id="Line_44" data-name="Line 44" x2="38.907" transform="translate(0 6.083)" fill="none" stroke="#9e88e5" stroke-miterlimit="10" stroke-width="1"/>
                  <line id="Line_45" data-name="Line 45" x2="38.907" transform="translate(0 12.165)" fill="none" stroke="#9e88e5" stroke-miterlimit="10" stroke-width="1"/>
                </g>
              </g>
              <g id="Group_126" data-name="Group 126" transform="translate(97.397)">
                <path id="Path_135" data-name="Path 135" d="M560.673,165.265v-39.2A39.255,39.255,0,1,0,598.984,157Z" transform="translate(-521.47 -119.183)" fill="#ff335f"/>
                <path id="Path_136" data-name="Path 136" d="M582.785,153.4a39.2,39.2,0,0,0-38.311-30.937v39.2Z" transform="translate(-500.457 -122.467)" fill="#ff335f" opacity="0.1"/>
              </g>
              <g id="Group_135" data-name="Group 135" transform="translate(12.575 2.585)">
                <g id="Group_129" data-name="Group 129">
                  <g id="Group_128" data-name="Group 128">
                    <path id="Path_137" data-name="Path 137" d="M527.436,130.423H480.444a3.3,3.3,0,0,1-3.3-3.3h0a3.3,3.3,0,0,1,3.3-3.3h46.993a3.3,3.3,0,0,1,3.3,3.3h0A3.3,3.3,0,0,1,527.436,130.423Z" transform="translate(-477.141 -123.818)" fill="none" stroke="#9e88e5" stroke-miterlimit="10" stroke-width="1"/>
                    <g id="Group_127" data-name="Group 127" transform="translate(3.383 11.513)">
                      <line id="Line_46" data-name="Line 46" x2="45.483" fill="none" stroke="#9e88e5" stroke-miterlimit="10" stroke-width="1"/>
                      <line id="Line_47" data-name="Line 47" x2="45.483" transform="translate(0 6.083)" fill="none" stroke="#9e88e5" stroke-miterlimit="10" stroke-width="1"/>
                      <line id="Line_48" data-name="Line 48" x2="45.483" transform="translate(0 12.165)" fill="none" stroke="#9e88e5" stroke-miterlimit="10" stroke-width="1"/>
                    </g>
                  </g>
                  <path id="Path_138" data-name="Path 138" d="M506.92,126.087h17.174l24.723,22.647" transform="translate(-449.939 -121.746)" fill="none" stroke="#9e88e5" stroke-miterlimit="10" stroke-width="1"/>
                </g>
                <g id="Group_134" data-name="Group 134" transform="translate(152.666 3.827)">
                  <g id="Group_133" data-name="Group 133" transform="translate(34.85)">
                    <path id="Path_139" data-name="Path 139" d="M625.434,132.423H578.442a3.3,3.3,0,0,1-3.3-3.3h0a3.3,3.3,0,0,1,3.3-3.3h46.993a3.3,3.3,0,0,1,3.3,3.3h0A3.3,3.3,0,0,1,625.434,132.423Z" transform="translate(-575.139 -125.818)" fill="none" stroke="#9e88e5" stroke-miterlimit="10" stroke-width="1"/>
                    <g id="Group_132" data-name="Group 132" transform="translate(3.383 11.511)">
                      <g id="Group_130" data-name="Group 130">
                        <line id="Line_49" data-name="Line 49" x2="45.483" fill="none" stroke="#9e88e5" stroke-miterlimit="10" stroke-width="1"/>
                        <line id="Line_50" data-name="Line 50" x2="45.483" transform="translate(0 6.083)" fill="none" stroke="#9e88e5" stroke-miterlimit="10" stroke-width="1"/>
                        <line id="Line_51" data-name="Line 51" x2="45.483" transform="translate(0 12.165)" fill="none" stroke="#9e88e5" stroke-miterlimit="10" stroke-width="1"/>
                      </g>
                      <g id="Group_131" data-name="Group 131" transform="translate(0 18.468)">
                        <line id="Line_52" data-name="Line 52" x2="45.483" fill="none" stroke="#9e88e5" stroke-miterlimit="10" stroke-width="1"/>
                        <line id="Line_53" data-name="Line 53" x2="45.483" transform="translate(0 6.083)" fill="none" stroke="#9e88e5" stroke-miterlimit="10" stroke-width="1"/>
                        <line id="Line_54" data-name="Line 54" x2="45.483" transform="translate(0 12.165)" fill="none" stroke="#9e88e5" stroke-miterlimit="10" stroke-width="1"/>
                      </g>
                    </g>
                  </g>
                  <path id="Path_140" data-name="Path 140" d="M556.926,142.081l16.608-13.608h14.721" transform="translate(-556.926 -123.393)" fill="none" stroke="#9e88e5" stroke-miterlimit="10" stroke-width="1"/>
                </g>
              </g>
              <g id="Group_138" data-name="Group 138" transform="translate(0 54.894)">
                <g id="Group_137" data-name="Group 137" transform="translate(15.217)">
                  <path id="Path_141" data-name="Path 141" d="M480.7,154.7v77.041H597.3" transform="translate(-476.535 -147.921)" fill="none" stroke="#9e88e5" stroke-miterlimit="10" stroke-width="1"/>
                  <g id="Group_136" data-name="Group 136">
                    <path id="Path_142" data-name="Path 142" d="M482.683,158.363h-4.162l2.081-3.6,2.081-3.6,2.081,3.6,2.081,3.6Z" transform="translate(-478.522 -151.155)" fill="#9e88e5"/>
                    <path id="Path_143" data-name="Path 143" d="M540.984,196.945v-4.161l3.6,2.081,3.6,2.081-3.6,2.081-3.6,2.081Z" transform="translate(-421.464 -113.13)" fill="#9e88e5"/>
                  </g>
                </g>
                <path id="Path_144" data-name="Path 144" d="M475.654,217.579l28.351-25.548,23.329,25.086,29.421-53.89,21.515,52.584" transform="translate(-465.924 -140.128)" fill="none" stroke="#eeda36" stroke-miterlimit="10" stroke-width="1"/>
                <path id="Path_145" data-name="Path 145" d="M470.569,179s22.334-23.212,33.794-12.173,8.752,19.535,31.762,14.581,51.6,2.648,57.264,46.122" transform="translate(-470.569 -139.556)" fill="none" stroke="#db7294" stroke-miterlimit="10" stroke-width="1" stroke-dasharray="4"/>
              </g>
            </g>
          </g>
          <g id="Group_152" data-name="Group 152" transform="translate(140.773 19.663)">
            <g id="Group_151" data-name="Group 151">
              <g id="Group_150" data-name="Group 150">
                <g id="Group_149" data-name="Group 149" clip-path="url(#clip-path-2)">
                  <g id="Group_148" data-name="Group 148" transform="translate(45.254 99.386)">
                    <g id="Group_146" data-name="Group 146">
                      <path id="Path_146" data-name="Path 146" d="M660.118,149.056S730.9,176.725,768.4,296.387l-47.936,23.781-35.481-90.589Z" transform="translate(-438.316 -140.394)" fill="#672ed6" stroke="#000" stroke-miterlimit="10" stroke-width="1"/>
                      <g id="Group_145" data-name="Group 145">
                        <g id="Group_142" data-name="Group 142">
                          <path id="Path_147" data-name="Path 147" d="M554.949,176.887s-12.055-7.746-10.564-11.443,5-1.621,5-1.621-3.594-2.21-1.927-4.646a3.326,3.326,0,0,1,3.923-1.533s-2.545-3.737-.092-5.122,6.14-.5,6.14-.5-1.412-3.109-1.343-4.2,1.657-3.517,6.795-2.321,16.14,7.308,19.843,9.194,7.891,6.265,8.01,4.849,1.709-10.449,5.216-13.088,4.908-3.062,5.53,1.956.455,18.985,7.246,29.28,9.114,17.154,16.288,25.5,10.474,12.543,10.474,12.543l-32.347,26.322s-31.379-47.228-31.609-47.546S561.114,181.682,554.949,176.887Z" transform="translate(-544.151 -144.529)" fill="#fff"/>
                          <g id="Group_141" data-name="Group 141" transform="translate(0 0.146)">
                            <path id="Path_148" data-name="Path 148" d="M546.888,157.254s-4.014-6.542,3.5-5.744,17.711,7.759,22.621,11.444" transform="translate(-542.726 -138.36)" fill="none" stroke="#000" stroke-miterlimit="10" stroke-width="1"/>
                            <path id="Path_149" data-name="Path 149" d="M582.68,184.014s-2.75-8.4,9.234-11.883c0,0-4.566-17.832,4.083-25.75s3.94,12.472,9.726,24.89,12.34,24.4,18.5,30.937S635.7,215.874,635.7,215.874l-32.707,26.26s-11.175-16.984-28.415-43.342-32.456-26.94-30.141-33.417c2.849-7.962,23.166,10.786,23.166,10.786" transform="translate(-544.202 -144.605)" fill="none" stroke="#000" stroke-miterlimit="10" stroke-width="1"/>
                            <path id="Path_150" data-name="Path 150" d="M548.9,154.43s-3.875-4.757,1.047-6.012a8.2,8.2,0,0,1,3.008-.071c5.918.765,15.754,5.738,22.933,11.284" transform="translate(-541.234 -141.28)" fill="none" stroke="#000" stroke-miterlimit="10" stroke-width="1"/>
                            <path id="Path_151" data-name="Path 151" d="M584.986,160.42s-14.076-13.138-30.139-15.312c-5.807-.786-5.568,5.006.138,7.418" transform="translate(-538.36 -144.212)" fill="none" stroke="#000" stroke-miterlimit="10" stroke-width="1"/>
                          </g>
                        </g>
                        <g id="Group_144" data-name="Group 144" transform="translate(38.832 10.225)">
                          <path id="Path_152" data-name="Path 152" d="M640.547,227.366a101.955,101.955,0,0,1-13.655-11.393c-14.472-14.068-26.834-31.589-26.834-31.589L564.5,214.839s38.786,60.2,62.077,67.719S703.1,229.531,703.1,229.531l4.191-79.658A105.158,105.158,0,0,0,689.244,162.5c-13.191,11.911-36.233,33.195-62.352,53.47" transform="translate(-564.496 -149.873)" fill="#672ed6" stroke="#000" stroke-miterlimit="10" stroke-width="1"/>
                          <g id="Group_143" data-name="Group 143" transform="translate(0 34.511)">
                            <path id="Path_153" data-name="Path 153" d="M611.661,182.861c-6.942-8.35-11.6-14.952-11.6-14.952L564.5,198.364s4.51,7,11.37,16.509Z" transform="translate(-564.496 -167.909)" fill="#fff" stroke="#000" stroke-miterlimit="10" stroke-width="1"/>
                            <path id="Path_154" data-name="Path 154" d="M586.888,175.1a2.419,2.419,0,1,1-2.419-2.419A2.419,2.419,0,0,1,586.888,175.1Z" transform="translate(-548.46 -163.547)" fill="#fff" stroke="#000" stroke-miterlimit="10" stroke-width="1"/>
                          </g>
                        </g>
                      </g>
                    </g>
                    <g id="Group_147" data-name="Group 147" transform="translate(129.124 4.416)">
                      <path id="Path_155" data-name="Path 155" d="M760.78,303.776c.006-.662,0-14.227,0-14.892,0-78.448-33.377-142.046-74.547-142.046s-74.547,63.6-74.547,142.046c0,.666-.006,14.23,0,14.892Z" transform="translate(-611.684 -146.837)" fill="#672ed6"/>
                      <line id="Line_55" data-name="Line 55" y2="121.334" transform="translate(74.306 35.605)" fill="none" stroke="#000" stroke-miterlimit="10" stroke-width="1"/>
                      <path id="Path_156" data-name="Path 156" d="M664.37,183.715l28.742-25.92c-8.846-7.051-18.553-10.958-28.742-10.958-9.852,0-20.143,4.336-28.752,10.951Z" transform="translate(-589.82 -146.837)" fill="#fff" stroke="#000" stroke-miterlimit="10" stroke-width="1"/>
                      <path id="Path_157" data-name="Path 157" d="M622.394,183.425c-6.8,21.421-10.708,46.537-10.708,73.395,0,.666-.006,14.23,0,14.892H760.78c.006-.662,0-14.227,0-14.892,0-27.481-4.1-53.141-11.188-74.882" transform="translate(-611.684 -114.773)" fill="none" stroke="#000" stroke-miterlimit="10" stroke-width="1"/>
                      <path id="Path_158" data-name="Path 158" d="M693.073,157.786c-8.848-7.053-18.561-10.949-28.75-10.949-10.153,0-19.833,3.869-28.654,10.874" transform="translate(-589.774 -146.837)" fill="none" stroke="#000" stroke-miterlimit="10" stroke-width="1"/>
                    </g>
                  </g>
                </g>
              </g>
            </g>
          </g>
          <rect id="Rectangle_36" data-name="Rectangle 36" width="421.275" height="257.423" rx="6.245" transform="translate(0 19.662)" fill="none" stroke="#000" stroke-miterlimit="10" stroke-width="1"/>
          <g id="Group_163" data-name="Group 163" transform="translate(318.348)">
            <g id="Group_153" data-name="Group 153" transform="translate(39.291 113.019)">
              <path id="Path_160" data-name="Path 160" d="M695.538,170.463l-15.859-23.817a11.829,11.829,0,0,0-13.972-4.525,11.831,11.831,0,0,0-13.974,4.525l-15.859,23.817a11.836,11.836,0,0,0,3.291,16.412l2.269,1.512a11.839,11.839,0,0,0,16.414-3.293l7.859-11.8,7.859,11.8a11.836,11.836,0,0,0,16.412,3.293l2.27-1.512A11.834,11.834,0,0,0,695.538,170.463Z" transform="translate(-633.888 -141.378)" fill="#fefeff" stroke="#000" stroke-miterlimit="10" stroke-width="1"/>
              <path id="Path_161" data-name="Path 161" d="M654.042,156.2a2.3,2.3,0,1,1-2.3-2.3A2.3,2.3,0,0,1,654.042,156.2Z" transform="translate(-619.68 -129.935)" fill="#fefeff" stroke="#000" stroke-miterlimit="10" stroke-width="1"/>
            </g>
            <g id="Group_162" data-name="Group 162">
              <path id="Path_162" data-name="Path 162" d="M678.8,131.546a12.367,12.367,0,1,1-12.367-12.265A12.317,12.317,0,0,1,678.8,131.546Z" transform="translate(-576.162 -48.544)" fill="none" stroke="#000" stroke-miterlimit="10" stroke-width="2"/>
              <g id="Group_161" data-name="Group 161">
                <path id="Path_163" data-name="Path 163" d="M647.8,105.8h15.532c10.327,0,18.777,9.621,18.777,21.377v24.079c0,.677-.034,1.347-.09,2.011a9.632,9.632,0,0,1,.266,2.2V185.6a9.7,9.7,0,0,1-9.671,9.671h-6.163a9.7,9.7,0,0,1-9.669-9.671V172.632H647.8c-10.327,0-18.777-9.619-18.777-21.375V127.177C629.026,115.421,637.476,105.8,647.8,105.8Z" transform="translate(-599.038 -60.858)" fill="#fff" stroke="#000" stroke-miterlimit="10" stroke-width="1"/>
                <g id="Group_154" data-name="Group 154">
                  <path id="Path_164" data-name="Path 164" d="M692.357,159.736l-2.866-18.861s-52.18,6.542-69.1-18.806.861-35.38,9.462-33.947,18.656,13.762,18.656,13.762-8.006-10.893,0-12.614,16.85,6.594,21.458,15.195c0,0,34.395-3.207,46.023,17.6s2.2,35.577-19.062,57.081l-1.422-12.028Z" transform="translate(-613.354 -77.128)"/>
                </g>
                <g id="Group_159" data-name="Group 159" transform="translate(23.326 59.381)">
                  <g id="Group_155" data-name="Group 155" transform="translate(7.455 18.013)">
                    <path id="Path_166" data-name="Path 166" d="M660.709,131.677a8.918,8.918,0,1,1-8.917-8.917A8.917,8.917,0,0,1,660.709,131.677Z" transform="translate(-617.17 -122.76)" fill="#e4b0c8"/>
                    <path id="Path_167" data-name="Path 167" d="M631.052,123.693a6.769,6.769,0,0,0-1.573.191v9.25a19.143,19.143,0,0,0,.134,4.03,10.785,10.785,0,0,0,1.439.105,6.788,6.788,0,1,0,0-13.576Z" transform="translate(-629.441 -121.908)" fill="#e4b0c8"/>
                  </g>
                  <g id="Group_158" data-name="Group 158">
                    <g id="Group_156" data-name="Group 156" transform="translate(8.719 11.305)">
                      <path id="Path_168" data-name="Path 168" d="M646.811,122.425a3.172,3.172,0,1,1-3.171-3.171A3.171,3.171,0,0,1,646.811,122.425Z" transform="translate(-620.631 -119.254)" fill="#141414"/>
                      <path id="Path_169" data-name="Path 169" d="M635.516,121.962a2.708,2.708,0,1,1-2.708-2.708A2.709,2.709,0,0,1,635.516,121.962Z" transform="translate(-630.101 -119.254)" fill="#141414"/>
                    </g>
                    <path id="Path_170" data-name="Path 170" d="M634.514,128.1s1.592,4.644,4.964,4.964,6.01-3.415,6.192-6.33Z" transform="translate(-617.351 -101.114)" fill="#f7f6f6" stroke="#141414" stroke-miterlimit="10" stroke-width="0.223"/>
                    <g id="Group_157" data-name="Group 157">
                      <path id="Path_171" data-name="Path 171" d="M661.089,125.849c0,6.835-4.958,12.376-11.073,12.376s-11.071-5.541-11.071-12.376,4.956-12.376,11.071-12.376S661.089,119.014,661.089,125.849Z" transform="translate(-613.305 -113.23)" fill="none" stroke="#672ed6" stroke-miterlimit="10" stroke-width="1"/>
                      <ellipse id="Ellipse_25" data-name="Ellipse 25" cx="9.116" cy="11.068" rx="9.116" ry="11.068" fill="none" stroke="#672ed6" stroke-miterlimit="10" stroke-width="1"/>
                      <path id="Path_172" data-name="Path 172" d="M639.623,119.281V130.03l-5.634-3.433Z" transform="translate(-617.831 -107.925)" fill="#d96980"/>
                      <path id="Path_173" data-name="Path 173" d="M634.923,121.164s4.46-1.869,7.694.8" transform="translate(-616.978 -106.786)" fill="none" stroke="#672ed6" stroke-miterlimit="10" stroke-width="1"/>
                    </g>
                  </g>
                </g>
                <g id="Group_160" data-name="Group 160" transform="translate(77.907 70.737)">
                  <path id="Path_174" data-name="Path 174" d="M678.8,131.546a12.367,12.367,0,1,1-12.367-12.265A12.317,12.317,0,0,1,678.8,131.546Z" transform="translate(-654.069 -119.281)" fill="#fff"/>
                  <path id="Path_175" data-name="Path 175" d="M657.039,130.108s-.543-8.331,8.012-7.407" transform="translate(-651.362 -116.222)" fill="none" stroke="#090909" stroke-miterlimit="10" stroke-width="0.275"/>
                </g>
              </g>
            </g>
          </g>
        </g>
      </g>
    </g>
    <g id="Group_183" data-name="Group 183" transform="translate(72.523 63.397)">
      <g id="Group_167" data-name="Group 167" transform="translate(695.868)">
        <path id="Path_176" data-name="Path 176" d="M556.126,63.4h76.535A17.707,17.707,0,0,1,650.368,81.1v76.407l-18-16.529h-76.24a17.706,17.706,0,0,1-17.705-17.705V81.1A17.706,17.706,0,0,1,556.126,63.4Z" transform="translate(-538.421 -63.397)" fill="#fff" stroke="#000" stroke-miterlimit="10" stroke-width="1"/>
        <text id="_" data-name="?" transform="translate(36.121 55.112)" stroke="#000" stroke-width="1" font-size="57" font-family="Montserrat-ExtraBold, Montserrat" font-weight="800" fill="none"><tspan x="0" y="0">?</tspan></text>
      </g>
      <g id="Group_172" data-name="Group 172" transform="translate(480.89 248.823)">
        <g id="Group_169" data-name="Group 169" transform="translate(0 29.085)">
          <path id="Path_177" data-name="Path 177" d="M496.621,208.635H408.3a20.433,20.433,0,0,0-20.432,20.432V317.24l20.773-19.073h87.979a20.43,20.43,0,0,0,20.432-20.432V229.067A20.432,20.432,0,0,0,496.621,208.635Z" transform="translate(-387.869 -208.635)" fill="#fff" stroke="#000" stroke-miterlimit="10" stroke-width="1"/>
          <g id="Group_168" data-name="Group 168" transform="translate(26.614 37.504)">
            <path id="Path_178" data-name="Path 178" d="M419.544,237.119a8.883,8.883,0,1,1-8.882-8.884A8.883,8.883,0,0,1,419.544,237.119Z" transform="translate(-401.778 -228.235)" fill="#fff" stroke="#000" stroke-miterlimit="10" stroke-width="1"/>
            <path id="Path_179" data-name="Path 179" d="M435.695,237.119a8.883,8.883,0,1,1-8.882-8.884A8.883,8.883,0,0,1,435.695,237.119Z" transform="translate(-387.026 -228.235)" fill="#fff" stroke="#000" stroke-miterlimit="10" stroke-width="1"/>
            <path id="Path_180" data-name="Path 180" d="M451.845,237.119a8.883,8.883,0,1,1-8.882-8.884A8.883,8.883,0,0,1,451.845,237.119Z" transform="translate(-372.273 -228.235)" fill="#fff" stroke="#000" stroke-miterlimit="10" stroke-width="1"/>
          </g>
        </g>
        <g id="Group_171" data-name="Group 171" transform="translate(25.449)">
          <path id="Path_181" data-name="Path 181" d="M509.921,193.435H421.6a20.433,20.433,0,0,0-20.432,20.432v88.172l20.773-19.073h87.979a20.43,20.43,0,0,0,20.432-20.432V213.867A20.432,20.432,0,0,0,509.921,193.435Z" transform="translate(-401.169 -193.435)" fill="#fff" stroke="#000" stroke-miterlimit="10" stroke-width="1"/>
          <g id="Group_170" data-name="Group 170" transform="translate(26.614 37.504)">
            <path id="Path_182" data-name="Path 182" d="M432.845,221.919a8.883,8.883,0,1,1-8.882-8.884A8.883,8.883,0,0,1,432.845,221.919Z" transform="translate(-415.078 -213.035)" fill="#fff" stroke="#000" stroke-miterlimit="10" stroke-width="1"/>
            <path id="Path_183" data-name="Path 183" d="M448.994,221.919a8.883,8.883,0,1,1-8.882-8.884A8.883,8.883,0,0,1,448.994,221.919Z" transform="translate(-400.326 -213.035)" fill="#fff" stroke="#000" stroke-miterlimit="10" stroke-width="1"/>
            <path id="Path_184" data-name="Path 184" d="M465.144,221.919a8.883,8.883,0,1,1-8.882-8.884A8.883,8.883,0,0,1,465.144,221.919Z" transform="translate(-385.573 -213.035)" fill="#fff" stroke="#000" stroke-miterlimit="10" stroke-width="1"/>
          </g>
        </g>
      </g>
      <g id="Group_174" data-name="Group 174" transform="translate(187.545 79.88)">
        <path id="Path_185" data-name="Path 185" d="M286.4,105.143H204.915a18.85,18.85,0,0,0-18.85,18.85V205.34l19.163-17.6H286.4a18.851,18.851,0,0,0,18.85-18.85v-44.9A18.851,18.851,0,0,0,286.4,105.143Z" transform="translate(-186.065 -105.143)" fill="#fff" stroke="#000" stroke-miterlimit="10" stroke-width="1"/>
        <g id="Group_173" data-name="Group 173" transform="translate(24.554 34.601)">
          <path id="Path_186" data-name="Path 186" d="M215.288,131.421a8.2,8.2,0,1,1-8.2-8.2A8.2,8.2,0,0,1,215.288,131.421Z" transform="translate(-198.897 -123.226)" fill="#fff" stroke="#000" stroke-miterlimit="10" stroke-width="1"/>
          <path id="Path_187" data-name="Path 187" d="M230.188,131.421a8.2,8.2,0,1,1-8.2-8.2A8.2,8.2,0,0,1,230.188,131.421Z" transform="translate(-185.286 -123.226)" fill="#fff" stroke="#000" stroke-miterlimit="10" stroke-width="1"/>
          <path id="Path_188" data-name="Path 188" d="M245.087,131.421a8.2,8.2,0,1,1-8.2-8.2A8.2,8.2,0,0,1,245.087,131.421Z" transform="translate(-171.677 -123.226)" fill="#fff" stroke="#000" stroke-miterlimit="10" stroke-width="1"/>
        </g>
      </g>
      <g id="Group_176" data-name="Group 176" transform="translate(754.348 456.97)">
        <path id="Path_189" data-name="Path 189" d="M669.316,302.215H587.833a18.849,18.849,0,0,0-18.85,18.85V402.41l19.166-17.6h81.167a18.848,18.848,0,0,0,18.85-18.85v-44.9A18.848,18.848,0,0,0,669.316,302.215Z" transform="translate(-568.983 -302.215)" fill="#fff" stroke="#000" stroke-miterlimit="10" stroke-width="1"/>
        <g id="Group_175" data-name="Group 175" transform="translate(24.554 34.6)">
          <path id="Path_190" data-name="Path 190" d="M598.206,328.493a8.2,8.2,0,1,1-8.2-8.2A8.2,8.2,0,0,1,598.206,328.493Z" transform="translate(-581.815 -320.297)" fill="#fff" stroke="#000" stroke-miterlimit="10" stroke-width="1"/>
          <circle id="Ellipse_26" data-name="Ellipse 26" cx="8.196" cy="8.196" r="8.196" transform="translate(28.51)" fill="#fff" stroke="#000" stroke-miterlimit="10" stroke-width="1"/>
          <path id="Path_191" data-name="Path 191" d="M628.007,328.493a8.2,8.2,0,1,1-8.2-8.2A8.2,8.2,0,0,1,628.007,328.493Z" transform="translate(-554.595 -320.297)" fill="#fff" stroke="#000" stroke-miterlimit="10" stroke-width="1"/>
        </g>
      </g>
      <g id="Group_182" data-name="Group 182" transform="translate(0 330.876)">
        <g id="Group_180" data-name="Group 180" transform="translate(33.341 32.92)">
          <path id="Path_192" data-name="Path 192" d="M142.456,280.3a31.456,31.456,0,0,0-14.213-21.372,33.963,33.963,0,0,0-36.786,0A31.456,31.456,0,0,0,77.243,280.3c-3.412,19.089,13.394,29.354,16.544,33.2a13.831,13.831,0,0,1,3.15,3.846,23.443,23.443,0,0,1,.846,4.368h24.135a23.445,23.445,0,0,1,.846-4.368,13.831,13.831,0,0,1,3.15-3.846C129.062,309.658,145.868,299.393,142.456,280.3Z" transform="translate(-76.788 -253.521)" fill="#fcd846" stroke="#000" stroke-miterlimit="10" stroke-width="1"/>
          <g id="Group_178" data-name="Group 178" transform="translate(17.953 26.86)">
            <path id="Path_193" data-name="Path 193" d="M96.221,307.825s.006-18.1-1.322-20.681-7.419-11.628-8.454-13.534,1.087-4.12,2.709-1.3c1.389,2.413,7.313,10.666,8.635,14.041s2.453,22.378,2.453,22.378Z" transform="translate(-86.171 -264.442)" fill="#fff"/>
            <path id="Path_194" data-name="Path 194" d="M98.585,307.825s-.006-18.1,1.322-20.681,7.42-11.628,8.456-13.534-1.087-4.12-2.711-1.3c-1.387,2.413-7.313,10.666-8.635,14.041s-2.453,22.378-2.453,22.378Z" transform="translate(-78.505 -264.442)" fill="#fff"/>
            <g id="Group_177" data-name="Group 177" transform="translate(1.989)">
              <path id="Path_195" data-name="Path 195" d="M114.064,276.111a15.329,15.329,0,0,1-9.7.35l-.084.063c-2.541,1.883-6.079,1.163-8.687-.742a28.384,28.384,0,0,1-8.369,1.437l-.011-1.728a28.53,28.53,0,0,0,6.919-1.01c-1.8-1.948-2.181-4.055-.98-5.492a3.246,3.246,0,0,1,4.632-.779,4.04,4.04,0,0,1,.792,5.482,4.647,4.647,0,0,1-1.219,1.184,6.061,6.061,0,0,0,5.1.777,4.79,4.79,0,0,1-1.324-1.1,2.993,2.993,0,0,1,.121-3.892,3.212,3.212,0,0,1,3.218-1.565,2.989,2.989,0,0,1,2.21,2.47,4.484,4.484,0,0,1-.932,3.509,13.462,13.462,0,0,0,7.7-.467Zm-10.859-5.1a2.872,2.872,0,0,0-.6.633c-.67.928-.429,1.46-.147,1.818a4.024,4.024,0,0,0,1.594,1.083,3.042,3.042,0,0,0,1-2.618,1.387,1.387,0,0,0-.953-1.165A1.112,1.112,0,0,0,103.2,271.013Zm-7.313,2.778a3.412,3.412,0,0,0,1.278-1.033,2.32,2.32,0,0,0-.429-3.157c-.721-.545-1.55-.365-2.269.494s.082,2.3.984,3.266Q95.662,273.582,95.891,273.792Z" transform="translate(-87.21 -267.558)" fill="#fff"/>
            </g>
          </g>
          <g id="Group_179" data-name="Group 179" transform="translate(19.909 64.014)">
            <path id="Path_196" data-name="Path 196" d="M100.3,289.22c-6.554,0-12.16-1.714-13.109-2.245.073.13.153.258.218.39.882,1.8,1.98,16.814,4.338,22.609a4.545,4.545,0,0,0,1.374,2.086,13.28,13.28,0,0,0,7.179,1.67,13.275,13.275,0,0,0,7.179-1.67,4.545,4.545,0,0,0,1.374-2.086c2.359-5.8,3.456-20.805,4.338-22.609.065-.132.145-.26.218-.39C112.462,287.505,106.858,289.22,100.3,289.22Z" transform="translate(-87.193 -286.975)" fill="#fff" stroke="#000" stroke-miterlimit="10" stroke-width="1"/>
            <path id="Path_197" data-name="Path 197" d="M99.942,294.708a41.919,41.919,0,0,0,11.68-1.7c.249-1.781.471-3.387.675-4.615a34.836,34.836,0,0,1-24.711,0c.2,1.228.429,2.834.675,4.615A41.918,41.918,0,0,0,99.942,294.708Z" transform="translate(-86.833 -285.681)"/>
            <path id="Path_198" data-name="Path 198" d="M99.386,298.515a43.812,43.812,0,0,0,10.463-1.351c.266-1.5.505-3.044.727-4.558a34.82,34.82,0,0,1-22.38,0c.222,1.514.463,3.058.727,4.558A43.812,43.812,0,0,0,99.386,298.515Z" transform="translate(-86.277 -281.831)"/>
            <path id="Path_199" data-name="Path 199" d="M88.948,296.863a27.524,27.524,0,0,0,1.2,4.079c.073.176.145.331.22.488a47.316,47.316,0,0,0,8.333.853,47.317,47.317,0,0,0,8.333-.853c.075-.157.149-.312.22-.488a27.274,27.274,0,0,0,1.2-4.079A34.889,34.889,0,0,1,88.948,296.863Z" transform="translate(-85.59 -277.943)"/>
          </g>
        </g>
        <g id="Group_181" data-name="Group 181">
          <rect id="Rectangle_37" data-name="Rectangle 37" width="7.03" height="23.279" rx="1.819" transform="translate(63.464)" fill="#fff" stroke="#000" stroke-miterlimit="10" stroke-width="1"/>
          <path id="Path_200" data-name="Path 200" d="M108.375,260.846l-.061-.033a3.481,3.481,0,0,1-1.424-4.711l7.713-14.382a3.479,3.479,0,0,1,4.711-1.422l.061.033a3.479,3.479,0,0,1,1.422,4.711l-7.711,14.382A3.479,3.479,0,0,1,108.375,260.846Z" transform="translate(-16.328 -233.056)" fill="#fff" stroke="#000" stroke-miterlimit="10" stroke-width="1"/>
          <path id="Path_201" data-name="Path 201" d="M87.393,260.846l.063-.033a3.479,3.479,0,0,0,1.422-4.711l-7.711-14.382a3.479,3.479,0,0,0-4.711-1.422l-.063.033a3.483,3.483,0,0,0-1.422,4.711l7.711,14.382A3.479,3.479,0,0,0,87.393,260.846Z" transform="translate(-45.484 -233.056)" fill="#fff" stroke="#000" stroke-miterlimit="10" stroke-width="1"/>
          <path id="Path_202" data-name="Path 202" d="M82.5,264.455l-.015.067a3.479,3.479,0,0,1-4.12,2.69l-15.97-3.356a3.48,3.48,0,0,1-2.69-4.122l.015-.069a3.481,3.481,0,0,1,4.122-2.69l15.968,3.358A3.478,3.478,0,0,1,82.5,264.455Z" transform="translate(-59.125 -217.513)" fill="#fff" stroke="#000" stroke-miterlimit="10" stroke-width="1"/>
          <path id="Path_203" data-name="Path 203" d="M81.864,275.707l-.021-.067a3.479,3.479,0,0,0-4.317-2.361l-15.662,4.588a3.479,3.479,0,0,0-2.359,4.317l.019.069a3.481,3.481,0,0,0,4.317,2.361L79.5,280.026A3.483,3.483,0,0,0,81.864,275.707Z" transform="translate(-59.364 -202.681)" fill="#fff" stroke="#000" stroke-miterlimit="10" stroke-width="1"/>
          <path id="Path_204" data-name="Path 204" d="M117.193,264.455l.015.067a3.481,3.481,0,0,0,4.122,2.69l15.97-3.356a3.48,3.48,0,0,0,2.688-4.122l-.013-.069a3.482,3.482,0,0,0-4.122-2.69l-15.97,3.358A3.48,3.48,0,0,0,117.193,264.455Z" transform="translate(-6.608 -217.513)" fill="#fff" stroke="#000" stroke-miterlimit="10" stroke-width="1"/>
          <path id="Path_205" data-name="Path 205" d="M117.681,275.707l.019-.067a3.481,3.481,0,0,1,4.319-2.361l15.66,4.588a3.48,3.48,0,0,1,2.361,4.317l-.019.069a3.483,3.483,0,0,1-4.319,2.361l-15.662-4.589A3.481,3.481,0,0,1,117.681,275.707Z" transform="translate(-6.223 -202.681)" fill="#fff" stroke="#000" stroke-miterlimit="10" stroke-width="1"/>
        </g>
      </g>
    </g>
  </g>
</svg>
