<svg width="396" height="429" viewBox="0 0 396 429" fill="none" xmlns="http://www.w3.org/2000/svg">
<path d="M67.9518 96.3515C66.1518 93.4647 63.3142 91.2316 59.9174 90.0286C56.5206 88.8256 52.7724 88.7263 49.3046 89.7474C45.8421 90.8636 42.9348 93.0755 41.1122 95.9804C39.2896 98.8852 38.6729 102.29 39.3744 105.574C40.076 108.858 42.049 111.804 44.9343 113.874C47.8196 115.945 51.4252 117.002 55.0945 116.854C62.6488 116.547 68.7626 111.362 73.9149 106.323" fill="#263238"/>
<path d="M73.9878 93.7741C73.9078 93.4056 73.7484 93.0552 73.5188 92.7432C73.2893 92.4311 72.9942 92.1635 72.6506 91.9559C72.3069 91.7483 71.9216 91.6048 71.5167 91.5335C71.1118 91.4623 70.6955 91.4648 70.2917 91.541C69.4847 91.7366 68.7506 92.1269 68.1667 92.6708C67.5829 93.2148 67.171 93.8921 66.9745 94.6315C66.6044 96.1191 66.6766 97.6697 67.1836 99.1234C67.8575 101.411 69.0132 103.558 70.5863 105.444C71.6568 106.725 73.3728 107.983 75.0246 107.404C76.7608 106.797 77.0273 104.68 76.8508 102.993C76.4491 99.1635 75.2407 95.4399 73.2918 92.0265" fill="#E8505B"/>
<path d="M116.608 32.6546C124.704 21.8731 135.21 12.3599 148.049 6.55068C160.889 0.741509 176.194 -1.09927 189.782 3.06067C203.37 7.22062 214.779 17.8269 217.435 30.6601C219.539 40.8321 217.724 56.6596 226.073 63.6826C243.152 78.0463 240.578 105.253 230.519 120.8C230.519 120.8 214.99 137.907 231.756 153.744C231.756 153.744 241.651 160.13 236.703 177.446C228.983 204.463 262.754 219.472 242.336 215.272L174.049 208.409L166.387 137.904" fill="#263238"/>
<path d="M76.2841 70.6948C72.0111 73.563 70.5031 78.8702 70.9001 83.694C71.297 88.5177 73.2615 93.1017 74.6109 97.7779C75.9602 102.454 76.6979 107.553 74.6952 112.033C71.2757 119.684 61.5152 122.797 54.1105 127.568C48.4078 131.331 43.8553 136.358 40.8855 142.174C37.9157 147.99 36.6271 154.4 37.1421 160.798C37.4884 164.535 38.4375 168.442 36.933 171.934C35.2114 175.929 30.7371 178.314 28.0215 181.819C23.7721 187.301 24.404 194.974 27.6774 200.987C30.9507 207 36.4483 211.722 41.8222 216.308C67.0309 196.365 95.1199 179.663 125.306 166.666" fill="#263238"/>
<path d="M66.8756 100.201C65.4252 100.377 63.9645 100.473 62.5014 100.487C59.0193 100.638 55.6002 101.388 52.4249 102.699C49.2985 104.071 46.7637 106.354 45.2215 109.186C44.6821 110.403 44.268 111.663 43.9845 112.949C43.8682 112.596 43.8405 112.224 43.9036 111.859C43.9765 110.861 44.2271 109.881 44.6457 108.956C46.0998 105.89 48.7245 103.408 52.0336 101.97C55.3084 100.601 58.872 99.8986 62.4755 99.9134C63.9498 99.8164 65.4317 99.9133 66.8756 100.201Z" fill="#455A64"/>
<path d="M331.706 170.528L365.131 180.362C365.131 180.362 388.352 167.368 389.667 162.594C391.04 157.616 388.559 157.096 387.659 157.188C387.659 157.188 395.942 150.599 391.549 144.578C391.549 144.578 398.926 137.483 393.964 133.24L391.278 131.24C391.278 131.24 394.862 124.696 391.997 119.754C391.518 118.97 390.744 118.37 389.817 118.065C388.89 117.76 387.874 117.77 386.955 118.094L359.616 127.374L342.123 138.049L331.706 170.528Z" fill="#FFBE9D"/>
<path d="M372.568 127.879L381.902 96.994L389.622 96.3281L382.324 120.854L372.568 127.879Z" fill="#FAFAFA"/>
<path d="M334.57 160.921L342.786 136.029L372.399 115.856C373.306 117.259 373.782 118.857 373.777 120.485C373.773 122.112 373.287 123.709 372.372 125.106C369.243 130.205 364.725 134.337 363.719 135.754C362.712 137.17 358.472 144.534 358.472 144.534C358.472 144.534 362.997 153.271 359.418 165.087" fill="#FFBE9D"/>
<path d="M359.419 165.083C359.467 164.596 359.56 164.113 359.698 163.64C359.819 163.173 359.936 162.593 360.042 161.898C360.175 161.212 360.291 160.415 360.372 159.515C360.604 157.34 360.604 155.149 360.372 152.974C360.097 150.118 359.353 147.315 358.164 144.661L358.094 144.511L358.169 144.382C359.34 142.402 360.586 140.292 361.908 138.053C362.239 137.494 362.574 136.928 362.914 136.354C363.087 136.068 363.244 135.779 363.434 135.49C363.659 135.198 363.884 134.934 364.109 134.67L366.961 131.526C368.963 129.33 370.728 126.963 372.233 124.458C372.977 123.158 373.349 121.708 373.313 120.242C373.278 118.776 372.837 117.342 372.031 116.073L372.665 116.169L370.126 117.901L343.011 136.292L343.146 136.117C340.627 143.538 338.53 149.724 337.029 154.145C336.293 156.244 335.701 157.922 335.268 159.164L334.777 160.473C334.732 160.629 334.663 160.777 334.571 160.914C334.577 160.754 334.609 160.595 334.666 160.444L335.051 159.103C335.437 157.852 335.961 156.158 336.615 154.034C338.041 149.591 340.035 143.381 342.429 135.921L342.463 135.813L342.562 135.745L369.595 117.257L372.136 115.526L372.529 115.259L372.772 115.622C373.667 117.01 374.159 118.582 374.202 120.191C374.245 121.8 373.837 123.392 373.017 124.817C371.478 127.369 369.667 129.776 367.612 132.006L364.739 135.134C364.514 135.387 364.289 135.646 364.098 135.893C363.915 136.165 363.751 136.462 363.578 136.74C363.235 137.307 362.898 137.866 362.566 138.418C361.231 140.624 359.966 142.715 358.783 144.673L358.79 144.393C359.98 147.121 360.701 150.001 360.927 152.929C361.121 155.136 361.068 157.355 360.766 159.552C360.672 160.356 360.53 161.154 360.341 161.944C360.231 162.529 360.085 163.107 359.902 163.677C359.785 164.157 359.623 164.627 359.419 165.083Z" fill="#EB996E"/>
<path d="M391.254 131.336C390.642 131.797 389.981 132.203 389.282 132.547L383.733 135.59L375.447 140.013C373.808 141.052 371.842 141.575 369.847 141.504C368.726 141.408 367.691 140.916 366.964 140.133C366.268 139.305 365.914 138.281 365.963 137.239C366.2 135.301 367.114 133.483 368.57 132.054C369.744 130.686 371.002 129.379 372.338 128.141C374.595 126.043 377.063 124.143 379.711 122.466C381.493 121.338 383.359 120.324 385.295 119.433C385.987 119.07 386.722 118.783 387.487 118.577C386.845 119.002 386.169 119.381 385.463 119.71C383.61 120.7 381.814 121.775 380.081 122.932C377.522 124.652 375.129 126.569 372.931 128.662C371.633 129.895 370.409 131.191 369.262 132.543C367.938 133.844 367.096 135.493 366.858 137.255C366.814 138.104 367.096 138.942 367.656 139.623C368.237 140.246 369.064 140.638 369.959 140.713C371.77 140.77 373.553 140.295 375.046 139.36L383.423 135.091C385.707 133.958 387.617 133.012 389.112 132.272C389.79 131.897 390.508 131.583 391.254 131.336Z" fill="#EB996E"/>
<path d="M391.55 144.578C391.021 145.06 390.435 145.488 389.803 145.853C388.642 146.625 386.937 147.712 384.79 149.003C382.282 150.532 379.686 151.938 377.014 153.216C376.222 153.645 375.354 153.943 374.449 154.096C373.428 154.223 372.393 153.977 371.57 153.413C370.771 152.806 370.167 152.013 369.821 151.119C369.476 150.224 369.401 149.262 369.607 148.332C370.074 146.561 371.064 144.941 372.468 143.645C373.688 142.445 374.986 141.313 376.355 140.256C378.668 138.482 381.105 136.846 383.65 135.357C385.81 134.081 387.605 133.119 388.852 132.467C389.477 132.092 390.143 131.778 390.84 131.531C390.287 131.987 389.684 132.39 389.041 132.735L384.007 135.835C381.537 137.375 379.164 139.04 376.898 140.82C375.572 141.873 374.313 142.993 373.126 144.175C371.84 145.368 370.929 146.854 370.489 148.478C370.317 149.259 370.375 150.068 370.658 150.822C370.941 151.576 371.438 152.248 372.098 152.77C372.738 153.218 373.547 153.416 374.347 153.321C375.155 153.186 375.931 152.925 376.64 152.55C379.676 151.169 382.27 149.736 384.462 148.513L389.621 145.585C390.226 145.193 390.872 144.855 391.55 144.578Z" fill="#EB996E"/>
<path d="M387.66 157.188C387.236 157.555 386.762 157.871 386.25 158.129C385.312 158.69 383.954 159.497 382.229 160.436C380.208 161.556 378.095 162.532 375.908 163.355C374.601 163.866 373.236 164.244 371.838 164.482C371.02 164.608 370.18 164.503 369.43 164.18C369.045 163.972 368.721 163.682 368.485 163.336C368.249 162.989 368.109 162.596 368.075 162.189C367.972 161.447 368.041 160.694 368.275 159.978C368.496 159.278 368.908 158.64 369.473 158.124C370.415 157.167 371.449 156.288 372.562 155.498C374.415 154.165 376.357 152.938 378.379 151.826C380.094 150.869 381.518 150.156 382.517 149.687C383.014 149.404 383.555 149.189 384.12 149.049C383.685 149.403 383.205 149.71 382.69 149.962L378.718 152.31C376.771 153.478 374.889 154.735 373.081 156.077C371.204 157.632 368.471 159.355 368.957 162.076C368.972 162.358 369.061 162.632 369.218 162.875C369.375 163.118 369.594 163.323 369.856 163.471C370.446 163.713 371.1 163.789 371.738 163.692C373.064 163.469 374.363 163.122 375.612 162.657C377.778 161.878 379.885 160.969 381.919 159.935C383.764 158.905 385.682 157.987 387.66 157.188Z" fill="#EB996E"/>
<path d="M389.363 162.948C389.181 163.406 388.918 163.834 388.585 164.215C387.774 165.309 386.867 166.342 385.872 167.302C384.4 168.731 382.798 170.043 381.082 171.224C380.119 171.897 379.08 172.568 377.983 173.232C376.86 174.008 375.591 174.591 374.24 174.954C373.464 175.126 372.647 175.038 371.937 174.707C371.257 174.356 370.744 173.787 370.497 173.112C370.114 171.902 370.261 170.605 370.905 169.491C371.812 167.691 373.023 166.032 374.495 164.574C375.483 163.59 376.63 162.749 377.896 162.08C378.343 161.806 378.846 161.617 379.375 161.525C375.928 163.49 373.234 166.379 371.66 169.794C371.126 170.736 371.005 171.827 371.323 172.847C371.501 173.347 371.886 173.765 372.397 174.011C372.908 174.256 373.504 174.311 374.058 174.162C375.3 173.816 376.466 173.278 377.506 172.571C378.598 171.925 379.629 171.275 380.591 170.631C382.3 169.498 383.916 168.253 385.426 166.906C387.994 164.591 389.231 162.861 389.363 162.948Z" fill="#EB996E"/>
<path d="M328.994 169.681L287.876 249.814L251.962 207.015C229.441 180.879 210.935 174.633 210.935 174.633L178.292 166.668L111.304 163.438L105.552 166.478L65.2551 181.946C65.2551 181.946 69.0885 221.604 76.6989 253.103C84.3094 284.601 90.593 319.042 90.593 319.042C93.3604 341.72 74.9133 428.719 74.9133 428.719H259.328L219.925 320.641C224.434 307.479 228.176 294.11 231.136 280.588L265.342 301.884C265.342 301.884 316.817 328.21 335.457 283.977L367.842 180.908L328.994 169.681Z" fill="#E8505B"/>
<path d="M229.026 282.241C228.955 281.46 228.961 280.675 229.046 279.896C229.091 279.145 229.133 278.226 229.123 277.158C229.113 276.089 229.176 274.874 229.096 273.534C229.007 270.392 228.728 267.257 228.26 264.143C227.111 256.51 224.808 249.059 221.416 242.001C220.032 239.123 218.475 236.316 216.752 233.593C216.051 232.41 215.307 231.4 214.697 230.488C214.088 229.577 213.532 228.808 213.064 228.189C212.547 227.564 212.093 226.898 211.709 226.198C212.315 226.756 212.864 227.361 213.351 228.007C213.865 228.6 214.476 229.339 215.118 230.239C215.76 231.14 216.557 232.128 217.297 233.3C219.114 236.004 220.742 238.81 222.172 241.7C225.682 248.794 228.009 256.325 229.078 264.045C229.513 267.19 229.73 270.357 229.729 273.527C229.771 274.88 229.67 276.102 229.625 277.174C229.58 278.247 229.493 279.169 229.4 279.919C229.354 280.702 229.229 281.479 229.026 282.241Z" fill="#263238"/>
<path d="M222.353 215.789C222.661 215.891 221.211 219.374 219.15 223.526C217.089 227.678 215.214 230.965 214.989 230.872C214.765 230.778 216.276 227.346 218.336 223.189C219.364 221.113 220.334 219.249 221.062 217.911C221.402 217.161 221.835 216.449 222.353 215.789Z" fill="#263238"/>
<path d="M290.808 272.851C289.988 271.877 289.345 270.789 288.904 269.629C286.414 264.127 285.671 258.099 286.757 252.231C286.906 251.012 287.268 249.822 287.828 248.706C288.122 248.748 286.499 254.201 287.378 260.977C288.168 267.761 291.083 272.751 290.808 272.851Z" fill="#263238"/>
<path d="M251.854 239.224C252.288 240.845 252.626 242.486 252.866 244.141C254.424 252.04 257.175 259.706 261.039 266.918C261.918 268.382 262.711 269.886 263.414 271.426C263.361 271.455 263.048 271.068 262.525 270.344C262.002 269.62 261.288 268.541 260.477 267.179C256.26 260.035 253.472 252.266 252.242 244.233C252.018 242.696 251.883 241.446 251.841 240.577C251.769 240.128 251.774 239.671 251.854 239.224Z" fill="#FAFAFA"/>
<path d="M258.27 259.279C259.243 257.874 260.129 256.419 260.922 254.922C262.661 251.251 263.094 247.175 262.159 243.268L262.064 242.874L262.859 243.01C260.38 246.204 258.843 249.924 258.396 253.813C258.058 256.794 258.396 258.656 258.235 258.671C258.043 258.262 257.932 257.825 257.908 257.38C257.734 256.183 257.69 254.973 257.776 253.767C258.05 249.727 259.56 245.837 262.135 242.538L262.716 241.796L262.93 242.673L263.029 243.088C264.021 247.154 263.483 251.406 261.501 255.16C260.914 256.284 260.184 257.341 259.327 258.31C258.705 258.987 258.31 259.312 258.27 259.279Z" fill="#FAFAFA"/>
<path d="M253.079 253.194C252.552 253.108 252.043 252.944 251.574 252.708C250.251 252.165 248.98 251.52 247.776 250.78C245.978 249.689 244.314 248.423 242.814 247.006C241.925 246.171 241.096 245.283 240.333 244.35C239.91 243.854 239.522 243.333 239.172 242.792C238.952 242.475 238.811 242.118 238.759 241.747C238.708 241.375 238.747 240.997 238.874 240.641C238.979 240.44 239.134 240.265 239.326 240.129C239.519 239.993 239.743 239.9 239.982 239.857C240.406 239.797 240.84 239.849 241.232 240.007C241.868 240.283 242.466 240.627 243.014 241.031C244.038 241.728 245.012 242.484 245.928 243.296C247.483 244.665 248.863 246.19 250.044 247.84C250.844 248.944 251.537 250.11 252.115 251.323C252.369 251.753 252.541 252.219 252.625 252.701C252.479 252.762 251.621 250.844 249.523 248.163C248.298 246.599 246.904 245.15 245.363 243.838C244.456 243.063 243.499 242.339 242.497 241.669C242.004 241.312 241.47 241.005 240.904 240.754C240.352 240.539 239.868 240.625 239.684 240.979C239.623 241.223 239.616 241.475 239.663 241.721C239.711 241.968 239.813 242.203 239.962 242.413C240.289 242.917 240.648 243.404 241.038 243.87C241.771 244.784 242.564 245.658 243.413 246.486C244.851 247.892 246.432 249.17 248.136 250.304C251.059 252.247 253.15 253.061 253.079 253.194Z" fill="#FAFAFA"/>
<path d="M255.384 266.29C255.003 266.488 254.583 266.618 254.147 266.672C252.972 266.904 251.77 266.999 250.568 266.952C246.487 266.815 242.607 265.3 239.683 262.703L239.135 262.211L239.863 262.029L241.032 261.737C245.291 260.879 249.75 261.563 253.466 263.644C254.573 264.261 255.584 265.01 256.473 265.872C257.081 266.494 257.36 266.879 257.317 266.911C256.009 265.891 254.614 264.967 253.147 264.145C249.522 262.306 245.287 261.733 241.233 262.533L240.131 262.807L240.311 262.133C243.096 264.6 246.734 266.109 250.605 266.402C252.199 266.455 253.795 266.417 255.384 266.29Z" fill="#FAFAFA"/>
<path d="M109.061 272.617C109.143 273.064 109.149 273.52 109.077 273.969C109.035 274.836 108.902 276.087 108.675 277.625C107.447 285.658 104.659 293.428 100.441 300.57C99.6264 301.933 98.9225 303.013 98.3928 303.735C97.8632 304.456 97.5562 304.847 97.5056 304.817C98.2079 303.278 98.9999 301.773 99.8783 300.31C101.798 296.703 103.452 292.985 104.832 289.178C106.186 285.366 107.263 281.475 108.053 277.533C108.292 275.879 108.629 274.238 109.061 272.617Z" fill="#FAFAFA"/>
<path d="M102.646 292.673C102.605 292.706 102.211 292.378 101.594 291.704C100.738 290.734 100.009 289.677 99.4212 288.553C97.4392 284.799 96.901 280.547 97.8931 276.481L97.9943 276.066L98.2068 275.189L98.7893 275.931C101.363 279.231 102.872 283.121 103.148 287.162C103.233 288.367 103.188 289.577 103.014 290.775C102.989 291.219 102.878 291.656 102.688 292.066C102.527 292.05 102.866 290.189 102.525 287.208C102.078 283.319 100.542 279.599 98.064 276.406L98.8579 276.269L98.7634 276.665C97.8278 280.572 98.2604 284.647 100 288.318C100.792 289.814 101.675 291.268 102.646 292.673Z" fill="#FAFAFA"/>
<path d="M107.837 286.587C107.767 286.454 109.861 285.641 112.785 283.702C114.488 282.569 116.07 281.29 117.507 279.884C118.356 279.056 119.149 278.182 119.883 277.268C120.273 276.802 120.632 276.316 120.96 275.811C121.108 275.601 121.209 275.366 121.257 275.12C121.304 274.873 121.297 274.621 121.235 274.377C121.052 274.023 120.567 273.937 120.015 274.153C119.449 274.404 118.916 274.711 118.423 275.068C115.717 276.879 113.345 279.071 111.395 281.561C109.298 284.241 108.441 286.16 108.293 286.097C108.379 285.616 108.552 285.151 108.803 284.72C109.381 283.507 110.074 282.342 110.874 281.238C112.055 279.587 113.435 278.063 114.99 276.693C115.907 275.882 116.881 275.125 117.904 274.427C118.453 274.024 119.051 273.68 119.687 273.403C120.079 273.245 120.512 273.193 120.936 273.253C121.175 273.297 121.4 273.39 121.592 273.526C121.785 273.662 121.94 273.837 122.046 274.037C122.172 274.394 122.211 274.771 122.159 275.143C122.108 275.515 121.967 275.871 121.748 276.188C121.397 276.73 121.008 277.25 120.584 277.746C119.82 278.679 118.989 279.566 118.098 280.4C116.598 281.816 114.935 283.082 113.138 284.173C111.934 284.913 110.663 285.558 109.339 286.101C108.871 286.337 108.364 286.501 107.837 286.587Z" fill="#FAFAFA"/>
<path d="M105.533 299.682C107.123 299.809 108.72 299.846 110.315 299.792C114.186 299.499 117.825 297.991 120.611 295.526L120.791 296.2L119.688 295.926C115.633 295.125 111.398 295.699 107.774 297.538C106.306 298.359 104.912 299.284 103.603 300.304C103.562 300.271 103.839 299.887 104.45 299.264C105.338 298.403 106.349 297.654 107.456 297.037C111.172 294.955 115.631 294.271 119.89 295.13L121.058 295.422L121.787 295.604L121.241 296.096C118.316 298.693 114.435 300.208 110.353 300.345C109.152 300.391 107.95 300.297 106.775 300.064C106.338 300.012 105.916 299.882 105.533 299.682Z" fill="#FAFAFA"/>
<path d="M172.69 217.56C172.738 217.525 173.106 217.867 173.736 218.519C174.365 219.172 175.231 220.147 176.246 221.393C181.514 227.933 185.463 235.274 187.909 243.074C188.367 244.57 188.69 245.79 188.863 246.642C189.003 247.077 189.068 247.53 189.056 247.983C188.38 246.433 187.796 244.851 187.306 243.244C184.556 235.618 180.66 228.375 175.729 221.723C174.636 220.385 173.621 218.995 172.69 217.56Z" fill="#FAFAFA"/>
<path d="M183.442 236.01C182.945 236.083 182.438 236.074 181.945 235.984C180.589 235.832 179.257 235.538 177.976 235.107C173.683 233.675 170.042 230.969 167.641 227.424L167.396 227.064L166.876 226.298L167.86 226.459C172.231 227.19 176.29 229.019 179.58 231.741C180.564 232.55 181.459 233.446 182.252 234.414C182.573 234.75 182.827 235.133 183.005 235.547C182.878 235.638 181.696 234.088 179.17 232.167C175.872 229.663 171.922 227.972 167.701 227.258L168.165 226.656L168.4 226.999C170.718 230.394 174.146 233.042 178.202 234.569C179.918 235.139 181.667 235.62 183.442 236.01Z" fill="#FAFAFA"/>
<path d="M182.506 228.353C182.355 228.303 183.231 226.391 183.843 223.146C184.196 221.252 184.352 219.331 184.307 217.409C184.282 216.278 184.183 215.149 184.009 214.029C183.932 213.447 183.817 212.87 183.665 212.301C183.612 212.055 183.505 211.821 183.35 211.614C183.195 211.407 182.997 211.23 182.765 211.094C182.363 210.957 181.95 211.204 181.721 211.709C181.508 212.248 181.359 212.807 181.279 213.375C181.074 214.492 180.942 215.619 180.883 216.75C180.782 218.67 180.892 220.594 181.21 222.494C181.759 225.748 182.611 227.668 182.46 227.718C182.151 227.319 181.918 226.876 181.77 226.408C181.255 225.167 180.859 223.889 180.587 222.586C180.171 220.653 179.994 218.684 180.06 216.715C180.096 215.551 180.215 214.39 180.416 213.239C180.5 212.602 180.666 211.975 180.91 211.373C181.07 211.011 181.34 210.698 181.689 210.472C181.893 210.351 182.126 210.275 182.368 210.25C182.61 210.225 182.855 210.252 183.084 210.329C183.447 210.505 183.764 210.751 184.012 211.051C184.26 211.351 184.432 211.696 184.517 212.063C184.681 212.674 184.801 213.293 184.877 213.917C185.045 215.072 185.13 216.235 185.132 217.4C185.141 219.369 184.917 221.333 184.464 223.259C184.167 224.552 183.75 225.82 183.217 227.049C183.06 227.516 182.819 227.957 182.506 228.353Z" fill="#FAFAFA"/>
<path d="M190.876 239.201C192.113 238.281 193.285 237.292 194.387 236.239C196.939 233.571 198.393 230.178 198.501 226.641L199.146 227.01L198.145 227.514C194.626 229.515 192.028 232.616 190.836 236.236C190.415 237.758 190.124 239.308 189.967 240.871C189.816 240.458 189.751 240.023 189.777 239.589C189.755 238.408 189.906 237.229 190.226 236.084C191.298 232.232 193.97 228.909 197.679 226.818L198.742 226.286L199.403 225.953L199.386 226.653C199.278 230.372 197.656 233.922 194.836 236.613C194.01 237.409 193.075 238.105 192.055 238.685C191.702 238.925 191.302 239.1 190.876 239.201Z" fill="#FAFAFA"/>
<path d="M117.591 393.124C117.639 393.09 118.009 393.432 118.637 394.084C119.266 394.737 120.133 395.712 121.147 396.958C126.414 403.499 130.361 410.841 132.806 418.641C133.265 420.135 133.587 421.356 133.761 422.209C133.901 422.644 133.965 423.097 133.951 423.55C133.277 421.999 132.694 420.416 132.203 418.809C130.817 415.005 129.156 411.288 127.231 407.684C125.284 404.089 123.078 400.617 120.627 397.288C119.534 395.951 118.521 394.561 117.591 393.124Z" fill="#FAFAFA"/>
<path d="M128.344 411.578C127.847 411.649 127.34 411.639 126.846 411.551C125.49 411.4 124.159 411.106 122.878 410.674C118.584 409.242 114.943 406.536 112.54 402.991L112.298 402.63L111.778 401.865L112.762 402.027C117.133 402.757 121.192 404.587 124.481 407.308C125.466 408.117 126.361 409.013 127.153 409.981C127.475 410.316 127.729 410.7 127.905 411.114C127.778 411.205 126.598 409.655 124.072 407.734C120.773 405.23 116.824 403.54 112.602 402.825L113.068 402.223L113.301 402.566C115.619 405.961 119.047 408.609 123.103 410.138C124.819 410.707 126.569 411.188 128.344 411.578Z" fill="#FAFAFA"/>
<path d="M127.406 403.919C127.253 403.869 128.132 401.958 128.741 398.712C129.096 396.818 129.252 394.897 129.207 392.976C129.181 391.845 129.082 390.716 128.909 389.596C128.831 389.014 128.716 388.437 128.564 387.868C128.511 387.622 128.404 387.388 128.25 387.181C128.095 386.973 127.896 386.796 127.665 386.66C127.262 386.523 126.847 386.77 126.618 387.275C126.405 387.814 126.257 388.372 126.177 388.94C125.971 390.057 125.839 391.184 125.781 392.314C125.68 394.234 125.79 396.158 126.109 398.058C126.657 401.312 127.51 403.232 127.358 403.282C127.05 402.882 126.818 402.439 126.669 401.971C126.154 400.733 125.758 399.457 125.487 398.157C125.07 396.225 124.893 394.255 124.959 392.287C124.996 391.123 125.114 389.962 125.314 388.811C125.399 388.174 125.565 387.548 125.807 386.946C125.967 386.583 126.239 386.27 126.589 386.044C126.793 385.923 127.025 385.847 127.267 385.823C127.509 385.798 127.754 385.824 127.983 385.9C128.347 386.076 128.664 386.322 128.912 386.622C129.159 386.922 129.332 387.267 129.417 387.634C129.58 388.245 129.7 388.865 129.777 389.49C129.945 390.645 130.03 391.808 130.032 392.973C130.041 394.942 129.817 396.906 129.364 398.831C129.067 400.124 128.65 401.392 128.117 402.621C127.96 403.086 127.719 403.525 127.406 403.919Z" fill="#FAFAFA"/>
<path d="M135.779 414.769C137.015 413.848 138.188 412.859 139.29 411.807C141.841 409.139 143.295 405.746 143.404 402.209L144.048 402.578L143.048 403.082C139.528 405.083 136.93 408.184 135.739 411.804C135.317 413.327 135.027 414.877 134.868 416.44C134.72 416.027 134.656 415.593 134.679 415.159C134.657 413.977 134.808 412.797 135.129 411.652C136.199 407.799 138.872 404.477 142.582 402.387L143.645 401.853L144.306 401.521L144.289 402.221C144.181 405.94 142.559 409.49 139.738 412.181C138.912 412.977 137.978 413.673 136.957 414.252C136.605 414.492 136.205 414.667 135.779 414.769Z" fill="#FAFAFA"/>
<path d="M334.533 216.108C334.509 216.561 334.407 217.007 334.233 217.431C333.99 218.271 333.568 219.467 332.989 220.927C329.914 228.539 325.377 235.593 319.59 241.757C318.477 242.931 317.538 243.85 316.852 244.453C316.166 245.057 315.776 245.375 315.727 245.34C316.774 243.97 317.9 242.652 319.101 241.392C324.56 235.091 329.035 228.133 332.4 220.715C333.021 219.146 333.733 217.608 334.533 216.108Z" fill="#FAFAFA"/>
<path d="M323.587 234.466C323.248 234.128 322.976 233.739 322.786 233.315C322.175 232.202 321.708 231.027 321.396 229.816C320.336 225.766 320.802 221.509 322.718 217.729L322.914 217.343L323.326 216.524L323.722 217.361C325.468 221.083 326.036 225.176 325.364 229.177C325.166 230.371 324.84 231.545 324.39 232.682C324.262 233.111 324.052 233.517 323.769 233.879C323.615 233.834 324.383 232.082 324.744 229.103C325.214 225.215 324.58 221.283 322.902 217.682L323.71 217.703L323.524 218.072C321.7 221.708 321.171 225.773 322.012 229.697C322.438 231.312 322.964 232.905 323.587 234.466Z" fill="#FAFAFA"/>
<path d="M330.078 229.524C330.04 229.381 332.273 228.99 335.58 227.662C337.511 226.884 339.356 225.941 341.09 224.845C342.113 224.201 343.092 223.501 344.021 222.75C344.51 222.369 344.975 221.963 345.412 221.534C345.608 221.357 345.762 221.146 345.867 220.913C345.971 220.681 346.022 220.431 346.019 220.18C345.923 219.799 345.466 219.621 344.879 219.727C344.268 219.861 343.674 220.058 343.11 220.311C341.975 220.772 340.871 221.293 339.805 221.874C337.992 222.858 336.291 224.004 334.728 225.295C332.052 227.51 330.768 229.218 330.639 229.129C330.835 228.675 331.111 228.254 331.458 227.882C332.306 226.808 333.255 225.802 334.294 224.877C335.833 223.494 337.538 222.272 339.375 221.234C340.46 220.619 341.587 220.068 342.749 219.584C343.379 219.296 344.043 219.076 344.729 218.929C345.149 218.849 345.585 218.882 345.985 219.022C346.208 219.111 346.405 219.246 346.561 219.416C346.717 219.586 346.828 219.786 346.884 220.002C346.925 220.376 346.875 220.753 346.738 221.107C346.601 221.461 346.38 221.783 346.091 222.051C345.621 222.512 345.12 222.946 344.592 223.35C343.628 224.114 342.611 224.821 341.546 225.465C339.75 226.56 337.83 227.475 335.818 228.194C334.47 228.684 333.078 229.068 331.658 229.343C331.146 229.482 330.612 229.543 330.078 229.524Z" fill="#FAFAFA"/>
<path d="M324.768 241.875C326.293 242.306 327.846 242.65 329.418 242.906C333.268 243.369 337.176 242.599 340.472 240.727L340.491 241.421C340.169 241.268 339.824 241.105 339.479 240.94C335.705 239.375 331.435 239.115 327.467 240.209C325.841 240.73 324.262 241.365 322.744 242.108C322.71 242.069 323.071 241.747 323.811 241.258C324.88 240.588 326.043 240.052 327.269 239.663C331.385 238.349 335.901 238.543 339.863 240.205C340.23 240.381 340.596 240.554 340.937 240.717L341.605 241.037L340.955 241.412C337.492 243.384 333.347 244.114 329.326 243.46C328.141 243.272 326.988 242.946 325.894 242.492C325.478 242.354 325.096 242.144 324.768 241.875Z" fill="#FAFAFA"/>
<path d="M109.501 260.411C110.235 259.086 110.814 257.695 111.228 256.26C111.643 254.53 111.643 252.739 111.227 251.009C110.812 249.28 109.991 247.652 108.821 246.239L109.496 246.262L109.361 246.402C107.933 247.873 107.01 249.692 106.707 251.636C106.482 253.232 106.689 254.854 107.31 256.36C107.896 257.771 108.629 259.127 109.499 260.41C109.44 260.487 107.906 259.255 106.716 256.56C105.971 254.979 105.686 253.25 105.89 251.541C106.17 249.432 107.148 247.452 108.694 245.863L108.841 245.711L109.191 245.353L109.518 245.735C110.919 247.383 111.824 249.336 112.143 251.4C112.415 253.066 112.311 254.766 111.836 256.394C111.528 257.483 111.031 258.521 110.363 259.467C109.879 260.121 109.542 260.434 109.501 260.411Z" fill="#FAFAFA"/>
<path d="M196.574 203.633C198.017 202.946 199.377 202.122 200.631 201.175C202.075 199.989 203.22 198.533 203.988 196.906C204.756 195.279 205.13 193.521 205.083 191.751L205.617 192.129L205.417 192.171C203.317 192.609 201.403 193.598 199.914 195.016C198.71 196.194 197.841 197.623 197.383 199.177C196.958 200.635 196.688 202.126 196.574 203.63C196.478 203.663 196.012 201.848 196.774 199.021C197.178 197.34 198.053 195.783 199.313 194.502C200.887 192.936 202.948 191.845 205.221 191.374L205.439 191.329L205.952 191.226L205.975 191.71C206.06 193.793 205.547 195.861 204.486 197.708C203.641 199.206 202.47 200.53 201.044 201.601C200.097 202.325 199.029 202.905 197.88 203.32C197.473 203.505 197.028 203.612 196.574 203.633Z" fill="#FAFAFA"/>
<path d="M336.475 198.026C337.389 196.798 338.158 195.486 338.769 194.11C339.422 192.443 339.673 190.667 339.504 188.904C339.334 187.141 338.749 185.432 337.787 183.894L338.455 183.996L338.301 184.119C336.678 185.41 335.507 187.107 334.934 189C334.488 190.557 334.465 192.19 334.869 193.757C335.254 195.224 335.792 196.653 336.475 198.027C336.406 198.098 335.056 196.696 334.254 193.885C333.737 192.23 333.698 190.482 334.142 188.809C334.715 186.751 335.962 184.901 337.717 183.504L337.885 183.371L338.281 183.056L338.553 183.473C339.712 185.27 340.335 187.313 340.362 189.397C340.399 191.081 340.057 192.755 339.357 194.314C338.9 195.36 338.261 196.332 337.466 197.193C336.89 197.791 336.511 198.061 336.475 198.026Z" fill="#FAFAFA"/>
<path d="M276.061 292.927C276.975 291.698 277.744 290.386 278.355 289.01C279.009 287.343 279.26 285.567 279.09 283.803C278.921 282.04 278.335 280.33 277.374 278.792L278.042 278.894L277.887 279.016C276.265 280.308 275.095 282.006 274.521 283.898C274.075 285.455 274.053 287.088 274.458 288.655C274.842 290.122 275.379 291.552 276.061 292.926C275.993 292.996 274.642 291.594 273.843 288.783C273.325 287.128 273.286 285.38 273.73 283.707C274.303 281.649 275.552 279.798 277.308 278.402L277.476 278.269L277.872 277.954L278.143 278.371C279.302 280.168 279.925 282.211 279.952 284.295C279.988 285.979 279.646 287.653 278.948 289.212C278.489 290.258 277.85 291.23 277.054 292.092C276.478 292.688 276.102 292.959 276.061 292.927Z" fill="#FAFAFA"/>
<path d="M96.5537 418.947C96.017 417.546 95.3193 416.201 94.4723 414.934C93.3929 413.461 91.977 412.218 90.3215 411.29C88.666 410.363 86.81 409.771 84.8805 409.558L85.3686 409.131L85.3854 409.317C85.5546 411.275 86.3515 413.145 87.6771 414.695C88.7829 415.95 90.2089 416.94 91.8309 417.578C93.3534 418.172 94.9349 418.632 96.5537 418.951C96.5762 419.043 94.5375 419.196 91.5802 418.105C89.8135 417.497 88.249 416.484 87.0384 415.163C85.5663 413.516 84.6795 411.5 84.496 409.382L84.4791 409.178L84.4375 408.7L84.9671 408.75C87.2412 408.975 89.4116 409.737 91.2642 410.959C92.77 411.937 94.0404 413.186 94.9974 414.627C95.6469 415.585 96.1226 416.632 96.4064 417.727C96.5477 418.12 96.5979 418.536 96.5537 418.947Z" fill="#FAFAFA"/>
<path d="M307.836 284.928C307.751 284.787 310.485 283.652 314.518 281.328C316.875 279.991 318.947 278.278 320.636 276.271C322.714 273.851 323.69 270.795 323.36 267.737C322.919 267.43 323.96 268.147 323.847 268.076H323.837H323.817H323.775L323.693 268.088L323.527 268.108L323.196 268.149C322.971 268.173 322.759 268.22 322.542 268.252C322.109 268.322 321.681 268.419 321.26 268.52C320.431 268.723 319.619 268.982 318.833 269.295C317.34 269.883 315.943 270.655 314.683 271.59C312.532 273.18 310.829 275.214 309.714 277.523C308.74 279.69 308.157 281.985 307.989 284.321C307.836 283.693 307.798 283.047 307.876 282.408C307.976 280.653 308.401 278.925 309.133 277.299C310.214 274.858 311.941 272.698 314.161 271.013C315.467 270.015 316.922 269.191 318.483 268.567C319.306 268.232 320.156 267.956 321.026 267.739C321.468 267.632 321.916 267.535 322.375 267.454C322.6 267.419 322.833 267.371 323.064 267.344L323.412 267.302L323.586 267.281L323.674 267.269L323.719 267.263H323.741H323.751C323.65 267.185 324.684 267.922 324.246 267.616C324.612 270.882 323.553 274.148 321.298 276.709C319.526 278.765 317.341 280.495 314.859 281.807C313.223 282.702 311.529 283.507 309.788 284.218C309.169 284.523 308.514 284.761 307.836 284.928Z" fill="#FAFAFA"/>
<path d="M223.825 417.783C223.742 417.643 226.474 416.508 230.507 414.184C232.864 412.847 234.936 411.133 236.624 409.125C238.705 406.707 239.681 403.651 239.349 400.593C238.911 400.286 239.948 401.003 239.837 400.932H239.827H239.807H239.764L239.682 400.942L239.515 400.963L239.185 401.004C238.96 401.028 238.75 401.073 238.532 401.106C238.096 401.177 237.67 401.272 237.25 401.375C236.421 401.577 235.609 401.837 234.823 402.15C230.754 403.747 227.497 406.685 225.705 410.376C224.73 412.543 224.148 414.839 223.98 417.176C223.826 416.548 223.788 415.901 223.867 415.262C223.966 413.506 224.391 411.778 225.124 410.152C226.204 407.711 227.931 405.551 230.15 403.866C231.456 402.869 232.912 402.046 234.472 401.422C235.295 401.087 236.145 400.811 237.015 400.594C237.457 400.485 237.905 400.383 238.364 400.308C238.589 400.273 238.819 400.224 239.053 400.199L239.401 400.155L239.575 400.133L239.663 400.124L239.706 400.118H239.728H239.738C239.637 400.041 240.67 400.779 240.233 400.47C240.6 403.737 239.541 407.004 237.286 409.566C235.513 411.622 233.327 413.352 230.845 414.664C229.208 415.558 227.515 416.363 225.774 417.074C225.156 417.377 224.502 417.615 223.825 417.783Z" fill="#FAFAFA"/>
<path d="M135.463 255.13C135.379 254.99 138.11 253.855 142.144 251.53C144.5 250.194 146.573 248.481 148.261 246.473C150.341 244.054 151.317 240.998 150.986 237.941C150.546 237.633 151.585 238.35 151.473 238.28H151.463H151.443H151.401L151.317 238.291L151.151 238.311L150.821 238.352C150.596 238.376 150.384 238.423 150.167 238.455C149.732 238.525 149.305 238.622 148.885 238.723C148.056 238.926 147.245 239.185 146.458 239.499C144.965 240.086 143.568 240.858 142.307 241.793C140.158 243.383 138.455 245.417 137.34 247.726C136.365 249.892 135.783 252.188 135.615 254.523C135.461 253.896 135.423 253.249 135.502 252.61C135.602 250.855 136.027 249.128 136.76 247.502C137.839 245.06 139.566 242.9 141.785 241.214C143.092 240.217 144.547 239.395 146.107 238.77C146.931 238.435 147.782 238.159 148.652 237.943C149.093 237.835 149.542 237.738 150.001 237.657C150.226 237.622 150.457 237.574 150.691 237.547L151.038 237.505L151.213 237.484L151.3 237.472L151.343 237.466H151.365H151.376C151.274 237.388 152.308 238.125 151.87 237.819C152.237 241.085 151.179 244.351 148.923 246.912C147.151 248.968 144.965 250.698 142.482 252.01C140.846 252.904 139.153 253.709 137.412 254.42C136.794 254.724 136.14 254.962 135.463 255.13Z" fill="#FAFAFA"/>
<path d="M200.246 54.6612C197.789 37.5247 180.303 18.7256 143.431 26.5394L107.249 37.2604C104.51 37.6948 102.05 39.0493 100.354 41.0561C98.6587 43.0629 97.8511 45.5762 98.091 48.0991L111.553 177.897C112.34 185.491 116.208 192.544 122.4 197.678C128.592 202.812 136.664 205.657 145.037 205.657C149.583 205.656 154.082 204.815 158.261 203.186C162.441 201.557 166.214 199.173 169.354 196.179C172.494 193.184 174.936 189.641 176.531 185.763C178.125 181.884 178.841 177.752 178.634 173.615C177.858 158.029 177.277 145.483 177.29 145.571C177.29 145.571 201.156 140.449 204.045 111.46C205.479 97.0421 202.975 73.701 200.246 54.6612Z" fill="#FFBE9D"/>
<path d="M190.876 74.4323C190.957 75.3906 190.623 76.3395 189.947 77.0771C189.271 77.8146 188.305 78.2826 187.256 78.3812C186.744 78.4499 186.223 78.4246 185.723 78.307C185.223 78.1894 184.753 77.9818 184.342 77.6964C183.931 77.4109 183.587 77.0535 183.331 76.6451C183.074 76.2367 182.909 75.7856 182.846 75.3184C182.765 74.3603 183.098 73.4113 183.774 72.6733C184.45 71.9354 185.415 71.4668 186.464 71.3674C186.975 71.2986 187.497 71.3238 187.998 71.4415C188.498 71.5591 188.968 71.7669 189.379 72.0525C189.791 72.3381 190.135 72.6958 190.392 73.1046C190.649 73.5133 190.814 73.9647 190.876 74.4323Z" fill="#263238"/>
<path d="M196.282 69.4424C195.817 69.9546 192.605 68.0769 188.261 68.3525C183.916 68.5707 180.876 70.8028 180.369 70.347C180.123 70.1421 180.569 69.2499 181.889 68.2429C183.682 66.9403 185.873 66.1752 188.162 66.0527C190.422 65.9066 192.675 66.4204 194.593 67.5196C195.997 68.376 196.513 69.213 196.282 69.4424Z" fill="#263238"/>
<path d="M149.289 76.3925C149.369 77.3511 149.036 78.3007 148.36 79.0388C147.684 79.7768 146.718 80.2451 145.668 80.3438C145.157 80.4123 144.636 80.3869 144.136 80.2692C143.636 80.1515 143.167 79.9438 142.756 79.6583C142.346 79.3729 142.002 79.0155 141.745 78.6071C141.489 78.1988 141.324 77.7478 141.262 77.2807C141.181 76.3223 141.513 75.373 142.189 74.6347C142.865 73.8965 143.83 73.4278 144.879 73.3284C145.391 73.2596 145.912 73.2847 146.412 73.4024C146.913 73.52 147.382 73.7277 147.793 74.0133C148.204 74.2989 148.548 74.6565 148.805 75.0651C149.062 75.4738 149.226 75.9251 149.289 76.3925Z" fill="#263238"/>
<path d="M153.24 71.5663C152.772 72.0785 149.557 70.2008 145.216 70.4763C140.872 70.6945 137.832 72.9266 137.325 72.4698C137.079 72.2649 137.519 71.3737 138.845 70.3678C140.638 69.0651 142.829 68.2998 145.118 68.1766C147.377 68.0324 149.628 68.5461 151.546 69.6435C152.95 70.5009 153.467 71.3399 153.24 71.5663Z" fill="#263238"/>
<path d="M170.842 98.9068C170.803 98.6835 173.473 98.0934 177.813 97.3159C178.915 97.1428 179.95 96.8775 180.089 96.1768C180.295 95.4311 179.752 94.3698 179.127 93.2266C177.903 90.8432 176.621 88.3441 175.279 85.7292C169.916 75.0459 165.955 66.2362 166.427 66.0447C166.899 65.8531 171.634 74.3514 176.997 85.0326C178.292 87.6686 179.529 90.1859 180.708 92.5843C181.211 93.7111 182.03 94.966 181.575 96.5179C181.439 96.884 181.215 97.2174 180.917 97.4926C180.62 97.7679 180.257 97.9779 179.858 98.1067C179.255 98.2958 178.628 98.4143 177.992 98.4591C173.606 98.9508 170.874 99.1362 170.842 98.9068Z" fill="#263238"/>
<path d="M177.291 145.574C162.479 146.686 147.618 144.03 134.365 137.903C134.365 137.903 146.492 157.5 177.81 152.89L177.291 145.574Z" fill="#EB996E"/>
<path d="M169.706 108.565C168.809 107.668 167.676 106.993 166.413 106.605C165.151 106.216 163.801 106.127 162.49 106.346C161.537 106.483 160.625 106.793 159.807 107.259C158.99 107.725 158.284 108.337 157.732 109.058C157.199 109.753 156.913 110.58 156.913 111.428C156.913 112.276 157.199 113.104 157.732 113.799C159.015 115.233 161.491 115.426 163.527 114.764C165.53 113.976 167.343 112.834 168.859 111.405C169.325 111.058 169.717 110.635 170.014 110.158C170.157 109.93 170.222 109.668 170.202 109.406C170.182 109.144 170.078 108.893 169.901 108.685" fill="#EB996E"/>
<path d="M158.254 102.431C158.958 102.35 159.284 106.647 163.547 109.45C167.81 112.253 172.795 111.473 172.88 112.072C172.966 112.338 171.821 112.976 169.703 113.157C166.943 113.361 164.191 112.672 161.933 111.211C159.767 109.806 158.286 107.689 157.801 105.307C157.483 103.525 157.93 102.427 158.254 102.431Z" fill="#263238"/>
<path d="M153.277 60.5623C152.927 61.6645 148.554 61.4207 143.494 62.2914C138.416 63.0699 134.404 64.6813 133.657 63.7552C133.32 63.3117 133.964 62.2566 135.549 61.1123C137.674 59.6995 140.124 58.7461 142.714 58.3244C145.304 57.9027 147.965 58.0238 150.496 58.6784C152.419 59.2531 153.426 60.0408 153.277 60.5623Z" fill="#263238"/>
<path d="M194.241 60.1841C193.541 61.1284 190.479 60.3787 186.876 60.5559C183.268 60.6163 180.272 61.5658 179.502 60.6685C179.165 60.2301 179.576 59.3001 180.846 58.368C182.56 57.2393 184.604 56.5997 186.718 56.5303C188.832 56.4608 190.921 56.9646 192.72 57.9777C194.06 58.8248 194.545 59.7231 194.241 60.1841Z" fill="#263238"/>
<path d="M135.127 28.7354C141.048 37.383 157.302 36.0944 168.46 36.836C171.126 37.0122 173.819 36.9169 176.463 37.2826C179.148 37.5355 181.658 38.6161 183.577 40.3455C185.92 42.6963 186.358 46.0921 187.706 49.0207C189.02 51.757 191.144 54.106 193.841 55.8045C196.538 57.503 199.7 58.4839 202.975 58.6373C204.832 58.6998 206.999 58.3065 207.842 56.7935C208.282 55.7156 208.322 54.536 207.955 53.4357C206.368 45.9261 204.607 38.2752 200.308 31.7081C195.31 24.1538 187.336 18.6216 178.013 16.2403C168.787 13.9243 146.572 15.1259 138.151 19.2683" fill="#263238"/>
<path d="M133.85 17.6127C145.094 30.1386 144.638 50.1178 132.838 62.2084C126.114 69.0931 115.652 74.9105 115.858 84.1298C116.083 94.3365 129.748 100.806 130.819 110.968C131.919 121.417 119.379 129.207 117.858 139.608C116.637 147.98 122.863 155.737 129.737 161.406C136.611 167.075 144.675 171.937 149.21 179.304C154.213 187.428 154.083 197.548 150.957 206.417C147.831 215.286 141.993 223.133 135.902 230.614C126.383 228.391 116.593 227.272 106.767 227.285C107.029 223.88 107.291 220.477 107.554 217.074C108.169 220.954 104.933 224.667 100.989 226.243C97.0454 227.818 92.5722 227.724 88.2824 227.482C75.1056 226.736 62.0372 224.845 49.2551 221.835C54.0285 216.57 58.8851 211.182 61.5355 204.791C64.1859 198.4 64.2669 190.719 59.8814 185.18C56.3539 180.73 50.4279 178.181 47.1287 173.587C42.181 166.7 44.6807 157.181 50.0118 150.532C55.343 143.883 63.0018 139.153 69.5778 133.5C76.1537 127.847 81.9594 120.461 81.6817 112.23C81.3241 101.549 70.8957 92.6863 70.9541 82.0001C71.0137 69.8368 84.2477 61.2629 88.5983 49.7593C91.7469 41.4333 90.3683 32.7999 95.7669 25.4973C99.7655 20.0886 106.863 16.0106 114.015 15.7371C121.167 15.4636 127.425 14.7394 133.85 17.6148" fill="#263238"/>
<path d="M140.227 32.4132C140.252 32.7344 140.235 33.0571 140.179 33.375C140.108 34.2948 139.972 35.2094 139.771 36.1131C139.087 39.4599 137.846 42.6918 136.091 45.697C133.516 50.1902 129.953 54.1526 125.625 57.3378C123.085 59.2366 120.279 60.8191 117.281 62.0437C114.046 63.2808 110.702 64.2687 107.285 64.9969C103.922 65.6917 100.686 66.8196 97.6727 68.3465C94.9485 69.8499 92.8027 72.0855 91.5308 74.7456C89.057 79.851 88.6949 85.0916 86.7484 89.0764C85.9286 90.8808 84.8123 92.5611 83.4379 94.0599C82.39 95.1925 81.1097 96.1281 79.6687 96.8144C78.7567 97.2395 77.7704 97.5168 76.754 97.6338C76.4017 97.6765 76.0452 97.6824 75.6914 97.6513C77.0238 97.4793 78.3141 97.1014 79.5068 96.5337C80.8692 95.8217 82.0733 94.8836 83.0567 93.7679C84.3525 92.2771 85.3998 90.6203 86.1648 88.851C87.9932 84.9585 88.2788 79.7414 90.7808 74.4332C92.1007 71.6228 94.3484 69.2563 97.2117 67.6622C100.291 66.0842 103.605 64.9198 107.05 64.205C110.422 63.4884 113.723 62.5198 116.92 61.3092C119.859 60.1224 122.613 58.5884 125.111 56.7467C129.383 53.6448 132.927 49.7929 135.534 45.4194C137.314 42.4773 138.626 39.3198 139.43 36.0414C140.015 33.7295 140.123 32.4019 140.227 32.4132Z" fill="#455A64"/>
<path d="M223.311 62.0894C222.907 61.6339 222.451 61.2182 221.953 60.8489C220.489 59.9749 218.746 59.5722 217.003 59.7047C215.89 59.7293 214.669 59.8737 213.328 59.969C208.583 60.272 203.83 59.512 199.482 57.7554C193.968 55.5285 189.363 51.7784 186.318 47.0358C185.406 45.6153 184.656 44.1137 184.08 42.5543C183.829 41.9947 183.668 41.4046 183.603 40.8027C184.55 42.8409 185.636 44.8228 186.855 46.7367C189.256 50.2355 192.513 53.1814 196.37 55.3443C200.227 57.5073 204.581 58.8289 209.092 59.2059C210.485 59.3229 211.884 59.3527 213.282 59.295C214.596 59.2315 215.843 59.1188 216.998 59.129C218.859 59.0406 220.693 59.5604 222.171 60.5949C222.557 60.8882 222.882 61.2424 223.13 61.6407C223.292 61.9173 223.333 62.0801 223.311 62.0894Z" fill="#455A64"/>
<path d="M218.006 40.4917C217.674 40.5282 217.339 40.5282 217.007 40.4917C216.054 40.429 215.109 40.2947 214.18 40.0901C210.728 39.3362 207.551 37.7781 204.959 35.5687C203.174 34.0367 201.694 32.2345 200.585 30.2421C199.355 28.1289 198.347 25.7566 197.114 23.3678C195.935 20.8487 194.192 18.5811 191.998 16.7096C189.558 14.7894 186.656 13.4191 183.527 12.7096C177.063 11.1393 170.54 12.1974 165.085 13.8363C160.227 15.4118 155.486 17.2722 150.891 19.4057C146.913 21.1573 143.626 22.4725 141.303 23.2551C140.139 23.6433 139.228 23.9199 138.604 24.0889C138.292 24.1944 137.967 24.2656 137.636 24.301C137.921 24.1453 138.226 24.0215 138.544 23.9322C139.238 23.6782 140.108 23.3545 141.176 22.9601C143.449 22.0925 146.674 20.7066 150.614 18.8894C155.199 16.6682 159.948 14.7425 164.828 13.1265C170.345 11.4281 177.059 10.2962 183.761 11.9249C187.025 12.6662 190.05 14.1024 192.587 16.1155C194.86 18.0655 196.659 20.4288 197.866 23.0523C199.096 25.4892 200.071 27.8503 201.249 29.9338C202.531 32.3228 204.355 34.4365 206.601 36.1349C208.848 37.8333 211.464 39.0778 214.278 39.7859C216.629 40.3892 218.016 40.4025 218.006 40.4917Z" fill="#455A64"/>
<path d="M96.1052 34.7544C96.1577 34.1735 96.3055 33.6031 96.5438 33.0622C97.0985 31.5554 97.8606 30.1188 98.8119 28.7865C101.929 24.2654 106.841 21.0137 112.524 19.7082C118.207 18.4027 124.224 19.1441 129.322 21.7779C130.854 22.5388 132.273 23.474 133.546 24.5611C134.036 24.9353 134.464 25.3733 134.814 25.861C133.009 24.5106 131.072 23.3136 129.028 22.285C124.03 19.8733 118.228 19.2359 112.745 20.4959C107.261 21.7559 102.485 24.8238 99.3415 29.1061C98.075 30.8945 96.9917 32.7853 96.1052 34.7544Z" fill="#455A64"/>
<path d="M73.267 223.031C73.2603 222.973 73.9991 222.984 75.3372 222.715C77.2932 222.318 79.1208 221.511 80.6751 220.359C83.1432 218.549 85.0405 216.174 86.1738 213.478C86.902 211.815 87.3446 210.059 87.4861 208.273C87.6138 206.266 87.4467 204.252 86.989 202.285C85.7919 197.777 83.7621 193.488 80.9866 189.599C78.127 185.326 74.5388 181.038 71.4218 176.108C69.7917 173.589 68.4625 170.918 67.4569 168.141C66.457 165.215 65.9564 162.167 65.9725 159.103C66.0406 152.632 68.1909 146.32 72.1572 140.951C74.1513 138.231 76.6004 135.811 79.4157 133.781C82.2056 131.914 85.1808 130.289 88.3024 128.926C91.2647 127.631 94.065 126.048 96.6551 124.206C99.0584 122.387 100.906 120.034 102.021 117.374C104.158 112.133 103.834 106.607 103.033 101.708C102.185 96.7631 100.956 92.1893 100.481 87.9064C99.9932 84.0494 100.201 80.1457 101.095 76.3495C101.71 73.4674 102.89 70.71 104.58 68.2099C105.659 66.6264 107.154 65.3134 108.931 64.39C109.388 64.1486 109.874 63.9568 110.38 63.8184C110.545 63.7548 110.718 63.7087 110.894 63.6812C110.924 63.7447 110.194 63.886 109.02 64.5314C107.315 65.4941 105.89 66.8162 104.864 68.3861C103.257 70.8761 102.145 73.6049 101.579 76.4468C100.749 80.1996 100.589 84.0498 101.105 87.8491C101.614 92.0787 102.873 96.6248 103.761 101.609C104.598 106.562 104.984 112.186 102.788 117.646C101.634 120.429 99.7116 122.893 97.2061 124.801C94.5739 126.687 91.7251 128.307 88.7095 129.634C85.6375 130.982 82.7092 132.586 79.9622 134.426C77.2225 136.407 74.8385 138.765 72.896 141.414C69.0291 146.651 66.9267 152.803 66.8474 159.114C66.8272 162.097 67.3069 165.064 68.2699 167.915C69.25 170.642 70.546 173.266 72.1358 175.744C75.1978 180.628 78.7601 184.929 81.6197 189.258C84.4096 193.219 86.4345 197.585 87.6064 202.168C88.0579 204.19 88.2092 206.257 88.0562 208.315C87.8898 210.15 87.4118 211.951 86.6393 213.653C85.4421 216.4 83.4559 218.804 80.8888 220.612C79.2803 221.762 77.3895 222.538 75.3788 222.875C74.6845 223.005 73.9753 223.058 73.267 223.031Z" fill="#455A64"/>
<path d="M210.473 175.798C211.762 174.639 212.753 173.235 213.374 171.685C214.539 168.705 214.552 163.857 212.202 158.56C211.112 155.884 209.634 153.028 208.534 149.771C207.957 148.078 207.599 146.33 207.467 144.562C207.498 143.646 207.528 142.717 207.559 141.776C207.657 140.841 207.922 139.913 208.102 138.962C209.31 135.096 211.248 131.451 213.83 128.191C216.372 124.746 219.31 121.404 222.022 117.817C224.734 114.23 227.089 110.512 228.094 106.549C229.076 102.73 228.6 98.7192 226.745 95.1788C225.002 91.9893 222.816 89.0177 220.239 86.3376C217.9 83.7368 215.573 81.391 213.791 78.994C212.139 76.8681 210.784 74.5625 209.76 72.1308C208.997 70.283 208.579 68.332 208.523 66.3585C208.498 65.1137 208.677 63.8724 209.056 62.676C209.189 62.261 209.361 61.857 209.57 61.4683C209.058 63.0524 208.822 64.6997 208.87 66.3504C208.984 68.2779 209.44 70.176 210.22 71.971C211.277 74.3448 212.648 76.5927 214.301 78.6652C216.088 81.0048 218.424 83.3137 220.802 85.9094C223.45 88.6177 225.697 91.6304 227.486 94.8705C229.44 98.5554 229.956 102.737 228.948 106.725C227.914 110.854 225.484 114.668 222.763 118.279C220.022 121.9 217.083 125.235 214.554 128.637C212.019 131.816 210.106 135.371 208.901 139.143C208.724 140.058 208.459 140.952 208.359 141.852C208.323 142.757 208.285 143.649 208.246 144.528C208.363 146.242 208.696 147.937 209.24 149.58C210.286 152.784 211.726 155.649 212.79 158.363C215.105 163.767 215.004 168.765 213.696 171.795C213.22 172.969 212.488 174.044 211.544 174.954C211.303 175.19 211.042 175.409 210.763 175.607C210.58 175.745 210.479 175.81 210.473 175.798Z" fill="#455A64"/>
<path d="M34.2409 204.139C33.9475 203.742 33.7202 203.307 33.5663 202.848C33.1212 201.521 33.0348 200.115 33.3144 198.751C33.7617 196.602 34.7041 194.564 36.0795 192.772C37.5919 190.64 39.7138 188.487 41.477 185.796C43.3032 182.808 44.2612 179.444 44.26 176.023C44.2186 172.072 43.8964 168.127 43.2952 164.214C42.8533 160.059 42.4778 155.52 43.871 151.017C45.4105 146.43 48.2163 142.28 52.0201 138.964C55.7416 135.673 59.6825 132.594 63.8204 129.745C67.6204 127.08 71.2113 124.176 74.567 121.055C80.9911 115.119 85.687 108.741 87.7234 102.707C88.6469 100.003 89.2242 97.2106 89.4438 94.3859C89.5681 92.2461 89.5219 90.1009 89.3055 87.9672C89.2043 87.0992 89.1129 86.3207 89.0312 85.6316L88.7276 83.9322L88.56 82.8812C88.5313 82.7619 88.5222 82.6393 88.533 82.5176C88.5881 82.6276 88.6259 82.7442 88.6455 82.8638C88.7141 83.1445 88.7995 83.4846 88.9007 83.9005C89.0132 84.3809 89.1402 84.9433 89.2898 85.5937C89.394 86.2835 89.5132 87.0634 89.6474 87.9334C89.9293 90.0819 90.0263 92.2472 89.9375 94.4094C89.7699 97.281 89.2275 100.124 88.3216 102.879C86.3324 109.042 81.5995 115.565 75.1573 121.576C71.7917 124.734 68.1843 127.671 64.3624 130.365C60.2612 133.201 56.3514 136.26 52.6543 139.525C48.954 142.745 46.2188 146.772 44.7087 151.226C43.3537 155.553 43.6888 159.998 44.1094 164.133C44.6941 168.079 44.9893 172.057 44.9932 176.039C44.9625 179.564 43.9371 183.023 42.0156 186.083C40.1703 188.825 38.0203 190.94 36.4933 193.018C35.1158 194.749 34.1475 196.723 33.6495 198.812C33.3445 200.131 33.3733 201.495 33.7338 202.802C34.0104 203.69 34.287 204.12 34.2409 204.139Z" fill="#455A64"/>
<path d="M122.581 229.638C124.138 227.735 125.486 225.697 126.606 223.554C129.167 218.599 130.193 213.101 129.573 207.654C128.953 202.206 126.711 197.017 123.088 192.646C119.641 188.589 115.929 184.724 111.973 181.071C107.914 177.104 103.854 172.549 101.318 166.993C99.9945 164.17 99.3062 161.134 99.2944 158.064C99.3577 154.887 100.292 151.774 102.013 149.01C105.464 143.431 110.571 139.253 114.066 134.339C115.839 131.977 117.085 129.32 117.733 126.52C118.264 123.816 118.302 121.051 117.845 118.336C116.866 113.296 115.108 108.407 112.624 103.816C110.47 99.7722 108.556 95.6261 106.889 91.3956C103.853 83.5367 104.718 76.3867 106.844 72.2011C107.604 70.5574 108.683 69.0516 110.028 67.7554C110.485 67.2992 110.988 66.8822 111.53 66.5098C111.566 66.5456 111.03 66.9595 110.161 67.866C108.892 69.187 107.878 70.6948 107.162 72.3251C105.173 76.4799 104.414 83.4824 107.486 91.2112C109.186 95.408 111.125 99.5213 113.295 103.534C115.842 108.174 117.647 113.121 118.657 118.227C119.139 121.025 119.108 123.876 118.565 126.664C117.905 129.565 116.624 132.32 114.795 134.77C111.22 139.798 106.127 143.989 102.792 149.399C101.141 152.046 100.243 155.027 100.178 158.071C100.189 161.034 100.85 163.964 102.125 166.69C104.588 172.111 108.547 176.597 112.577 180.563C116.539 184.25 120.25 188.155 123.689 192.255C126.66 195.906 128.707 200.11 129.685 204.567C130.456 208.24 130.479 212.012 129.751 215.693C129.223 218.466 128.269 221.158 126.917 223.689C126.074 225.288 125.059 226.807 123.888 228.225L122.929 229.292C122.829 229.42 122.712 229.536 122.581 229.638Z" fill="#455A64"/>
<path d="M117.947 324.044L147.329 259.611L245.855 300.728L190.868 416.984L90.7437 383.816L117.947 324.044Z" fill="#E8505B"/>
<g opacity="0.3">
<path opacity="0.3" d="M117.947 324.044L147.329 259.611L245.855 300.728L190.868 416.984L90.7437 383.816L117.947 324.044Z" fill="black"/>
</g>
<path d="M245.854 300.729L190.867 416.984L210.633 423.394L264.885 309.041L245.854 300.729Z" fill="#E8505B"/>
<g opacity="0.5">
<path opacity="0.5" d="M245.854 300.729L190.867 416.984L210.633 423.394L264.885 309.041L245.854 300.729Z" fill="black"/>
</g>
<path d="M161.561 264.423L168.297 252.099L260.308 292.766L255.611 303.737L161.561 264.423Z" fill="#E0E0E0"/>
<path d="M151.228 261.239L153.889 255.68L258.879 300.728L256.973 305.584L151.228 261.239Z" fill="#FAFAFA"/>
<path d="M248.21 323.809C248.435 323.896 240.498 341.603 230.478 363.349C220.458 385.096 212.149 402.671 211.924 402.583C211.699 402.495 219.635 384.794 229.658 363.035C239.682 341.276 247.984 323.723 248.21 323.809Z" fill="white"/>
<path d="M157.476 285.834C157.581 285.859 157.683 285.893 157.781 285.937C158.023 286.032 158.324 286.149 158.703 286.295L162.32 287.747L176.012 293.308L224.134 313.039L224.503 313.191L224.34 313.53C218.549 325.609 212.166 338.918 205.461 352.895L205.284 353.264L204.878 353.108L204.751 353.058C180.095 343.492 157.325 334.656 139.129 327.597L138.805 327.472L138.937 327.176C144.554 314.577 149.17 304.213 152.411 296.95C154.01 293.407 155.266 290.623 156.144 288.677C156.56 287.77 156.887 287.06 157.127 286.535C157.228 286.295 157.345 286.061 157.477 285.834C157.477 285.834 157.382 286.118 157.172 286.626C156.948 287.171 156.635 287.91 156.239 288.85L152.65 297.25C149.515 304.498 145.043 314.841 139.606 327.415L139.414 326.994L205.094 352.311L205.221 352.359L204.639 352.571C211.366 338.601 217.771 325.301 223.584 313.236L223.79 313.726L176.099 293.761L162.408 287.977L158.751 286.415L157.802 286C157.689 285.952 157.58 285.897 157.476 285.834Z" fill="white"/>
<path d="M207.07 338.298C206.819 337.902 206.614 337.482 206.458 337.047L204.94 333.435C203.633 330.188 201.845 325.743 199.707 320.435L200.184 320.651L181.75 326.145L181.42 326.248L181.234 325.976L179.666 323.664C177.672 320.713 175.738 317.852 173.932 315.171L174.456 315.33L152.824 322.93L146.491 325.081C145.739 325.367 144.964 325.596 144.171 325.767C144.879 325.399 145.619 325.086 146.383 324.829L152.622 322.473L174.139 314.608L174.476 314.485L174.666 314.768L180.43 323.245C180.966 324.038 181.499 324.824 181.996 325.558L181.48 325.385L199.95 320.002L200.306 319.9L200.427 320.218C202.439 325.565 204.127 330.044 205.36 333.316C205.899 334.818 206.339 336.044 206.679 336.992C206.857 337.414 206.989 337.852 207.07 338.298Z" fill="white"/>
<path d="M189.07 312.706C188.999 312.706 188.969 312.405 188.786 311.914C188.532 311.236 188.049 310.648 187.406 310.234C186.947 309.94 186.416 309.753 185.86 309.689C185.303 309.625 184.737 309.686 184.213 309.868C183.58 310.085 183.035 310.473 182.65 310.98C182.266 311.487 182.06 312.089 182.06 312.705C182.06 313.321 182.266 313.923 182.65 314.43C183.035 314.936 183.58 315.325 184.213 315.542C184.737 315.724 185.303 315.785 185.86 315.721C186.416 315.657 186.947 315.47 187.406 315.176C188.049 314.762 188.532 314.174 188.786 313.496C188.969 313.006 188.999 312.703 189.07 312.704C189.12 312.704 189.214 313.011 189.123 313.571C188.969 314.383 188.495 315.115 187.791 315.631C187.259 316.025 186.625 316.288 185.949 316.395C185.274 316.503 184.58 316.452 183.933 316.246C183.126 315.99 182.426 315.512 181.931 314.877C181.435 314.242 181.169 313.483 181.169 312.704C181.169 311.926 181.435 311.167 181.931 310.532C182.426 309.897 183.126 309.419 183.933 309.163C184.58 308.957 185.274 308.906 185.949 309.013C186.624 309.121 187.258 309.384 187.79 309.777C188.495 310.293 188.969 311.026 189.122 311.837C189.218 312.402 189.123 312.709 189.07 312.706Z" fill="white"/>
<path d="M237.674 297.425C237.674 297.425 230.961 285.536 218.895 289.547C214.145 291.126 203.476 320.439 203.476 320.439L210.383 318.46L214.671 324.968C214.671 324.968 228.405 294.21 230.489 294.476L237.674 297.425Z" fill="#E8505B"/>
<path d="M204.305 362.062C203.317 361.84 202.35 361.549 201.41 361.193L193.638 358.541C187.091 356.268 178.066 353.078 168.12 349.506C158.174 345.934 149.185 342.658 142.707 340.25L135.049 337.362C134.097 337.041 133.174 336.653 132.289 336.2C133.279 336.425 134.25 336.717 135.193 337.074L142.967 339.726C149.516 341.999 158.535 345.188 168.474 348.757C178.414 352.326 187.39 355.599 193.876 358.005C197.008 359.186 199.594 360.162 201.539 360.894C202.492 361.218 203.417 361.609 204.305 362.062Z" fill="white"/>
<path d="M200.28 367.064C199.292 366.843 198.324 366.552 197.386 366.194L189.616 363.544C183.067 361.271 174.043 358.079 164.096 354.508C154.148 350.937 145.162 347.661 138.682 345.254L131.024 342.367C130.074 342.044 129.153 341.657 128.269 341.207C129.26 341.431 130.23 341.723 131.173 342.08C133.145 342.754 135.769 343.648 138.947 344.733C145.496 347.006 154.515 350.195 164.457 353.764C174.398 357.333 183.373 360.603 189.856 363.011L197.518 365.901C198.47 366.224 199.393 366.613 200.28 367.064Z" fill="white"/>
<path d="M198.085 373.776C197.098 373.553 196.13 373.263 195.191 372.906L187.418 370.254C180.869 367.983 171.847 364.791 161.901 361.22C151.955 357.649 142.966 354.372 136.487 351.966L128.83 349.078C127.879 348.758 126.958 348.37 126.075 347.918C127.065 348.143 128.035 348.435 128.977 348.792L136.753 351.444C143.302 353.717 152.319 356.906 162.26 360.475C172.202 364.043 181.176 367.316 187.66 369.722L195.322 372.611C196.275 372.934 197.199 373.323 198.085 373.776Z" fill="white"/>
<path d="M152.193 355.438L167.01 362.221C167.01 362.221 178.817 356.982 184.689 356.189C190.561 355.396 215.869 358.38 215.869 358.38C215.869 358.38 216.504 363.13 211.474 364.555C209.217 365.195 196.754 364.481 196.754 364.481C195.946 365.119 195.33 365.935 194.965 366.851C194.601 367.766 194.499 368.752 194.67 369.714C194.84 370.675 195.278 371.581 195.941 372.345C196.604 373.11 197.471 373.707 198.458 374.081C204.788 376.475 212.139 379.297 213.007 379.811C213.973 380.38 223.087 378.849 229.86 377.603C233.923 376.858 236.851 381.591 233.704 384.046C233.414 384.289 233.054 384.452 232.666 384.516C232.666 384.516 238.758 387.841 228.252 392C228.252 392 224.686 399.461 218.132 399.973C218.132 399.973 210.456 407.003 205.65 408.153C200.844 409.304 169.667 398.465 169.667 398.465L139.334 384.139L152.193 355.438Z" fill="#FFBE9D"/>
<path d="M204.749 408.276C197.856 408.276 169.944 398.603 169.647 398.5L139.275 384.16L139.291 384.127L152.173 355.389L152.215 355.407L167.012 362.18C167.555 361.942 178.983 356.925 184.684 356.155C185.604 356.052 186.532 356.008 187.459 356.022C196.053 356.022 215.652 358.316 215.875 358.344H215.907V358.374C215.907 358.422 216.49 363.175 211.484 364.592C209.284 365.215 197.299 364.551 196.763 364.522C195.963 365.157 195.355 365.967 194.995 366.877C194.635 367.786 194.536 368.764 194.707 369.718C194.878 370.672 195.313 371.57 195.972 372.328C196.631 373.086 197.491 373.678 198.471 374.048C204.625 376.377 212.148 379.261 213.026 379.785C213.758 380.212 219.736 379.432 229.847 377.571C230.136 377.518 230.429 377.491 230.723 377.491C231.546 377.506 232.347 377.731 233.037 378.139C233.727 378.547 234.279 379.123 234.629 379.801C235.041 380.5 235.177 381.307 235.014 382.086C234.85 382.866 234.396 383.57 233.729 384.081C233.459 384.304 233.131 384.463 232.777 384.542C233.271 384.819 233.682 385.202 233.975 385.659C234.269 386.115 234.434 386.63 234.458 387.158C234.34 388.817 232.263 390.457 228.282 392.036C227.582 393.389 226.708 394.661 225.679 395.826C224.115 397.59 221.538 399.745 218.145 400.016C217.808 400.324 210.333 407.076 205.663 408.197C205.363 408.258 205.056 408.284 204.749 408.276ZM139.385 384.12L169.684 398.43C169.976 398.532 197.875 408.199 204.736 408.199C205.038 408.206 205.34 408.178 205.635 408.116C210.369 406.98 218.015 400.015 218.092 399.945L218.104 399.933H218.12C221.494 399.671 224.054 397.525 225.609 395.771C226.639 394.607 227.512 393.334 228.209 391.98L228.216 391.966L228.232 391.96C232.19 390.393 234.254 388.771 234.371 387.145C234.337 386.617 234.162 386.103 233.86 385.65C233.559 385.197 233.14 384.818 232.641 384.547L232.538 384.49L232.656 384.475C233.034 384.411 233.385 384.252 233.668 384.016C234.321 383.517 234.765 382.828 234.926 382.065C235.086 381.303 234.952 380.513 234.548 379.83C234.149 379.039 233.471 378.394 232.621 377.997C231.772 377.6 230.8 377.474 229.863 377.64C223.791 378.755 216.594 379.968 213.937 379.968C213.611 379.995 213.282 379.951 212.978 379.84C212.288 379.43 207.259 377.453 198.436 374.115C197.442 373.739 196.569 373.138 195.902 372.368C195.234 371.599 194.793 370.687 194.621 369.719C194.449 368.751 194.552 367.759 194.919 366.837C195.286 365.915 195.906 365.093 196.719 364.451L196.733 364.44H196.75C196.874 364.449 209.231 365.146 211.455 364.517C212.409 364.278 213.281 363.823 213.99 363.195C214.699 362.566 215.222 361.784 215.509 360.922C215.785 360.111 215.891 359.26 215.823 358.413C214.891 358.302 195.875 356.093 187.456 356.093C186.532 356.08 185.608 356.124 184.691 356.225C178.893 357.008 167.142 362.201 167.024 362.254L167.005 362.263L166.986 362.254L152.209 355.493L139.385 384.12Z" fill="#EB996E"/>
<path d="M195.412 383.255C195.318 383.408 197.11 384.607 200.235 386.258C204.319 388.549 208.936 389.934 213.715 390.302C219.473 390.474 224.261 388.466 227.444 387.018C230.655 385.501 232.498 384.366 232.41 384.211C232.309 384.03 230.274 384.866 226.996 386.138C223.735 387.351 219.079 389.1 213.775 388.931C208.476 388.699 203.928 386.75 200.731 385.399C197.52 383.988 195.523 383.079 195.412 383.255Z" fill="#EB996E"/>
<path d="M194.12 390.708C193.982 390.841 195.461 392.209 198.367 393.669C200.065 394.527 201.832 395.266 203.652 395.88C205.916 396.729 208.345 397.15 210.792 397.116C213.178 396.88 215.526 396.393 217.789 395.665L223.233 394.026C226.325 393.063 228.209 392.376 228.15 392.196C228.092 392.016 226.102 392.371 222.932 393.096C221.357 393.455 219.455 393.909 217.387 394.455C215.206 395.082 212.963 395.515 210.691 395.748C208.444 395.763 206.213 395.404 204.108 394.688C202.32 394.144 200.565 393.515 198.85 392.804C195.897 391.604 194.261 390.558 194.12 390.708Z" fill="#EB996E"/>
<path d="M193.395 399.405C193.149 399.917 198.715 401.864 205.551 403.81C206.511 404.065 207.527 404.094 208.502 403.894C209.338 403.774 210.164 403.606 210.976 403.393C212.341 403.046 213.671 402.592 214.95 402.037C217.14 401.078 218.248 400.108 218.13 399.969C218 399.805 216.737 400.449 214.541 401.14C213.259 401.545 211.954 401.887 210.632 402.164C209.861 402.33 209.082 402.462 208.297 402.557C207.551 402.705 206.777 402.688 206.04 402.507C202.566 401.483 199.44 400.712 197.156 400.151C195.939 399.768 194.677 399.517 193.395 399.405Z" fill="#EB996E"/>
<path d="M63.0647 180.878C63.0647 180.878 45.6578 191.088 35.2709 219.24C26.4348 243.185 8.01019 281.828 1.93238 309.363C-2.49694 329.429 7.91911 353.165 35.3294 359.937L139.329 388.414L155.236 352.857L61.8862 309.66L87.4648 256.559L63.0647 180.878Z" fill="#E8505B"/>
<path d="M26.0706 356.741C26.2661 356.766 26.4587 356.807 26.6463 356.863L28.315 357.293L34.7437 359.019L58.5995 365.563L139.459 388.032L138.924 388.263L149.045 365.625C151.004 361.247 152.939 356.923 154.828 352.702L155.042 353.215C135.525 344.417 117.492 335.862 101.674 328.412C85.8625 320.946 72.2417 314.62 61.7784 309.86L61.8234 309.876C58.3509 309.255 54.7591 309.495 51.4231 310.57C48.0553 311.706 44.9895 313.478 42.4272 315.77C41.9155 316.195 41.4343 316.65 40.9868 317.132L40.1299 317.99C40.0377 318.091 39.9345 318.184 39.8218 318.267C39.8941 318.153 39.9797 318.046 40.0771 317.949L40.8844 317.049C41.314 316.549 41.7823 316.077 42.2855 315.637C42.9469 315.004 43.6539 314.413 44.4018 313.867C46.4425 312.291 48.7767 311.061 51.2937 310.236C54.7017 309.092 58.3872 308.815 61.9549 309.434H61.9718L62.001 309.447C72.5149 314.122 86.1773 320.378 102.023 327.789C117.87 335.2 135.922 343.705 155.436 352.486L155.806 352.653L155.65 353.002C153.762 357.224 151.827 361.548 149.87 365.926C146.399 373.677 143.003 381.262 139.737 388.557L139.584 388.896L139.202 388.789L58.4319 366.063L34.6526 359.289L28.2678 357.432L26.6216 356.934C26.4314 356.886 26.2468 356.821 26.0706 356.741Z" fill="#263238"/>
<path d="M91.8672 228.323C92.0047 228.592 92.1055 228.875 92.1675 229.166C92.4275 229.981 92.6244 230.811 92.7567 231.651C93.2667 234.748 93.2754 237.896 92.7826 240.995C92.0038 245.573 90.6555 250.055 88.7637 254.355C86.7092 259.228 84.0723 264.419 81.4253 269.909C76.0571 280.814 71.1993 290.683 67.6201 297.952C65.8535 301.447 64.4041 304.311 63.3471 306.412L62.1427 308.695C62.0188 308.97 61.8595 309.23 61.6682 309.47C61.7325 309.179 61.8368 308.896 61.9786 308.629L63.0243 306.29C64.0229 304.163 65.3857 301.263 67.0421 297.725L80.6089 269.586C83.2582 264.094 85.9176 258.912 87.9968 254.09C89.9023 249.847 91.2973 245.429 92.1573 240.913C92.6966 237.864 92.7821 234.763 92.4115 231.693C92.299 230.602 92.1045 229.771 91.9921 229.202C91.9107 228.915 91.8688 228.62 91.8672 228.323Z" fill="#263238"/>
<path d="M45.0281 240.832C45.4614 242.453 45.7993 244.095 46.0401 245.749C47.5976 253.649 50.3475 261.314 54.2117 268.528C55.0903 269.991 55.883 271.495 56.5866 273.035C56.5338 273.062 56.22 272.677 55.6971 271.953C55.1743 271.229 54.4602 270.15 53.6517 268.788C49.4334 261.645 46.6443 253.875 45.4149 245.842C45.19 244.306 45.0573 243.055 45.0157 242.186C44.943 241.737 44.9472 241.28 45.0281 240.832Z" fill="#FAFAFA"/>
<path d="M51.4443 260.889C52.4158 259.482 53.3006 258.027 54.0948 256.531C55.8339 252.86 56.2664 248.785 55.3317 244.878L55.2361 244.481L56.0311 244.619C53.5531 247.812 52.0164 251.532 51.568 255.422C51.2307 258.403 51.568 260.264 51.4072 260.279C51.216 259.87 51.1052 259.433 51.08 258.989C50.9065 257.791 50.8624 256.581 50.9484 255.376C51.2235 251.336 52.7331 247.446 55.3069 244.146L55.8883 243.405L56.102 244.282L56.2032 244.697C57.1938 248.763 56.6552 253.014 54.6739 256.768C54.0862 257.891 53.3572 258.949 52.5014 259.919C51.8795 260.594 51.4837 260.922 51.4443 260.889Z" fill="#FAFAFA"/>
<path d="M46.2525 254.803C45.7252 254.718 45.2169 254.554 44.748 254.318C43.424 253.774 42.1533 253.13 40.9495 252.39C39.1512 251.298 37.4875 250.033 35.9872 248.616C35.0983 247.78 34.2697 246.893 33.5066 245.96C33.0834 245.463 32.6955 244.943 32.345 244.402C32.1256 244.085 31.9852 243.728 31.9337 243.356C31.8823 242.985 31.9209 242.607 32.047 242.251C32.1521 242.05 32.3071 241.875 32.4996 241.739C32.692 241.603 32.9167 241.51 33.1557 241.467C33.5793 241.406 34.013 241.458 34.405 241.616C35.0409 241.893 35.6391 242.237 36.1873 242.641C37.2114 243.339 38.1853 244.095 39.1031 244.907C40.6566 246.277 42.037 247.801 43.2187 249.451C44.0177 250.555 44.7103 251.721 45.2889 252.934C45.5421 253.363 45.7143 253.829 45.7983 254.31C45.6521 254.373 44.7941 252.454 42.6992 249.775C41.4735 248.21 40.0798 246.76 38.5386 245.448C37.6314 244.674 36.6747 243.951 35.6734 243.281C35.1805 242.924 34.6462 242.617 34.0801 242.366C33.5302 242.151 33.0433 242.237 32.86 242.591C32.7985 242.834 32.7915 243.087 32.8392 243.333C32.8869 243.58 32.9884 243.815 33.1377 244.025C33.4644 244.529 33.8238 245.016 34.2139 245.481C34.9469 246.397 35.7404 247.27 36.5899 248.098C38.0274 249.504 39.6089 250.782 41.3127 251.916C44.2319 253.857 46.3223 254.67 46.2525 254.803Z" fill="#FAFAFA"/>
<path d="M48.5577 267.898C48.1762 268.097 47.7562 268.226 47.3208 268.28C46.1458 268.513 44.9429 268.607 43.7416 268.561C39.6603 268.423 35.7807 266.909 32.8566 264.312L32.3079 263.82L33.0365 263.638L34.2071 263.346C38.4659 262.488 42.9238 263.172 46.6393 265.253C47.7461 265.87 48.7574 266.619 49.6462 267.48C50.2545 268.103 50.5334 268.487 50.4907 268.52C49.1821 267.5 47.7876 266.575 46.32 265.754C42.6959 263.915 38.4605 263.342 34.4061 264.142L33.3041 264.416L33.4841 263.742C36.268 266.207 39.9053 267.715 43.7742 268.008C45.3696 268.061 46.9672 268.024 48.5577 267.898Z" fill="#FAFAFA"/>
<path d="M57.5557 348.462C57.9573 348.195 58.4018 347.984 58.8736 347.84C59.7428 347.482 61.0258 347.02 62.6349 346.514C71.0598 343.883 79.9318 342.64 88.8353 342.842C90.5366 342.889 91.913 342.973 92.8587 343.077C93.3564 343.085 93.8495 343.164 94.3205 343.311C92.4943 343.434 90.6621 343.468 88.8319 343.414C80.0216 343.531 71.2715 344.758 62.8306 347.06C61.1011 347.613 59.3402 348.081 57.5557 348.462Z" fill="#FAFAFA"/>
<path d="M80.0971 344.618C80.0233 345.071 79.8627 345.509 79.6226 345.912C79.0592 347.045 78.3532 348.115 77.5187 349.101C74.7369 352.406 70.8161 354.764 66.3863 355.795L65.9365 355.898L64.9807 356.121L65.4429 355.314C67.5116 351.731 70.6394 348.747 74.4725 346.698C75.6142 346.084 76.8194 345.573 78.0708 345.173C78.5177 344.993 78.9957 344.886 79.4832 344.856C79.5416 344.994 77.5637 345.559 74.8008 347.182C71.1931 349.301 68.2436 352.229 66.2356 355.685L65.742 355.101L66.1715 354.998C70.4204 353.994 74.2174 351.803 77.0296 348.733C78.1359 347.415 79.16 346.041 80.0971 344.618Z" fill="#FAFAFA"/>
<path d="M71.794 343.147C71.6961 343.264 69.9554 341.933 66.7338 340.433C64.8535 339.559 62.8862 338.85 60.8584 338.316C59.6644 338.001 58.4508 337.751 57.2241 337.568C56.5921 337.461 55.9538 337.389 55.3125 337.35C55.0385 337.324 54.7615 337.348 54.4979 337.421C54.2343 337.494 53.9893 337.614 53.7776 337.775C53.5133 338.082 53.6494 338.517 54.1149 338.868C54.6154 339.215 55.1566 339.511 55.7285 339.75C58.7251 341.129 61.9428 342.068 65.2619 342.53C68.8343 343.023 71.1013 342.854 71.1092 343.001C70.6006 343.148 70.0685 343.218 69.5349 343.206C68.0847 343.284 66.6298 343.247 65.1865 343.096C63.0377 342.881 60.922 342.448 58.8793 341.803C57.6701 341.425 56.4888 340.975 55.3428 340.458C54.7002 340.194 54.0934 339.863 53.5347 339.472C53.2027 339.225 52.956 338.896 52.824 338.524C52.7587 338.311 52.7487 338.086 52.7948 337.869C52.8408 337.651 52.9417 337.446 53.0894 337.27C53.3824 337.005 53.7358 336.802 54.1245 336.676C54.5132 336.55 54.9276 336.503 55.3383 336.539C56.027 336.579 56.7121 336.66 57.3894 336.78C58.6487 336.979 59.8924 337.253 61.1125 337.599C63.1777 338.179 65.1683 338.959 67.0498 339.927C68.3164 340.571 69.5203 341.312 70.6481 342.143C71.4353 342.734 71.8277 343.109 71.794 343.147Z" fill="#FAFAFA"/>
<path d="M85.6634 339.106C85.0681 337.756 84.382 336.441 83.6089 335.168C81.5725 332.156 78.452 329.881 74.7795 328.73L75.3575 328.281C75.4317 328.603 75.5104 328.951 75.5892 329.305C76.6361 332.961 79.1099 336.145 82.5474 338.26C84.0162 339.081 85.5532 339.796 87.1443 340.398C86.6668 340.406 86.192 340.332 85.7443 340.18C84.4994 339.849 83.309 339.367 82.2056 338.746C78.4878 336.667 75.8037 333.352 74.7211 329.503C74.6367 329.131 74.5569 328.764 74.4793 328.42L74.3286 327.747L75.0573 327.97C78.9217 329.174 82.1574 331.642 84.1363 334.897C84.7234 335.853 85.1739 336.874 85.4767 337.934C85.6207 338.31 85.684 338.708 85.6634 339.106Z" fill="#FAFAFA"/>
<path d="M75.6983 246.701C76.4314 245.376 77.0096 243.985 77.4232 242.55C77.8382 240.821 77.8381 239.03 77.4229 237.3C77.0078 235.571 76.1874 233.943 75.018 232.529L75.6926 232.553L75.5577 232.692C74.1301 234.163 73.2074 235.983 72.9039 237.927C72.6792 239.523 72.8861 241.145 73.5067 242.652C74.0932 244.062 74.8271 245.418 75.6983 246.701C75.6398 246.779 74.1026 245.548 72.9152 242.851C72.1677 241.271 71.8833 239.541 72.0898 237.831C72.368 235.723 73.346 233.742 74.8931 232.153L75.0404 232.002L75.3879 231.643L75.7151 232.025C77.1171 233.673 78.0226 235.626 78.3419 237.691C78.614 239.357 78.5091 241.057 78.0338 242.685C77.7271 243.774 77.2297 244.812 76.5607 245.758C76.0772 246.417 75.7376 246.73 75.6983 246.701Z" fill="#FAFAFA"/>
<path d="M113.754 361.348C114.487 360.024 115.066 358.632 115.481 357.198C115.896 355.468 115.895 353.677 115.48 351.947C115.064 350.217 114.243 348.59 113.074 347.176L113.748 347.2L113.613 347.339C112.186 348.809 111.263 350.629 110.96 352.572C110.735 354.168 110.942 355.79 111.562 357.297C112.148 358.708 112.882 360.064 113.752 361.347C113.693 361.424 112.158 360.194 110.969 357.497C110.223 355.916 109.939 354.187 110.143 352.477C110.422 350.369 111.4 348.389 112.947 346.8L113.094 346.648L113.444 346.29L113.771 346.672C115.172 348.32 116.077 350.273 116.398 352.337C116.669 354.003 116.564 355.703 116.089 357.331C115.782 358.42 115.285 359.458 114.616 360.404C114.132 361.064 113.794 361.377 113.754 361.348Z" fill="#FAFAFA"/>
<path d="M20.8832 306.358C20.7989 306.218 23.5325 305.082 27.566 302.759C29.9221 301.422 31.9937 299.708 33.681 297.7C35.761 295.282 36.7373 292.226 36.4067 289.168C35.9659 288.861 37.0061 289.578 36.8936 289.507H36.8835H36.8632L36.8216 289.513L36.7396 289.522L36.5731 289.544L36.2425 289.585C36.0176 289.608 35.8051 289.653 35.5881 289.687C35.154 289.758 34.7279 289.852 34.3062 289.956C33.477 290.158 32.6659 290.417 31.8795 290.731C27.8114 292.329 24.555 295.267 22.7611 298.957C21.7876 301.124 21.2051 303.42 21.0362 305.756C20.8835 305.128 20.8455 304.482 20.9237 303.842C21.024 302.087 21.449 300.359 22.1809 298.732C23.2617 296.291 24.9889 294.131 27.2085 292.446C28.5148 291.449 29.9702 290.626 31.531 290.002C32.3539 289.667 33.2039 289.39 34.0734 289.174C34.5153 289.064 34.9629 288.963 35.4228 288.888C35.6477 288.852 35.8804 288.804 36.1121 288.779L36.4596 288.735L36.6338 288.713L36.7216 288.704L36.7665 288.698H36.789H36.7991C36.6979 288.62 37.7313 289.356 37.2939 289.049C37.6595 292.316 36.6006 295.583 34.3455 298.145C32.5732 300.2 30.3882 301.931 27.9068 303.243C26.27 304.137 24.5766 304.942 22.8353 305.654C22.2163 305.956 21.5614 306.192 20.8832 306.358Z" fill="#FAFAFA"/>
</svg>
