<svg width="245" height="44" viewBox="0 0 245 44" fill="none" xmlns="http://www.w3.org/2000/svg">
<g clip-path="url(#clip0)">
<path d="M19.1823 37.3658C24.1744 37.3963 28.9755 35.4848 32.5345 32.0498C36.0935 28.6147 38.1205 23.9359 38.1718 19.0376L31.5189 18.9838C31.499 21.3478 30.7651 23.6529 29.4101 25.6077C28.0551 27.5624 26.1398 29.079 23.9064 29.9656C21.673 30.8523 19.2218 31.0691 16.8627 30.5888C14.5037 30.1085 12.3428 28.9525 10.6533 27.2672C8.96381 25.5818 7.82158 23.4426 7.37106 21.1202C6.92055 18.7979 7.18199 16.3966 8.12231 14.22C9.06264 12.0434 10.6396 10.1893 12.6538 8.89215C14.6681 7.59501 17.0291 6.91307 19.4383 6.93258C19.972 6.9369 20.868 6.94415 20.868 6.94415C22.2686 4.84904 23.9808 2.97132 25.9477 1.37336C23.8661 0.659646 21.6802 0.281854 19.4753 0.254693C16.992 0.235814 14.5292 0.697073 12.2275 1.61214C9.92584 2.5272 7.83038 3.87814 6.06079 5.58784C4.29119 7.29753 2.88211 9.33249 1.914 11.5765C0.94589 13.8206 0.437709 16.2297 0.418469 18.6665C0.399229 21.1032 0.869312 23.5198 1.80187 25.7783C2.73443 28.0368 4.11121 30.093 5.85359 31.8294C7.59598 33.5658 9.66984 34.9484 11.9568 35.8983C14.2437 36.8483 16.699 37.3469 19.1823 37.3658Z" fill="#00D647"/>
<path d="M40.0812 0.552189C35.0891 0.521654 30.2881 2.43315 26.7291 5.86823C23.17 9.3033 21.143 13.9821 21.0918 18.8803L27.7256 18.9341C27.7492 16.5717 28.4858 14.2692 29.8422 12.3173C31.1987 10.3654 33.1141 8.85175 35.3468 7.96742C37.5794 7.0831 40.029 6.86779 42.3862 7.3487C44.7435 7.82961 46.9026 8.98516 48.591 10.6694C50.2794 12.3537 51.4212 14.4911 51.8723 16.8117C52.3235 19.1324 52.0637 21.5321 51.1257 23.708C50.1877 25.8838 48.6137 27.7381 46.6024 29.0367C44.5911 30.3353 42.2327 31.0199 39.8251 31.0041C39.2914 30.9998 38.3954 30.9925 38.3954 30.9925C36.995 33.0878 35.2828 34.9656 33.3156 36.5633C35.4002 37.2243 37.5796 37.5514 39.7702 37.5322C44.7678 37.5727 49.5772 35.6634 53.1402 32.2245C56.7032 28.7856 58.728 24.0986 58.7693 19.1948C58.8105 14.2909 56.8648 9.57184 53.3601 6.07568C49.8554 2.57951 45.0788 0.592654 40.0812 0.552189" fill="#FFCB01"/>
</g>
<path d="M86.834 27.7083C85.9675 28.1486 85.0324 28.3468 84.029 28.3468C82.0906 28.3468 81.1328 27.4 81.1328 25.4624V15.6644H88.0427V10.4461H81.1328V3.04806H74.9299V10.4461H70.9618V15.6644H74.9299V25.4624C74.9299 28.0165 75.5912 30.0202 76.9139 31.4513C78.2366 32.9045 80.1978 33.6091 82.8204 33.6091C84.622 33.6091 86.4692 33.2568 88.3392 32.5302L86.834 27.7083Z" fill="#222221"/>
<path d="M101.68 33.8953C104.918 33.8953 107.45 32.7504 109.274 30.4605V33.2568H115.5V10.4461H109.274V13.1984C107.45 10.9525 104.918 9.8076 101.68 9.8076C98.3733 9.8076 95.5911 10.9525 93.3563 13.2424C91.1214 15.5323 90.0039 18.3946 90.0039 21.8515C90.0039 25.2863 91.1214 28.1486 93.3563 30.4385C95.5911 32.7504 98.3733 33.8953 101.68 33.8953ZM102.752 28.567C100.813 28.567 99.2171 27.9505 97.9857 26.6734C96.7314 25.4184 96.1157 23.7891 96.1157 21.8074C96.1157 19.8698 96.7314 18.2625 97.9857 17.0075C99.2171 15.7745 100.813 15.136 102.752 15.136C104.645 15.136 106.241 15.7745 107.541 17.0295C108.818 18.3066 109.479 19.8919 109.479 21.8074C109.479 23.767 108.818 25.3744 107.541 26.6514C106.241 27.9284 104.645 28.567 102.752 28.567Z" fill="#222221"/>
<path d="M135.317 9.8076C132.125 9.8076 129.593 10.9966 127.701 13.3305V10.4461H121.543V33.2568H127.701V21.9836C127.701 19.9799 128.202 18.3726 129.251 17.1616C130.3 15.9727 131.669 15.3561 133.402 15.3561C135.044 15.3561 136.298 15.8626 137.165 16.8754C138.008 17.8882 138.442 19.2754 138.442 21.0368V33.2568H144.622V19.9139C144.622 16.7873 143.824 14.3213 142.227 12.5158C140.631 10.7103 138.328 9.8076 135.317 9.8076Z" fill="#222221"/>
<path d="M168.156 10.4461V13.1103C166.332 10.9085 163.846 9.8076 160.699 9.8076C157.279 9.8076 154.496 10.9085 152.307 13.0663C150.118 15.224 149.023 17.9983 149.023 21.3891C149.023 24.6918 150.118 27.4441 152.33 29.6679C154.542 31.8917 157.324 32.9926 160.699 32.9926C163.824 32.9926 166.309 31.8917 168.156 29.6899V32.4421C168.111 34.2256 167.586 35.6788 166.583 36.7797C165.58 37.9026 164.143 38.4531 162.273 38.4531C159.445 38.4531 157.393 37.4623 156.115 35.5027L150.734 37.3522C153.014 41.3595 156.8 43.3631 162.136 43.3631C165.785 43.3631 168.727 42.3503 170.962 40.3246C173.196 38.2989 174.337 35.6568 174.337 32.4421V10.4461H168.156ZM161.771 27.6202C159.81 27.6202 158.214 27.0477 156.982 25.8808C155.751 24.7358 155.135 23.2386 155.135 21.3891C155.135 19.5616 155.751 18.0644 156.982 16.9194C158.214 15.7745 159.81 15.18 161.771 15.18C163.664 15.18 165.215 15.7745 166.446 16.9194C167.678 18.0644 168.293 19.5616 168.293 21.3891C168.293 23.2386 167.678 24.7358 166.446 25.8808C165.215 27.0477 163.664 27.6202 161.771 27.6202Z" fill="#222221"/>
<path d="M180.38 33.2568H186.537V0.339844H180.38V33.2568Z" fill="#222221"/>
<path d="M204.006 33.8953C206.856 33.8953 209.274 33.2568 211.258 31.9357C213.242 30.6367 214.633 29.1174 215.408 27.4L209.844 25.8147C208.749 27.8404 206.834 28.8312 204.097 28.8312C202.045 28.8312 200.426 28.3688 199.285 27.422C198.122 26.4753 197.438 25.2202 197.233 23.6569H215.591C215.682 23.1726 215.728 22.468 215.728 21.5432C215.728 18.1745 214.633 15.3782 212.444 13.1543C210.254 10.9305 207.29 9.8076 203.527 9.8076C199.855 9.8076 196.868 10.9525 194.587 13.2424C192.307 15.5323 191.167 18.3946 191.167 21.8515C191.167 25.4624 192.353 28.3908 194.724 30.5926C197.096 32.7944 200.197 33.8953 204.006 33.8953ZM197.233 19.9139C197.415 18.5488 198.054 17.3598 199.194 16.347C200.334 15.3561 201.748 14.8497 203.481 14.8497C205.26 14.8497 206.697 15.3341 207.814 16.3029C208.909 17.2717 209.547 18.4827 209.707 19.9139H197.233Z" fill="#222221"/>
<path d="M238.213 0.339844V13.1984C236.389 10.9525 233.858 9.8076 230.619 9.8076C227.313 9.8076 224.53 10.9525 222.295 13.2424C220.061 15.5323 218.943 18.3946 218.943 21.8515C218.943 25.2863 220.061 28.1486 222.295 30.4385C224.53 32.7504 227.313 33.8953 230.619 33.8953C233.835 33.8953 236.366 32.7504 238.213 30.4605V33.2568H244.439V0.339844H238.213ZM231.691 28.567C229.753 28.567 228.156 27.9505 226.925 26.6734C225.671 25.4184 225.055 23.7891 225.055 21.8074C225.055 19.8698 225.671 18.2625 226.925 17.0075C228.156 15.7745 229.753 15.136 231.691 15.136C233.584 15.136 235.18 15.7745 236.48 17.0295C237.757 18.3066 238.419 19.8919 238.419 21.8074C238.419 23.767 237.757 25.3744 236.48 26.6514C235.18 27.9284 233.584 28.567 231.691 28.567Z" fill="#222221"/>
<defs>
<clipPath id="clip0">
<rect width="214.006" height="37.4115" fill="white" transform="translate(0.427124 0.339844)"/>
</clipPath>
</defs>
</svg>
