<svg width="278" height="376" viewBox="0 0 278 376" fill="none" xmlns="http://www.w3.org/2000/svg">
<path d="M244.546 205.161C244.546 205.161 277.179 261.378 277.9 278.629C278.621 295.879 257.739 292.047 246.944 276.476C236.149 260.906 218.868 216.72 218.868 216.72L244.546 205.161Z" fill="white"/>
<path d="M250.652 209.854C250.652 209.854 241.293 225.015 218.862 234.276C214.225 236.19 210.31 231.128 207.401 225.121C205.148 220.182 203.366 215.076 202.074 209.858C202.074 209.858 176.365 137.387 199.028 139.985C199.028 139.985 218.315 141.214 232.482 166.655C236.193 173.291 241.985 186.67 246.823 199.366C248.205 202.982 249.5 206.523 250.652 209.854Z" fill="#672ED6"/>
<path d="M250.653 209.854C250.653 209.854 241.294 225.015 218.863 234.276C214.226 236.19 210.311 231.128 207.402 225.121C222.301 219.023 235.706 210.264 246.823 199.362C248.205 202.978 249.501 206.523 250.653 209.854Z" fill="#BA97FF"/>
<path d="M204.879 364.178C190.628 378.909 96.7925 376.748 61.3703 371.261C55.1474 370.298 49.001 368.118 58.8245 348.39C62.5049 341.027 60.9126 322.043 60.2863 295.971C59.0494 244.433 42.2609 158.918 62.9727 149.11C75.3802 143.221 101.74 135.451 120.883 130.15C122.027 129.856 123.144 129.536 124.238 129.246C135.405 126.211 143.386 124.194 143.386 124.194C143.386 124.194 152.635 125.416 171.437 130.491C172.455 130.762 173.525 131.058 174.619 131.352C179.519 132.71 184.964 134.298 191.036 136.176C202.807 139.822 211.438 142.06 213.566 145.611C219.173 154.971 217.018 171.569 217.378 195.507C217.837 225.529 217.472 351.162 204.879 364.178Z" fill="#672ED6"/>
<path d="M174.63 131.349C174.209 137.464 171.238 143.202 166.326 147.387C162.548 150.661 157.806 152.864 152.679 153.727C147.552 154.591 142.259 154.078 137.446 152.252C132.632 150.425 128.505 147.364 125.567 143.439C122.629 139.515 121.007 134.897 120.897 130.148C122.041 129.854 123.157 129.534 124.251 129.244C135.419 126.209 143.4 124.192 143.4 124.192C143.4 124.192 152.649 125.414 171.45 130.489C172.468 130.761 173.536 131.058 174.63 131.349Z" fill="white"/>
<path d="M116.057 37.9761C116.057 37.9761 104.035 38.9881 99.2518 57.477C94.3569 76.3878 119.67 107.459 129.23 105.662C129.23 105.662 141.815 46.0819 116.057 37.9761Z" fill="black"/>
<path d="M193.557 53.5712C192.264 56.2468 190.272 58.5844 188.65 61.1053C187.029 63.6262 185.745 66.4955 186.104 69.4026C185.791 64.6905 182.35 60.7171 179.401 56.8348C176.453 52.9524 173.758 48.2384 175.16 43.6902C176.509 39.3224 185.178 32.4581 190.432 35.2833C196.296 38.4332 195.852 48.8212 193.557 53.5712Z" fill="black"/>
<path d="M171.396 77.8434L169.082 118.553L168.407 130.173C168.12 135.045 165.741 139.618 161.784 142.905C157.826 146.192 152.609 147.929 147.258 147.742C141.906 147.555 136.85 145.457 133.182 141.903C129.514 138.349 127.527 133.623 127.65 128.746L128.224 108.018L129.191 73.5862L171.396 77.8434Z" fill="white"/>
<path d="M171.396 85.9737L169.083 124.306C149.292 125.033 134.843 117.701 128.229 107.938L129.196 81.7092L171.396 85.9737Z" fill="white"/>
<path d="M187.104 54.4427C187.945 63.7526 187.751 73.1161 186.525 82.3904C184.149 99.362 185.007 119.303 157.533 120.631C128.228 122.048 118.524 92.1751 118.524 92.1751C118.524 92.1751 102.957 89.5333 101.892 79.9514C100.827 70.3695 111.711 69.8153 115.259 72.5094C115.259 72.5094 119.281 36.7766 155.529 36.7766C187.533 36.7756 187.104 54.4427 187.104 54.4427Z" fill="white"/>
<path d="M153.568 80.0732C153.568 80.5962 153.398 81.1074 153.079 81.5422C152.76 81.977 152.306 82.3159 151.776 82.516C151.246 82.7161 150.662 82.7685 150.099 82.6665C149.536 82.5645 149.019 82.3126 148.613 81.9429C148.207 81.5731 147.931 81.102 147.819 80.5891C147.707 80.0762 147.764 79.5445 147.984 79.0614C148.204 78.5783 148.576 78.1653 149.053 77.8748C149.53 77.5843 150.091 77.4292 150.665 77.4292C151.435 77.4295 152.173 77.7081 152.717 78.2039C153.262 78.6997 153.567 79.3721 153.568 80.0732V80.0732Z" fill="#561E15" stroke="black"/>
<path d="M181.608 78.7272C181.608 79.2506 181.438 79.7623 181.119 80.1977C180.8 80.6331 180.347 80.9725 179.816 81.1731C179.286 81.3738 178.702 81.4265 178.138 81.3247C177.575 81.2229 177.057 80.9712 176.65 80.6013C176.244 80.2315 175.967 79.7601 175.855 79.2468C175.742 78.7336 175.8 78.2015 176.019 77.7179C176.239 77.2342 176.611 76.8208 177.088 76.5298C177.566 76.2389 178.127 76.0835 178.702 76.0833C179.083 76.083 179.461 76.1512 179.813 76.2839C180.166 76.4166 180.486 76.6113 180.756 76.8569C181.026 77.1024 181.24 77.3939 181.386 77.7149C181.532 78.0358 181.607 78.3798 181.608 78.7272V78.7272Z" fill="#561E15" stroke="black"/>
<path d="M139.212 72.5083C139.212 72.5083 143.511 66.0548 152.686 68.3821" stroke="black" stroke-linecap="round" stroke-linejoin="round"/>
<path d="M168.482 68.2777C168.482 68.2777 175.102 62.774 181.607 68.8052" stroke="black" stroke-linecap="round" stroke-linejoin="round"/>
<path d="M162.675 74.8389C162.675 74.8389 165.811 82.1395 168.483 86.6877C171.154 91.2359 163.256 93.2437 163.256 93.2437" stroke="black" stroke-width="0.75" stroke-linecap="round" stroke-linejoin="round"/>
<path d="M152.155 101.41C152.155 101.41 158.631 107.134 166.95 103.632" stroke="black" stroke-width="0.75" stroke-linecap="round" stroke-linejoin="round"/>
<path d="M114.767 83.0298C114.767 83.0298 114.67 74.8143 107.943 77.0567" stroke="black" stroke-width="0.75" stroke-linecap="round" stroke-linejoin="round"/>
<path d="M123.654 44.8381C123.654 44.8381 140.128 60.1288 131.112 65.981C125.216 69.7149 121.075 75.3291 119.507 81.7122C119.507 81.7122 119.714 78.4701 115.26 72.5072C110.806 66.5444 101.067 45.4046 123.654 44.8381Z" fill="black"/>
<path d="M118.568 45.8594C113.045 38.0558 117.094 23.3234 134.359 20.8649C151.624 18.4065 163.483 21.8196 169.93 11.2359C176.376 0.652228 195.875 -6.18435 201.519 9.41565C207.163 25.0157 193.995 48.5329 177.371 47.8159C160.746 47.0988 161.515 45.214 150.973 50.8767C140.431 56.5394 127.575 58.584 118.568 45.8594Z" fill="black"/>
<path d="M33.4855 208.183C33.4855 208.183 0.852019 264.4 0.131228 281.653C-0.589562 298.905 20.2875 295.064 31.0859 279.501C41.8842 263.938 59.1619 219.743 59.1619 219.743L33.4855 208.183Z" fill="white"/>
<path d="M266.13 259.61C266.13 259.61 217.48 226.831 214.741 224.967C210.036 221.769 203.186 217.133 200.712 215.555C196.799 213.055 173.892 209.446 170.713 209.908C167.534 210.369 158.755 211.741 156.188 212.607C153.622 213.472 156.863 216.469 159.393 217.884C161.923 219.3 173.171 224.597 182.686 226.181C187.621 227.168 192.253 229.142 196.248 231.96C199.205 233.901 250.524 281.553 252.46 282.718L266.13 259.61Z" fill="white"/>
<path d="M205.899 219.384C205.899 219.384 187.57 203.776 184.852 204.004C182.135 204.232 184.065 207.75 191.268 213.091C193.701 214.893 196.328 217.763 198.522 218.696C200.785 219.802 203.437 220.049 205.899 219.384V219.384Z" fill="white"/>
<path d="M191.342 277.037L124.566 284.31C123.668 284.408 122.757 284.304 121.913 284.009C121.068 283.713 120.316 283.234 119.721 282.614C119.126 281.993 118.706 281.249 118.498 280.447C118.29 279.645 118.3 278.809 118.528 278.012L134.495 222.138C134.777 221.154 135.377 220.27 136.219 219.601C137.06 218.932 138.104 218.51 139.212 218.39L205.988 211.111C206.887 211.013 207.798 211.117 208.642 211.413C209.487 211.709 210.239 212.188 210.834 212.809C211.429 213.429 211.849 214.173 212.057 214.976C212.264 215.778 212.254 216.614 212.027 217.412L196.059 273.285C195.778 274.27 195.178 275.155 194.336 275.824C193.495 276.494 192.451 276.916 191.342 277.037V277.037Z" fill="#FFF2BC"/>
<path d="M194.308 278.886L127.532 286.158C126.634 286.256 125.723 286.153 124.878 285.857C124.033 285.561 123.281 285.082 122.686 284.461C122.091 283.84 121.671 283.096 121.463 282.294C121.256 281.492 121.266 280.655 121.494 279.858L137.461 223.987C137.743 223.002 138.343 222.118 139.185 221.448C140.026 220.779 141.07 220.357 142.179 220.236L208.956 212.963C209.854 212.865 210.765 212.968 211.61 213.264C212.455 213.56 213.207 214.039 213.802 214.66C214.397 215.281 214.817 216.025 215.025 216.827C215.233 217.63 215.222 218.466 214.994 219.264L199.027 275.134C198.745 276.119 198.144 277.003 197.302 277.673C196.461 278.342 195.417 278.764 194.308 278.886V278.886Z" fill="#FCCB0A"/>
<path d="M144.458 235.578L147.591 224.617C147.664 224.362 147.667 224.094 147.601 223.837C147.534 223.581 147.4 223.343 147.21 223.144C147.019 222.946 146.778 222.792 146.508 222.698C146.238 222.603 145.946 222.57 145.659 222.602L142.445 222.951C142.09 222.991 141.756 223.128 141.488 223.343C141.22 223.559 141.029 223.843 140.94 224.159L137.81 235.12C137.737 235.375 137.733 235.643 137.8 235.899C137.866 236.156 138.001 236.394 138.191 236.593C138.381 236.791 138.622 236.945 138.893 237.039C139.163 237.134 139.454 237.166 139.742 237.135L142.952 236.786C143.307 236.745 143.641 236.608 143.909 236.393C144.178 236.178 144.369 235.894 144.458 235.578V235.578Z" fill="white"/>
<path d="M12.6096 265.02C33.0087 265.744 96.7205 264.551 105.154 261.936C108.776 260.809 117.698 259.108 119.98 255.879C122.296 252.608 124.231 247.61 126.641 247.243C128.495 246.963 128.063 252.371 127.499 254.326C126.476 257.872 125.768 259.704 124.403 261.335C123.945 261.877 139.629 263.926 149.496 261.649C156.263 260.088 155.006 265.02 150.449 267.078C150.449 267.078 152.266 271.38 147.486 272.794C147.486 272.794 148.307 277.565 143.717 277.922C143.23 279.097 141.773 281.235 137.822 282.24C132.061 283.703 122.069 283.695 114.473 283.974C109.975 284.139 23.1741 296.481 7.81706 292.982C1.37043 291.516 5.97741 264.784 12.6096 265.02Z" fill="white"/>
<path d="M71.113 215.73C71.113 215.73 69.6152 220.898 67.4022 226.222C64.9284 232.098 61.555 238.131 58.2456 237.58C58.2456 237.58 13.2092 224.622 14.707 220.424C16.2537 216.426 18.0713 212.519 20.1494 208.725C27.607 194.612 39.4421 176.198 44.2222 169.063C60.5204 144.693 67.2009 147.789 67.2009 147.789C90.0312 146.792 71.113 215.73 71.113 215.73Z" fill="#672ED6"/>
<path d="M67.3986 226.222C64.9247 232.098 61.5513 238.131 58.2419 237.58C58.2419 237.58 13.2052 224.622 14.7031 220.424C16.2498 216.426 18.0674 212.519 20.1455 208.725C28.4386 212.294 50.8124 221.659 67.3986 226.222Z" fill="#BA97FF"/>
</svg>
