<svg width="520" height="379" viewBox="0 0 520 379" fill="none" xmlns="http://www.w3.org/2000/svg">
<path d="M422.004 233.129C422.004 233.129 449.718 213.585 450.451 207.994C451.828 197.463 456.059 189.193 481.417 182.223C481.417 182.223 483.388 185.583 479.853 189.231C477.928 191.36 475.596 193.168 472.965 194.57C472.965 194.57 479.665 196.856 489.668 189.885C499.67 182.915 503.872 176.868 508.078 178.338C508.078 178.338 513.033 174.316 515.391 174.962C515.878 175.097 516.29 175.389 516.548 175.781C516.806 176.173 516.891 176.637 516.786 177.082C520.694 176.541 519.904 186.607 512.953 194.786C502.961 206.555 490.48 216.683 480.258 220.024C472.586 222.532 440.916 251.345 440.916 251.345L422.004 233.129Z" fill="white"/>
<path d="M336.455 332.839C324.372 336.492 257.272 244.299 257.272 244.299C231.347 217.639 254.616 129.818 278.083 160.608C278.083 160.608 339.122 259.281 345.711 267.226C353.902 277.107 381.129 319.352 336.455 332.839Z" fill="#F9335E"/>
<path d="M260.671 379H84.1274C84.1274 379 70.5603 374.478 82.3651 354.783C86.7851 347.435 84.8754 328.487 84.1274 302.461C82.6337 251.02 62.4614 165.662 87.354 155.872C102.265 149.993 133.942 142.237 156.951 136.945C158.326 136.652 159.671 136.336 160.986 136.041C174.402 133.011 183.992 131 183.992 131C183.992 131 195.109 132.219 217.701 137.285C218.925 137.556 220.21 137.851 221.525 138.143C227.418 139.499 233.957 141.083 241.245 142.958C280.721 153.111 276.299 149.493 281.527 186.803C285.718 216.606 260.671 379 260.671 379Z" fill="#FF335F"/>
<path d="M221.627 139.39C221.118 146.611 217.541 153.386 211.627 158.329C207.079 162.195 201.37 164.797 195.196 165.817C189.023 166.837 182.651 166.231 176.855 164.074C171.06 161.917 166.091 158.302 162.553 153.667C159.016 149.033 157.062 143.58 156.93 137.971C158.308 137.624 159.655 137.25 160.973 136.901C174.415 133.316 184.023 130.937 184.023 130.937C184.023 130.937 195.162 132.38 217.797 138.373C219.023 138.694 220.31 139.043 221.627 139.39Z" fill="white"/>
<path d="M217.734 76.2032L214.951 124.274L214.141 137.997C213.805 143.756 210.944 149.165 206.179 153.053C201.413 156.942 195.126 158.998 188.677 158.777C182.228 158.555 176.136 156.074 171.718 151.871C167.301 147.667 164.913 142.078 165.072 136.313L165.761 111.835L166.927 71.1719L217.734 76.2032Z" fill="white"/>
<path d="M217.734 85.8023L214.951 131.076C191.119 131.932 173.723 123.276 165.76 111.748L166.926 80.772L217.734 85.8023Z" fill="#EAECF2"/>
<path d="M151.106 29.1212C151.106 29.1212 128.252 26.5847 130.871 52.1523C132.903 71.9845 163.056 98.4662 163.056 98.4662C163.056 98.4662 182.118 38.6958 151.106 29.1212Z" fill="#1E1E1E"/>
<path d="M244.415 47.538C242.861 50.6964 240.461 53.455 238.511 56.4338C236.56 59.4126 235.014 62.8003 235.445 66.2306C235.067 60.6626 230.925 55.9722 227.373 51.3863C223.822 46.8004 220.579 41.2344 222.264 35.8632C223.887 30.704 234.324 22.5985 240.65 25.9345C247.712 29.658 247.179 41.9212 244.415 47.538Z" fill="#0E1235"/>
<path d="M236.645 48.5669C237.658 59.5609 237.425 70.6183 235.948 81.5703C233.089 101.612 234.118 125.162 201.042 126.73C165.759 128.401 154.073 93.1234 154.073 93.1234C154.073 93.1234 135.337 90.0056 134.052 78.6899C132.767 67.3743 145.874 66.7178 150.145 69.9016C150.145 69.9016 154.986 27.703 198.632 27.703C237.162 27.7081 236.645 48.5669 236.645 48.5669Z" fill="white"/>
<path d="M195.204 80.772C195.204 81.3899 194.999 81.9939 194.615 82.5076C194.23 83.0213 193.684 83.4217 193.046 83.6582C192.407 83.8946 191.704 83.9565 191.026 83.8359C190.347 83.7154 189.724 83.4179 189.235 82.981C188.746 82.5441 188.414 81.9875 188.279 81.3815C188.144 80.7755 188.213 80.1474 188.478 79.5765C188.742 79.0057 189.19 78.5178 189.765 78.1746C190.34 77.8313 191.016 77.6481 191.708 77.6481C192.167 77.6479 192.622 77.7286 193.046 77.8856C193.47 78.0425 193.855 78.2726 194.18 78.5628C194.505 78.8529 194.762 79.1973 194.938 79.5764C195.114 79.9555 195.204 80.3617 195.204 80.772V80.772Z" fill="#561E15" stroke="black"/>
<path d="M226.809 80.772C226.809 81.3899 226.604 81.9939 226.22 82.5076C225.836 83.0213 225.29 83.4217 224.651 83.6582C224.012 83.8946 223.309 83.9565 222.631 83.8359C221.953 83.7154 221.33 83.4179 220.841 82.981C220.352 82.5441 220.019 81.9875 219.884 81.3815C219.749 80.7755 219.818 80.1474 220.083 79.5765C220.348 79.0057 220.796 78.5178 221.371 78.1746C221.946 77.8313 222.622 77.6481 223.313 77.6481C224.24 77.6481 225.13 77.9772 225.785 78.5631C226.441 79.1489 226.809 79.9435 226.809 80.772V80.772Z" fill="#561E15" stroke="black"/>
<path d="M178.984 69.9019C178.984 69.9019 184.157 62.2786 195.205 65.0315" stroke="black" stroke-width="1.027" stroke-linecap="round" stroke-linejoin="round"/>
<path d="M214.223 64.9028C214.223 64.9028 222.196 58.4094 230.025 65.5278" stroke="black" stroke-width="1.027" stroke-linecap="round" stroke-linejoin="round"/>
<path d="M207.232 72.65C207.232 72.65 211.009 81.2741 214.223 86.6433C217.438 92.0126 207.932 94.3898 207.932 94.3898" stroke="black" stroke-width="0.771" stroke-linecap="round" stroke-linejoin="round"/>
<path d="M194.568 104.031C194.568 104.031 202.365 110.79 212.381 106.655" stroke="black" stroke-width="0.771" stroke-linecap="round" stroke-linejoin="round"/>
<path d="M149.553 82.3251C149.553 82.3251 149.439 72.6246 141.336 75.2737" stroke="black" stroke-width="0.771" stroke-linecap="round" stroke-linejoin="round"/>
<path d="M160.249 37.2239C160.249 37.2239 180.084 55.2835 169.232 62.1919C162.134 66.602 157.147 73.233 155.26 80.772C155.26 80.772 155.511 76.9419 150.15 69.9017C144.789 62.8615 133.057 37.8935 160.249 37.2239Z" fill="#1E1E1E"/>
<path d="M336.455 332.838C350.876 341.226 460.514 236.601 460.514 236.601L441.055 213.862C441.055 213.862 357.697 260.593 345.711 267.229C328.452 276.773 287.944 304.638 336.455 332.838Z" fill="#F9335E"/>
<path d="M278.158 272.007C278.158 272.007 283.063 224.181 282.227 208.996C282.227 208.996 289.208 249.148 289.37 286.254L278.158 272.007Z" fill="#F9335E"/>
<path d="M92.9036 255.707C92.9036 255.707 118.566 157.495 91.1027 158.651C91.1027 158.651 82.1435 159.609 64.6101 183.914C52.3467 200.907 38.9034 230.377 14.4276 278.298C2.8579 300.952 -11.6119 331.604 15.252 333.24C29.7751 334.125 45.0283 327.019 54.0045 312.119C70.4727 284.793 92.9036 255.707 92.9036 255.707Z" fill="#F9335E"/>
<path d="M115 366.423L254.72 337C254.72 337 210.772 366.423 115 366.423Z" fill="#1A4A4C"/>
<path d="M78.3601 275.441C78.3601 275.441 100.912 239.759 112.887 222.373L84.7428 358.834C84.7428 358.834 82.0051 303.097 78.3601 275.441Z" fill="#FF335F"/>
<path d="M168.209 321.917L84.636 356.79L88.9327 320.93L168.209 321.917Z" fill="#FF335F"/>
<path d="M219.436 325.846H190.113C188.714 325.846 187.332 325.571 186.065 325.041C184.798 324.51 183.677 323.738 182.781 322.777C181.886 321.817 181.237 320.692 180.882 319.483C180.526 318.274 180.473 317.01 180.725 315.78L194.517 248.467C194.919 246.504 196.078 244.729 197.794 243.452C199.509 242.174 201.672 241.474 203.905 241.474H233.228C234.628 241.473 236.01 241.747 237.277 242.277C238.545 242.807 239.666 243.579 240.562 244.54C241.458 245.5 242.107 246.625 242.462 247.834C242.817 249.044 242.87 250.308 242.617 251.538L228.825 318.853C228.423 320.816 227.263 322.59 225.548 323.868C223.832 325.146 221.67 325.846 219.436 325.846V325.846Z" fill="#1E1E1E"/>
<path d="M223.079 328.692H193.756C192.357 328.693 190.974 328.419 189.707 327.889C188.439 327.359 187.318 326.587 186.422 325.626C185.526 324.666 184.877 323.541 184.522 322.332C184.167 321.122 184.114 319.858 184.367 318.628L198.159 251.314C198.562 249.352 199.722 247.577 201.437 246.3C203.152 245.023 205.315 244.323 207.548 244.323H236.871C238.27 244.322 239.653 244.596 240.92 245.126C242.188 245.656 243.309 246.428 244.205 247.389C245.101 248.349 245.749 249.474 246.104 250.683C246.46 251.893 246.512 253.157 246.259 254.387L232.467 321.7C232.065 323.663 230.905 325.437 229.19 326.715C227.474 327.992 225.312 328.692 223.079 328.692V328.692Z" fill="#1E1E1E"/>
<path d="M207.163 269.909H201.911C201.643 269.909 201.379 269.856 201.136 269.755C200.894 269.653 200.68 269.505 200.509 269.321C200.338 269.137 200.214 268.921 200.147 268.69C200.079 268.458 200.07 268.217 200.119 267.981L203.486 251.545C203.562 251.17 203.784 250.83 204.112 250.586C204.439 250.341 204.853 250.208 205.28 250.208H210.529C210.797 250.207 211.062 250.26 211.304 250.362C211.547 250.463 211.761 250.611 211.933 250.795C212.104 250.979 212.228 251.195 212.295 251.426C212.363 251.658 212.372 251.9 212.323 252.135L208.954 268.572C208.878 268.947 208.657 269.286 208.329 269.53C208.002 269.775 207.589 269.909 207.163 269.909V269.909Z" fill="#1E1E1E"/>
<path d="M140.652 292.287C140.652 292.287 154.944 291.859 165.885 288.87C170.586 287.585 179.924 286.066 182.999 282.082C186.113 278.048 185.828 269.352 188.937 268.978C191.329 268.69 196.136 275.489 194.903 280.09C193.7 284.582 193.1 287.069 191.277 289.071C190.666 289.741 210.815 291.024 223.575 288.512C232.329 286.788 229.732 294.542 223.796 296.971C223.796 296.971 225.905 301.702 219.708 303.305C219.708 303.305 219.768 309.611 213.86 309.9C213.388 311.323 212.493 312.605 211.271 313.61C210.049 314.615 208.546 315.306 206.92 315.609C199.462 317.246 188.218 317.858 176.875 316.953C171.114 316.494 144.513 320.654 144.513 320.654L140.652 292.287Z" fill="white"/>
<path d="M14.3946 333.612C34.8065 336.79 156.429 324.528 156.429 324.528L153.4 286.509C153.4 286.509 54.294 290.63 41.0665 289.578C-2.60961 286.102 -10.9919 329.661 14.3946 333.612Z" fill="#F9335E"/>
<path d="M165.064 8.56272C167.157 6.68979 169.492 4.7073 172.431 4.41307C175.37 4.11884 178.717 6.57616 177.741 9.08016C187.74 5.20496 198.183 2.31559 208.884 0.463284C211.566 0.0006328 214.464 -0.375779 216.929 0.675331C219.394 1.72644 220.933 4.7986 219.229 6.70805C224.411 8.44604 230.157 7.3168 235.653 6.73342C241.148 6.15003 247.44 6.41078 251.186 10.0562C254.661 13.4348 254.736 18.5239 254.615 23.1139C254.447 29.4043 254.275 35.7374 252.673 41.8614C250.264 50.988 244.804 59.2435 237.017 65.5306C239.333 58.4631 235.193 50.6396 228.71 46.0963C222.227 41.553 213.867 39.747 205.685 38.911C195.858 37.9109 185.922 38.1328 176.162 39.5705C168.795 40.655 158.285 45.3313 150.954 42.3677C134.758 35.8175 158.82 14.145 165.064 8.56272Z" fill="#1E1E1E"/>
</svg>
