<svg width="87" height="81" viewBox="0 0 87 81" fill="none" xmlns="http://www.w3.org/2000/svg">
<path d="M66.2871 62.4177H22.1719C24.8079 61.5686 26.844 61.0123 26.844 61.0123L27.4946 60.8628H59.4947L61.4307 61.2817C61.4307 61.2817 63.5476 61.7161 66.2871 62.4177Z" fill="#8054F3"/>
<path d="M87 39.8553C87 18.0744 67.6318 0.41748 43.7399 0.41748C19.848 0.41748 0.479736 18.0744 0.479736 39.8553C0.479736 61.6363 19.848 79.2932 43.7399 79.2932C67.6318 79.2932 87 61.6363 87 39.8553Z" fill="#0AE4FC"/>
<path d="M83.4864 80.3174H6.42041C6.48895 79.9189 6.57435 79.4774 6.6721 79.0031C6.76986 78.5289 6.89121 77.9921 7.02268 77.4471C7.22269 76.6164 7.45303 75.7385 7.70922 74.8555C7.86204 74.3352 8.0216 73.8127 8.19014 73.2995C8.48341 72.395 8.80477 71.5151 9.14186 70.7089C9.37446 70.1486 9.61717 69.6252 9.86661 69.1529C10.159 68.565 10.5267 68.0107 10.9622 67.5017C11.3077 67.1443 11.7019 66.8286 12.1352 66.5623C13.0921 65.971 14.0995 65.4507 15.1477 65.0064C17.4387 64.0335 19.7831 63.1688 22.1716 62.4158C24.8077 61.5666 26.8437 61.0104 26.8437 61.0104L27.4943 60.8608L36.4497 58.7998H49.9851L59.4933 60.8567L61.4293 61.2757C61.4293 61.2757 63.5463 61.711 66.2857 62.4127C69.1059 63.1007 71.8703 63.9664 74.5591 65.0033C75.6149 65.4038 76.6097 65.9268 77.5187 66.5593C77.7054 66.6982 77.8777 66.8525 78.0334 67.0202C78.5903 67.6811 79.0669 68.3952 79.4548 69.1499C79.7166 69.6303 79.9784 70.1527 80.2413 70.7059C80.6245 71.5254 80.9986 72.3991 81.3515 73.2965C81.5548 73.8086 81.7504 74.3341 81.9369 74.8524C82.2549 75.7406 82.5425 76.6195 82.7863 77.4441C82.9493 77.9911 83.0909 78.5135 83.21 79.0001C83.3291 79.4866 83.4178 79.923 83.4864 80.3174Z" fill="#5D46C2"/>
<path d="M77.5199 66.5645H12.1353C13.0921 65.9731 14.0995 65.4528 15.1477 65.0085H74.5636C75.6183 65.4092 76.6119 65.9322 77.5199 66.5645V66.5645Z" fill="#8054F3"/>
<path d="M80.2378 70.71H9.14062C9.37322 70.1497 9.61592 69.6263 9.86537 69.1541H79.4546C79.7153 69.6344 79.9793 70.1568 80.2378 70.71Z" fill="#8054F3"/>
<path d="M81.9336 74.8567H7.70923C7.86204 74.3363 8.0216 73.814 8.19015 73.3008H81.3493C81.5515 73.816 81.747 74.3384 81.9336 74.8567Z" fill="#8054F3"/>
<path d="M83.2066 79.0042H6.67212C6.77437 78.5167 6.89123 77.9933 7.0227 77.4485H82.7796C82.9459 77.9984 83.0875 78.5177 83.2066 79.0042Z" fill="#8054F3"/>
<g style="mix-blend-mode:multiply" opacity="0.5">
<g style="mix-blend-mode:multiply" opacity="0.5">
<path d="M48.839 78.1816C44.9634 78.1707 41.1312 77.4387 37.5768 76.0305C34.8072 74.9745 32.2436 73.5164 29.9855 71.713C29.9162 71.6461 29.8777 71.5575 29.8779 71.4655C29.8781 71.3736 29.917 71.2851 29.9865 71.2185C30.056 71.1518 30.1509 71.112 30.2517 71.1072C30.3524 71.1024 30.4514 71.1329 30.5282 71.1926C32.7325 72.9367 35.2266 74.3508 37.9172 75.3821C43.8757 77.7557 50.5691 78.1078 56.7876 76.3747C56.8857 76.3526 56.9894 76.3657 57.0772 76.4114C57.1649 76.4571 57.23 76.5319 57.2589 76.6202C57.2879 76.7085 57.2784 76.8035 57.2324 76.8856C57.1865 76.9677 57.1077 77.0305 57.0123 77.061C54.3634 77.8001 51.6091 78.1777 48.839 78.1816Z" fill="#491A90"/>
</g>
</g>
<g style="mix-blend-mode:multiply" opacity="0.5">
<g style="mix-blend-mode:multiply" opacity="0.5">
<path d="M50.3007 75.9518C46.0391 75.7828 41.9248 74.4814 38.4643 72.2078C38.423 72.1794 38.3883 72.1439 38.3621 72.1033C38.3359 72.0627 38.3188 72.0178 38.3116 71.9711C38.3045 71.9244 38.3075 71.877 38.3205 71.8314C38.3335 71.7858 38.3562 71.7429 38.3873 71.7053C38.4184 71.6677 38.4574 71.6361 38.5019 71.6122C38.5465 71.5883 38.5958 71.5727 38.6469 71.5662C38.6981 71.5597 38.7502 71.5624 38.8002 71.5743C38.8502 71.5861 38.8972 71.6068 38.9385 71.6352C39.0003 71.6772 45.1522 75.8473 51.8659 75.1549C51.9176 75.1496 51.9698 75.1536 52.0198 75.1667C52.0697 75.1798 52.1164 75.2017 52.157 75.2313C52.1976 75.2608 52.2315 75.2974 52.2566 75.3388C52.2818 75.3803 52.2977 75.4259 52.3036 75.4729C52.3094 75.52 52.305 75.5677 52.2906 75.6132C52.2762 75.6588 52.2522 75.7013 52.2198 75.7383C52.1874 75.7754 52.1473 75.8062 52.1018 75.8291C52.0563 75.8521 52.0063 75.8666 51.9547 75.8719C51.4054 75.9268 50.8532 75.9535 50.3007 75.9518V75.9518Z" fill="#491A90"/>
</g>
</g>
<path d="M43.9421 72.051C39.4026 72.051 35.9238 69.9398 33.862 65.9284C32.8821 63.968 32.2862 61.8664 32.1012 59.7187C32.0923 59.5602 32.1528 59.4049 32.2694 59.2871C32.386 59.1692 32.5493 59.0984 32.7231 59.0903C32.897 59.0821 33.0673 59.1373 33.1966 59.2436C33.3259 59.3499 33.4036 59.4987 33.4125 59.6573C33.5953 61.6603 34.1544 63.6197 35.0654 65.45C36.9756 69.1439 40.0824 70.9601 44.2949 70.8494C46.2193 70.879 48.1051 70.3556 49.6848 69.3534C51.2646 68.3511 52.4582 66.921 53.0964 65.2657C53.8645 63.4912 54.2745 61.6047 54.3066 59.6972C54.3034 59.5386 54.3696 59.3853 54.4904 59.271C54.6113 59.1568 54.7769 59.0911 54.951 59.0882C55.125 59.0854 55.2931 59.1457 55.4184 59.2558C55.5437 59.366 55.6158 59.517 55.619 59.6757C55.596 61.7347 55.1576 63.7723 54.3257 65.6867C53.5909 67.5614 52.2339 69.181 50.4431 70.3205C48.6524 71.4599 46.5168 72.0626 44.3331 72.0449C44.2017 72.049 44.0713 72.051 43.9421 72.051Z" fill="#FFAC32"/>
<path d="M27.2144 44.558C27.2144 44.558 25.902 47.3965 27.2144 49.0652C27.5935 49.5473 28.1061 49.929 28.6999 50.1715C29.2937 50.4139 29.9474 50.5083 30.5943 50.4451C30.5943 50.4451 29.392 54.8857 33.0776 55.4696C36.7631 56.0535 37.4688 53.4311 37.4688 53.4311C37.4688 53.4311 34.5226 42.5205 27.2144 44.558Z" fill="#19274B"/>
<path d="M58.4516 44.558C58.4516 44.558 59.764 47.3965 58.4516 49.0652C58.0724 49.5475 57.5596 49.9293 56.9656 50.1717C56.3716 50.4142 55.7176 50.5085 55.0706 50.4451C55.0706 50.4451 56.2728 54.8857 52.5884 55.4696C48.904 56.0535 48.1973 53.4311 48.1973 53.4311C48.1973 53.4311 51.1434 42.5205 58.4516 44.558Z" fill="#19274B"/>
<path d="M51.1952 60.7451C51.1952 60.7451 49.2255 64.1059 43.7174 64.1059C42.233 64.1455 40.7616 63.8429 39.4397 63.226C38.1178 62.6091 36.9881 61.698 36.1553 60.5771L36.4811 58.1596L36.5362 57.7499L37.0474 53.9424L50.2132 54.2773L50.4379 55.7258L50.5098 56.2L51.1952 60.7451Z" fill="#FF8881"/>
<path d="M50.4326 55.7299C47.4493 58.0348 42.6244 58.9117 36.4814 58.1608L36.5365 57.7511L37.0478 53.9434L50.2135 54.2783L50.4326 55.7299Z" fill="#19274B"/>
<path d="M32.1022 44.0387C29.1571 47.7866 22.8153 45.2545 23.2468 40.2804C23.6389 35.7683 29.1672 36.4833 29.1672 36.4833L32.1022 44.0387Z" fill="#F55B5D"/>
<path d="M29.3921 44.134C29.304 44.1339 29.2186 44.1068 29.1494 44.0573C29.0801 44.0077 29.0311 43.9384 29.01 43.8605C28.3946 42.2687 27.3516 40.8427 25.9761 39.7129C25.898 39.6497 25.8507 39.5609 25.8444 39.4659C25.8382 39.3709 25.8737 39.2775 25.943 39.2063C26.0122 39.1352 26.1097 39.092 26.2139 39.0863C26.3181 39.0807 26.4205 39.113 26.4986 39.1761C27.9974 40.3986 29.1245 41.9533 29.7707 43.6895C29.7955 43.782 29.779 43.8796 29.7248 43.9611C29.6707 44.0425 29.5834 44.101 29.4819 44.1238C29.4525 44.1303 29.4223 44.1337 29.3921 44.134V44.134Z" fill="#D1373F"/>
<path d="M28.3774 42.1055C28.335 42.1055 28.2929 42.0992 28.2526 42.087C27.5692 41.8904 26.8438 41.8468 26.1379 41.9601C26.0875 41.9703 26.0353 41.9715 25.9843 41.9634C25.9334 41.9553 25.8847 41.9381 25.841 41.9129C25.7974 41.8876 25.7596 41.8548 25.7298 41.8162C25.7001 41.7777 25.679 41.7342 25.6677 41.6882C25.6564 41.6422 25.6552 41.5946 25.6641 41.5482C25.6729 41.5018 25.6918 41.4574 25.7195 41.4176C25.7472 41.3778 25.7832 41.3434 25.8255 41.3163C25.8678 41.2892 25.9156 41.2699 25.966 41.2597C26.8116 41.1157 27.6832 41.1661 28.5021 41.4061C28.5915 41.4324 28.6677 41.4871 28.7167 41.5602C28.7657 41.6333 28.7843 41.72 28.7693 41.8046C28.7542 41.8891 28.7064 41.966 28.6345 42.0212C28.5626 42.0764 28.4714 42.1063 28.3774 42.1055V42.1055Z" fill="#D1373F"/>
<path d="M53.9089 44.0387C56.854 47.7866 63.1958 45.2545 62.7632 40.2804C62.3711 35.7683 56.8439 36.4833 56.8439 36.4833L53.9089 44.0387Z" fill="#F55B5D"/>
<path d="M56.62 44.134C56.5602 44.1342 56.5012 44.122 56.4473 44.0982C56.3935 44.0745 56.3463 44.0399 56.3094 43.997C56.2724 43.9541 56.2467 43.9042 56.2341 43.8509C56.2216 43.7976 56.2225 43.7424 56.2368 43.6895C56.883 41.9532 58.0101 40.3985 59.5089 39.176C59.5877 39.1178 59.6881 39.0896 59.7892 39.0972C59.8903 39.1047 59.9843 39.1475 60.0517 39.2166C60.1191 39.2857 60.1547 39.3758 60.1511 39.4682C60.1476 39.5606 60.1051 39.6482 60.0325 39.7128C58.6571 40.8426 57.6141 42.2686 56.9987 43.8605C56.9777 43.9379 56.9292 44.0068 56.8607 44.0563C56.7921 44.1058 56.7074 44.1332 56.62 44.134V44.134Z" fill="#D1373F"/>
<path d="M57.6338 42.1055C57.5398 42.1063 57.4486 42.0764 57.3767 42.0212C57.3048 41.966 57.257 41.8891 57.2419 41.8046C57.2268 41.72 57.2455 41.6333 57.2945 41.5602C57.3435 41.4871 57.4196 41.4324 57.5091 41.4061C58.3279 41.1661 59.1995 41.1157 60.045 41.2597C60.0955 41.2699 60.1432 41.2892 60.1855 41.3163C60.2278 41.3434 60.2639 41.3778 60.2916 41.4176C60.3193 41.4574 60.3381 41.5018 60.347 41.5482C60.3559 41.5946 60.3546 41.6422 60.3433 41.6882C60.3321 41.7342 60.3109 41.7777 60.2812 41.8162C60.2515 41.8548 60.2137 41.8876 60.17 41.9129C60.1263 41.9381 60.0777 41.9553 60.0267 41.9634C59.9758 41.9715 59.9236 41.9703 59.8731 41.9601V41.9601C59.1673 41.8466 58.4419 41.8901 57.7585 42.087C57.7183 42.0992 57.6762 42.1055 57.6338 42.1055Z" fill="#D1373F"/>
<path d="M27.9955 31.0038C27.2519 36.4549 28.0398 41.9889 30.2855 47.0862C33.6642 54.2946 38.6937 56.539 43.4759 56.6076C48.9154 56.6855 59.7686 53.8193 57.9708 30.2898C56.7494 14.3949 29.4349 14.9542 27.9955 31.0038Z" fill="#FF8881"/>
<g opacity="0.5">
<path opacity="0.5" d="M37.5656 44.0009C37.5656 44.8797 35.87 45.5925 33.7778 45.5925C31.6856 45.5925 29.99 44.8756 29.99 44.0009C29.99 43.1262 31.6856 42.4092 33.7778 42.4092C35.87 42.4092 37.5656 43.1221 37.5656 44.0009Z" fill="#F55B5D"/>
</g>
<g opacity="0.5">
<path opacity="0.5" d="M56.4481 44.0009C56.4481 44.8797 54.7526 45.5925 52.6604 45.5925C50.5681 45.5925 48.8726 44.8756 48.8726 44.0009C48.8726 43.1262 50.5681 42.4092 52.6604 42.4092C54.7526 42.4092 56.4481 43.1221 56.4481 44.0009Z" fill="#F55B5D"/>
</g>
<path d="M43.9208 45.0005H43.8949L41.4993 44.8244C41.4138 44.8166 41.3351 44.7785 41.28 44.7184C41.225 44.6582 41.198 44.5807 41.2049 44.5027C41.2118 44.4246 41.2521 44.3521 41.317 44.3007C41.3819 44.2494 41.4664 44.2234 41.5522 44.2282L43.5545 44.3747L42.9297 38.8299C42.9208 38.751 42.9466 38.672 43.0015 38.6105C43.0564 38.5489 43.1359 38.5097 43.2224 38.5016C43.309 38.4934 43.3956 38.517 43.4631 38.567C43.5307 38.6171 43.5736 38.6895 43.5826 38.7684L44.2478 44.6748C44.2523 44.7165 44.2472 44.7585 44.2329 44.7983C44.2185 44.8381 44.1952 44.8747 44.1644 44.9057C44.1336 44.9368 44.096 44.9617 44.0541 44.9787C44.0121 44.9957 43.9667 45.0046 43.9208 45.0046V45.0005Z" fill="#F55B5D"/>
<path d="M29.6878 35.8621C29.8642 37.7059 28.772 40.0046 27.0539 39.0273C26.2955 38.5961 26.3573 37.2798 26.0539 35.6797C25.6943 33.7878 26.6517 34.1494 24.5381 31.6039C22.3032 28.9108 23.7785 24.9456 26.0539 24.836C26.0539 24.836 23.2279 20.6884 27.2157 17.4863C30.8024 14.6068 33.9576 16.6494 33.9576 16.6494C33.9576 16.6494 34.625 12.72 38.3701 12.174C42.1152 11.628 45.0805 14.6324 45.0805 14.6324C45.9046 13.742 47.0155 13.1109 48.2554 12.8289C49.4953 12.5468 50.8011 12.628 51.9875 13.0611C56.4259 14.4798 55.0697 17.3992 55.0697 17.3992C55.0697 17.3992 59.5024 16.9239 61.2991 19.9457C61.7503 20.6575 61.9466 21.4799 61.8608 22.2983C61.775 23.1167 61.4113 23.8902 60.8204 24.5113C60.8204 24.5113 62.7857 25.6852 62.3756 28.8412C62.025 31.5414 59.8002 31.7524 59.7721 33.6075C59.7238 34.6547 59.5661 35.6954 59.3013 36.7154C59.135 37.3955 58.4024 38.5756 57.6349 38.5756C56.6472 38.5756 55.9629 37.0872 56.0888 36.194C56.3012 34.6933 56.3675 32.5483 55.3528 31.315C53.6763 29.2776 54.6899 26.6573 51.9875 25.93C49.2852 25.2027 40.3432 29.1321 33.9576 25.8573C33.9576 25.8573 34.3385 29.0778 32.1036 30.0233C29.8687 30.9688 29.5125 34.4075 29.6878 35.8621C29.6922 35.9041 29.6833 35.8201 29.6878 35.8621Z" fill="#19274B"/>
<path d="M38.2405 47.1622C41.5391 47.6897 44.9171 47.6466 48.1982 47.0352C48.0671 48.1645 47.4618 49.2039 46.509 49.9357C45.5563 50.6674 44.33 51.0349 43.0867 50.9612C39.0349 50.9735 38.2405 47.1622 38.2405 47.1622Z" fill="#F5EFFF"/>
<path d="M38.2432 38.5737C38.2432 39.6093 37.7263 40.4482 37.0903 40.4482C36.4544 40.4482 35.9375 39.6093 35.9375 38.5737C35.9375 37.5381 36.4532 36.6992 37.0903 36.6992C37.7274 36.6992 38.2432 37.5381 38.2432 38.5737Z" fill="#19274B"/>
<path d="M50.5041 38.5737C50.5041 39.6093 49.9884 40.4482 49.3513 40.4482C48.7142 40.4482 48.1985 39.6093 48.1985 38.5737C48.1985 37.5381 48.7153 36.6992 49.3513 36.6992C49.9873 36.6992 50.5041 37.5381 50.5041 38.5737Z" fill="#19274B"/>
<path d="M35.043 34.4691C36.0218 33.9673 37.0848 33.6163 38.1892 33.4304C38.3336 33.4127 38.4719 33.3659 38.5939 33.2933C38.716 33.2208 38.8188 33.1243 38.8949 33.011C38.971 32.8977 39.0184 32.7704 39.0338 32.6382C39.0491 32.5061 39.032 32.3726 38.9836 32.2473L38.9409 32.1387C38.8675 31.9506 38.7269 31.7905 38.5416 31.684C38.3564 31.5776 38.1373 31.531 37.9195 31.5517C36.4338 31.643 35.0205 32.1706 33.8912 33.0555C33.7658 33.1708 33.6774 33.3152 33.6356 33.473C33.5938 33.6308 33.6002 33.7961 33.6542 33.9508V33.9508C33.6973 34.0753 33.7699 34.1896 33.8669 34.2857C33.9639 34.3817 34.0828 34.4572 34.2154 34.5066C34.3479 34.5561 34.4907 34.5784 34.6337 34.5719C34.7768 34.5654 34.9165 34.5303 35.043 34.4691V34.4691Z" fill="#19274B"/>
<path d="M51.4288 34.469C50.4518 33.9676 49.3906 33.6167 48.2883 33.4303C48.1438 33.4126 48.0056 33.3658 47.8835 33.2932C47.7614 33.2207 47.6586 33.1242 47.5825 33.0109C47.5065 32.8976 47.459 32.7703 47.4437 32.6382C47.4283 32.5061 47.4455 32.3725 47.4939 32.2472L47.5366 32.1386C47.61 31.9506 47.7506 31.7904 47.9358 31.684C48.121 31.5776 48.3402 31.531 48.5579 31.5517C50.0432 31.6432 51.4561 32.1707 52.585 33.0554C52.7106 33.1706 52.7992 33.3149 52.841 33.4728C52.8828 33.6307 52.8762 33.796 52.8221 33.9507V33.9507C52.7791 34.0757 52.7064 34.1906 52.6091 34.2871C52.5118 34.3835 52.3923 34.4592 52.2592 34.5087C52.1261 34.5582 51.9827 34.5804 51.8391 34.5735C51.6956 34.5666 51.5555 34.5309 51.4288 34.469Z" fill="#19274B"/>
<path d="M43.2905 52.6055C42.5818 52.602 41.8807 52.4725 41.2263 52.2245C41.1501 52.1901 41.0916 52.1302 41.0629 52.0572C41.0343 51.9843 41.0378 51.904 41.0727 51.8334C41.1077 51.7628 41.1713 51.7072 41.2503 51.6785C41.3292 51.6498 41.4173 51.6502 41.496 51.6795C42.0797 51.9074 42.7124 52.0117 43.3466 51.9848C43.9808 51.9578 44.6001 51.8002 45.158 51.5238C45.2307 51.4802 45.3194 51.4647 45.4046 51.4808C45.4899 51.4968 45.5646 51.5431 45.6125 51.6094C45.6603 51.6756 45.6773 51.7565 45.6597 51.8342C45.6421 51.912 45.5914 51.9801 45.5186 52.0237C44.8553 52.414 44.0799 52.6165 43.2905 52.6055V52.6055Z" fill="#F55B5D"/>
<path d="M36.1283 44.7168C34.9838 44.7168 33.865 44.4074 32.9133 43.8277C31.9617 43.248 31.22 42.4241 30.782 41.4601C30.3441 40.4962 30.2295 39.4354 30.4527 38.4121C30.676 37.3887 31.2272 36.4487 32.0364 35.7109C32.8457 34.9731 33.8768 34.4707 34.9993 34.2671C36.1219 34.0636 37.2854 34.1681 38.3428 34.5673C39.4001 34.9666 40.3039 35.6428 40.9398 36.5104C41.5756 37.3779 41.915 38.3979 41.915 39.4413C41.9132 40.8399 41.303 42.1808 40.2181 43.1698C39.1333 44.1588 37.6625 44.7152 36.1283 44.7168V44.7168ZM36.1283 34.6442C35.0876 34.6442 34.0702 34.9255 33.2049 35.4526C32.3395 35.9797 31.6651 36.7289 31.2668 37.6055C30.8686 38.4821 30.7644 39.4466 30.9674 40.3771C31.1704 41.3077 31.6716 42.1625 32.4075 42.8334C33.1434 43.5043 34.081 43.9611 35.1017 44.1462C36.1224 44.3313 37.1805 44.2363 38.142 43.8733C39.1035 43.5102 39.9253 42.8953 40.5035 42.1064C41.0817 41.3175 41.3903 40.3901 41.3903 39.4413C41.3879 38.17 40.8326 36.9514 39.8462 36.0527C38.8598 35.154 37.5228 34.6486 36.1283 34.6472V34.6442Z" fill="#F5EFFF"/>
<path d="M50.0602 44.7168C48.9157 44.7168 47.7969 44.4074 46.8452 43.8277C45.8936 43.248 45.1519 42.4241 44.7139 41.4601C44.2759 40.4962 44.1613 39.4354 44.3846 38.4121C44.6079 37.3887 45.159 36.4487 45.9683 35.7109C46.7776 34.9731 47.8087 34.4707 48.9312 34.2671C50.0537 34.0636 51.2173 34.1681 52.2746 34.5673C53.332 34.9666 54.2358 35.6428 54.8716 36.5104C55.5075 37.3779 55.8469 38.3979 55.8469 39.4413C55.8451 40.8399 55.2349 42.1808 54.15 43.1698C53.0652 44.1588 51.5944 44.7152 50.0602 44.7168V44.7168ZM50.0602 34.6442C49.0194 34.6442 48.0021 34.9255 47.1368 35.4526C46.2714 35.9797 45.597 36.7289 45.1987 37.6055C44.8005 38.4821 44.6963 39.4466 44.8993 40.3771C45.1023 41.3077 45.6035 42.1625 46.3394 42.8334C47.0753 43.5043 48.0129 43.9611 49.0336 44.1462C50.0543 44.3313 51.1123 44.2363 52.0738 43.8733C53.0353 43.5102 53.8571 42.8953 54.4353 42.1064C55.0135 41.3175 55.3222 40.3901 55.3222 39.4413C55.3198 38.17 54.7645 36.9514 53.7781 36.0527C52.7917 35.154 51.4547 34.6486 50.0602 34.6472V34.6442Z" fill="#F5EFFF"/>
<path d="M55.257 37.9734C55.2062 37.9733 55.1564 37.9598 55.1139 37.9344C55.0713 37.9091 55.0377 37.8731 55.0171 37.8307C54.9965 37.7883 54.9899 37.7414 54.998 37.6956C55.006 37.6499 55.0285 37.6073 55.0626 37.5729C55.6182 37.0499 56.3011 36.6536 57.056 36.4161C57.8109 36.1785 58.6165 36.1064 59.4077 36.2055C59.4433 36.209 59.4778 36.219 59.509 36.235C59.5402 36.2511 59.5675 36.2727 59.5891 36.2987C59.6108 36.3246 59.6265 36.3544 59.6351 36.386C59.6438 36.4177 59.6452 36.4507 59.6394 36.4829C59.6336 36.5151 59.6206 36.5458 59.6012 36.5733C59.5819 36.6008 59.5566 36.6244 59.5269 36.6426C59.4973 36.6608 59.4638 36.6734 59.4286 36.6794C59.3934 36.6854 59.3572 36.6849 59.3223 36.6777C58.6178 36.5956 57.902 36.6627 57.2306 36.8739C56.5592 37.0852 55.9503 37.4348 55.4514 37.8955C55.4267 37.9202 55.3967 37.9398 55.3632 37.9532C55.3297 37.9666 55.2936 37.9735 55.257 37.9734V37.9734Z" fill="#F5EFFF"/>
<path d="M30.9743 37.8739C30.9391 37.8739 30.9042 37.8675 30.8718 37.855C30.8394 37.8425 30.81 37.8242 30.7855 37.8012V37.8012C30.1847 37.2612 29.4403 36.8727 28.6252 36.6738C27.8101 36.4748 26.9523 36.4723 26.1358 36.6664C26.1032 36.6764 26.0686 36.6804 26.0343 36.6782C25.9999 36.676 25.9663 36.6676 25.9355 36.6536C25.9047 36.6395 25.8772 36.6201 25.8546 36.5964C25.832 36.5727 25.8147 36.5451 25.8038 36.5154C25.7929 36.4856 25.7885 36.4541 25.7909 36.4228C25.7934 36.3915 25.8025 36.3609 25.8179 36.3328C25.8333 36.3047 25.8546 36.2796 25.8806 36.259C25.9066 36.2384 25.9369 36.2227 25.9695 36.2127C26.8793 35.9822 27.8399 35.977 28.7526 36.1975C29.6653 36.418 30.497 36.8563 31.1619 37.4673C31.1991 37.5009 31.2244 37.5439 31.2346 37.5907C31.2447 37.6376 31.2393 37.6861 31.2191 37.7301C31.1988 37.7741 31.1645 37.8116 31.1207 37.8378C31.0769 37.8639 31.0255 37.8776 30.9732 37.8769L30.9743 37.8739Z" fill="#F5EFFF"/>
<path d="M41.6532 38.9612H41.6363C41.567 38.957 41.5022 38.9279 41.4563 38.8803C41.4104 38.8326 41.3871 38.7704 41.3914 38.7071C41.4866 38.361 41.706 38.0538 42.0146 37.8343C42.3232 37.6148 42.7034 37.4956 43.0948 37.4956C43.4862 37.4956 43.8664 37.6148 44.1751 37.8343C44.4837 38.0538 44.703 38.361 44.7983 38.7071C44.7984 38.768 44.7731 38.8267 44.7275 38.8712C44.6819 38.9157 44.6195 38.9428 44.5528 38.9468C44.4862 38.9508 44.4203 38.9316 44.3686 38.893C44.317 38.8544 44.2834 38.7993 44.2747 38.7389C44.2679 38.662 44.1735 37.9736 43.0948 37.9736C41.9824 37.9736 41.9172 38.7071 41.9161 38.7389C41.9113 38.7994 41.8815 38.856 41.8327 38.8972C41.7839 38.9385 41.7197 38.9613 41.6532 38.9612V38.9612Z" fill="#F5EFFF"/>
</svg>
