<svg width="88" height="79" viewBox="0 0 88 79" fill="none" xmlns="http://www.w3.org/2000/svg">
<path d="M22.4848 72.0042C22.3967 74.3662 21.7439 76.684 20.5703 78.8019H2.80872C2.80872 78.8019 3.94425 73.9796 5.57256 69.134C7.20088 64.2883 10.5506 62.2612 14.8939 61.2659C16.1191 60.9849 18.3618 60.4035 20.9507 59.7146C22.185 62.4631 22.822 67.742 22.4848 72.0042Z" fill="#FF8881"/>
<path d="M87.434 39.0616C87.434 17.4885 67.8612 0 43.717 0C19.5728 0 0 17.4885 0 39.0616C0 60.6347 19.5728 78.1232 43.717 78.1232C67.8612 78.1232 87.434 60.6347 87.434 39.0616Z" fill="#672ED6"/>
<path d="M40.4224 6.85148C40.4224 6.85148 30.1427 7.41863 25.9481 15.791C21.6548 24.3582 24.5287 29.1907 18.9795 34.1023C13.4303 39.0139 11.6952 45.8391 17.8043 49.9482C25.0772 54.8395 33.8081 49.1761 40.7415 51.6486C57.0928 57.4835 76.8256 50.352 72.3812 39.6054C70.259 34.4737 66.379 36.0879 64.3998 22.0277C63.1802 13.3773 56.1753 4.98463 40.4224 6.85148Z" fill="#19274B"/>
<path d="M87.664 78.8014H2.80872C2.80872 78.8014 3.94425 73.9791 5.57256 69.1335C7.20088 64.2878 10.5506 62.2607 14.8939 61.2654C16.1191 60.9843 18.3618 60.403 20.9507 59.7141C22.4167 59.3224 23.995 58.9024 25.562 58.4722C31.0295 56.9889 36.3618 55.5046 36.3618 55.5046L45.187 54.8745H45.2381H45.288L53.2502 55.4437C53.2502 55.4437 58.0375 56.7282 63.2688 58.108C68.1776 59.4026 73.4781 60.7824 75.58 61.2654C79.9233 62.2607 83.2776 64.2888 84.9014 69.1335C86.5251 73.9781 87.664 78.8014 87.664 78.8014Z" fill="#FFAC32"/>
<path d="M67.9891 72.0042C68.0767 74.3663 68.7295 76.6842 69.9036 78.8019H87.664C87.664 78.8019 86.5286 73.9796 84.9014 69.134C83.2742 64.2883 79.9233 62.2612 75.58 61.2659C74.3548 60.9849 72.1122 60.4035 69.5232 59.7146C68.2878 62.4631 67.6519 67.742 67.9891 72.0042Z" fill="#FF8881"/>
<path d="M63.2677 58.1075C62.1401 63.5224 58.2896 73.8914 45.3267 74.4261C30.958 75.0186 26.651 62.9146 25.5575 58.4717C31.025 56.9884 36.3573 55.5041 36.3573 55.5041L45.1825 54.874H45.2336H45.2835L53.2457 55.4432C53.2457 55.4432 58.0364 56.7277 63.2677 58.1075Z" fill="#FF8881"/>
<path d="M45.2915 65.6111C43.1901 65.6745 41.1037 65.2731 39.2176 64.4426C37.3316 63.6121 35.7043 62.3782 34.4803 60.8506C33.3212 59.4268 32.4864 57.8135 32.0231 56.1023C32.0059 56.0343 32.0042 55.964 32.0179 55.8955C32.0317 55.8269 32.0606 55.7616 32.1031 55.7032C32.1456 55.6448 32.2007 55.5946 32.2653 55.5556C32.3298 55.5165 32.4024 55.4895 32.4789 55.4759C32.5553 55.4624 32.634 55.4626 32.7103 55.4767C32.7866 55.4908 32.859 55.5183 32.9232 55.5578C32.9874 55.5972 33.0422 55.6478 33.0841 55.7065C33.1261 55.7651 33.1545 55.8307 33.1677 55.8993C33.6076 57.4748 34.3829 58.9598 35.4512 60.2733C36.564 61.6625 38.046 62.7827 39.7637 63.533C41.4815 64.2832 43.3811 64.64 45.2915 64.5712C49.4929 64.5712 52.6178 63.1254 54.5925 60.2733C55.4953 58.9547 56.0844 57.4841 56.323 55.9531C56.3446 55.8202 56.4226 55.6997 56.541 55.6169C56.6593 55.534 56.8089 55.4951 56.9585 55.5081C57.1082 55.5212 57.2464 55.5853 57.3446 55.687C57.4428 55.7888 57.4933 55.9204 57.4857 56.0546C57.2328 57.7455 56.5852 59.3701 55.5849 60.8232C54.0678 63.0046 51.0531 65.6111 45.2915 65.6111Z" fill="#F5EFFF"/>
<path d="M45.2866 54.8675V54.8738H45.2371L45.2866 54.8675Z" fill="#5D46C2"/>
<path d="M45.2377 54.8718H45.187V54.8655L45.2377 54.8718Z" fill="#5D46C2"/>
<path d="M53.1083 57.3778C53.1083 57.3778 50.9123 61.0506 44.7714 61.0506C43.1167 61.0939 41.4765 60.7632 40.0029 60.0892C38.5293 59.4153 37.2698 58.4198 36.3414 57.1951L36.7037 54.5572L36.765 54.1128L37.3327 49.9529L52.0091 50.3191L52.2544 51.9019L52.3351 52.4204L53.1083 57.3778Z" fill="#FF8881"/>
<path d="M52.2568 51.8969C48.932 54.4153 43.5531 55.3741 36.7003 54.5532L36.7617 54.1088L37.3294 49.9489L52.0058 50.3151L52.2568 51.8969Z" fill="#19274B"/>
<path d="M31.8232 39.1215C28.5404 43.2165 21.4696 40.4497 21.9522 35.0144C22.3894 30.0833 28.5529 30.8656 28.5529 30.8656L31.8232 39.1215Z" fill="#F55B5D"/>
<path d="M29.9326 39.6974C31.3526 40.2128 32.5206 41.1633 33.2272 42.3786C33.9338 43.5938 34.1326 44.9943 33.7881 46.3287C33.4436 47.6631 32.5783 48.8442 31.3474 49.6601C30.1164 50.476 28.6004 50.8733 27.0713 50.7808C25.5421 50.6883 24.0999 50.1119 23.0033 49.1552C21.9067 48.1985 21.2275 46.9239 21.0875 45.5602C20.9475 44.1965 21.3559 42.8327 22.2393 41.7137C23.1228 40.5947 24.4236 39.7935 25.9084 39.4539C26.3338 39.3557 26.7696 39.2972 27.2085 39.2794C27.2807 39.4685 27.3268 39.6648 27.3459 39.8638C27.0795 39.8701 26.8139 39.8931 26.5511 39.9328C25.188 40.1363 23.9514 40.7687 23.0645 41.7156C22.1775 42.6626 21.6989 43.8617 21.7148 45.0964C21.7308 46.3311 22.2404 47.52 23.1516 48.4484C24.0628 49.3768 25.3155 49.9834 26.6834 50.1587C28.0513 50.334 29.4444 50.0664 30.6108 49.4043C31.7773 48.7422 32.6403 47.7292 33.044 46.5482C33.4477 45.3673 33.3655 44.0963 32.8122 42.9648C32.2588 41.8333 31.2709 40.9159 30.0269 40.3783L29.9326 39.6974Z" fill="#F5EFFF"/>
<path d="M28.8017 39.2258C28.7036 39.2258 28.6083 39.1964 28.5311 39.1424C28.4539 39.0883 28.3992 39.0126 28.3759 38.9275C27.692 37.1875 26.53 35.6288 24.9966 34.3944C24.9097 34.3254 24.8571 34.2284 24.8502 34.1247C24.8434 34.021 24.883 33.9191 24.9603 33.8415C25.0375 33.7639 25.1461 33.7168 25.2622 33.7108C25.3782 33.7047 25.4922 33.74 25.5791 33.809C27.2496 35.1447 28.5059 36.8431 29.2264 38.7398C29.2422 38.7975 29.2432 38.8576 29.2292 38.9157C29.2152 38.9737 29.1866 39.0282 29.1455 39.0749C29.1045 39.1216 29.0521 39.1594 28.9924 39.1853C28.9326 39.2113 28.867 39.2248 28.8005 39.2248L28.8017 39.2258Z" fill="#D1373F"/>
<path d="M27.6706 37.01C27.6235 37.01 27.5768 37.0031 27.5321 36.9897C26.7699 36.7744 25.9608 36.727 25.1737 36.8517C25.062 36.8703 24.9467 36.8494 24.8519 36.7935C24.7572 36.7375 24.6904 36.651 24.6657 36.5519C24.6409 36.4529 24.6602 36.3491 24.7194 36.2625C24.7786 36.1759 24.873 36.1132 24.9829 36.0876C25.9256 35.9303 26.8974 35.9854 27.8103 36.2479C27.9089 36.2774 27.9925 36.3373 28.0462 36.4168C28.1 36.4963 28.1203 36.5903 28.1037 36.682C28.087 36.7737 28.0345 36.8572 27.9554 36.9174C27.8763 36.9777 27.7757 37.0109 27.6718 37.011L27.6706 37.01Z" fill="#D1373F"/>
<path d="M56.1334 39.1215C59.4162 43.2165 66.487 40.4497 66.0044 35.0144C65.5672 30.0833 59.4048 30.8656 59.4048 30.8656L56.1334 39.1215Z" fill="#F55B5D"/>
<path d="M58.8199 39.6974C57.3996 40.2128 56.2313 41.1635 55.5245 42.3789C54.8177 43.5944 54.6188 44.9951 54.9633 46.3297C55.3078 47.6644 56.1733 48.8457 57.4045 49.6618C58.6356 50.4779 60.152 50.8753 61.6814 50.7827C63.2108 50.6902 64.6533 50.1137 65.7501 49.1568C66.8469 48.1999 67.5262 46.9251 67.6662 45.5611C67.8062 44.1971 67.3977 42.8332 66.514 41.714C65.6303 40.5947 64.3292 39.7935 62.8441 39.4539C62.4187 39.3557 61.9829 39.2972 61.544 39.2794C61.4714 39.4685 61.4249 39.6647 61.4054 39.8638C61.6719 39.87 61.9375 39.8931 62.2003 39.9328C63.5633 40.1363 64.8 40.7687 65.6869 41.7156C66.5738 42.6625 67.0525 43.8616 67.0365 45.0963C67.0205 46.331 66.511 47.5199 65.5998 48.4483C64.6886 49.3767 63.4359 49.9833 62.0679 50.1586C60.7 50.3339 59.307 50.0663 58.1406 49.4042C56.9741 48.742 56.1111 47.7291 55.7074 46.5481C55.3037 45.3672 55.3859 44.0962 55.9392 42.9647C56.4925 41.8332 57.4804 40.9158 58.7245 40.3782L58.8199 39.6974Z" fill="#F5EFFF"/>
<path d="M59.1549 39.2258C59.0884 39.2258 59.0228 39.2123 58.9631 39.1864C58.9033 39.1604 58.8509 39.1226 58.8099 39.0759C58.7689 39.0292 58.7403 38.9747 58.7263 38.9167C58.7123 38.8586 58.7132 38.7985 58.7291 38.7408C59.4493 36.844 60.7056 35.1456 62.3763 33.81C62.4632 33.741 62.5772 33.7056 62.6933 33.7117C62.8093 33.7178 62.918 33.7648 62.9952 33.8425C63.0725 33.9201 63.112 34.022 63.1052 34.1257C63.0984 34.2294 63.0457 34.3264 62.9589 34.3954C61.4265 35.6307 60.2647 37.1891 59.5795 38.9285C59.556 39.0133 59.5014 39.0886 59.4245 39.1425C59.3475 39.1963 59.2526 39.2256 59.1549 39.2258Z" fill="#D1373F"/>
<path d="M60.2859 37.01C60.1819 37.0099 60.0814 36.9767 60.0023 36.9165C59.9232 36.8562 59.8706 36.7728 59.8539 36.6811C59.8373 36.5894 59.8577 36.4954 59.9114 36.4159C59.9652 36.3363 60.0488 36.2765 60.1473 36.2469C61.0603 35.9845 62.032 35.9294 62.9748 36.0866C63.0846 36.1122 63.1791 36.1749 63.2383 36.2615C63.2975 36.3481 63.3167 36.4519 63.292 36.5509C63.2672 36.65 63.2005 36.7366 63.1057 36.7925C63.011 36.8484 62.8956 36.8693 62.784 36.8507C61.9969 36.7262 61.1878 36.7736 60.4255 36.9887C60.3806 37.0026 60.3334 37.0097 60.2859 37.01Z" fill="#D1373F"/>
<path d="M27.2449 24.8804C26.4158 30.837 27.2941 36.8841 29.7975 42.4541C33.564 50.3304 38.575 52.7847 43.9062 52.8598C49.9709 52.945 62.6682 49.816 60.6583 24.1012C59.3003 6.72945 28.8494 7.34328 27.2449 24.8804Z" fill="#FF8881"/>
<path d="M60.2859 25.7835C52.0887 25.9732 46.3555 24.0131 42.6753 22.0103C43.7845 23.2507 45.163 24.2777 46.728 25.0297C41.441 26.238 38.0243 21.7495 36.5561 19.2151C34.1427 22.5305 30.8825 25.2862 27.044 27.2556C23.6533 8.7691 38.2117 7.23202 50.03 8.23239C61.0819 9.16783 66.6005 25.6364 60.2859 25.7835Z" fill="#19274B"/>
<path d="M31.7029 23.6389C29.9809 26.8987 29.3067 30.5219 29.7555 34.1042C30.6752 39.236 30.2619 44.1689 27.4288 45.0394C27.4288 45.0394 29.3592 42.577 27.5969 38.3432C25.8346 34.1093 25.3735 28.4885 26.542 25.8912C27.7104 23.2939 31.7029 23.6389 31.7029 23.6389Z" fill="#19274B"/>
<path d="M56.6783 23.6389C58.4004 26.8987 59.0746 30.5219 58.6257 34.1042C57.706 39.236 58.1193 44.1689 60.9524 45.0394C60.9524 45.0394 59.022 42.577 60.7832 38.3432C62.5444 34.1093 63.0065 28.4885 61.8381 25.8912C60.6696 23.2939 56.6783 23.6389 56.6783 23.6389Z" fill="#19274B"/>
<path d="M32.9077 29.3804C34.4615 27.599 36.7312 26.4288 39.2348 26.1183C39.3896 26.105 39.5458 26.1197 39.694 26.1616C39.8423 26.2035 39.9796 26.2718 40.0976 26.3623C40.2156 26.4528 40.312 26.5636 40.3809 26.6882C40.4498 26.8128 40.4898 26.9485 40.4986 27.0873V27.0974C40.5078 27.2374 40.4851 27.3776 40.432 27.5095C40.3788 27.6414 40.2962 27.7623 40.1891 27.8649C40.0821 27.9674 39.9529 28.0495 39.8094 28.1061C39.6658 28.1627 39.5109 28.1927 39.354 28.1943C37.1371 28.1915 34.9431 28.5952 32.9077 29.3804Z" fill="#19274B"/>
<path d="M55.3669 29.3804C53.8135 27.599 51.5443 26.4289 49.041 26.1183C48.8862 26.105 48.73 26.1197 48.5817 26.1616C48.4334 26.2035 48.2961 26.2718 48.1781 26.3623C48.0601 26.4528 47.9638 26.5636 47.8949 26.6882C47.826 26.8128 47.7859 26.9485 47.7772 27.0873V27.0974C47.7679 27.2373 47.7906 27.3774 47.8437 27.5093C47.8968 27.6411 47.9793 27.762 48.0862 27.8645C48.1931 27.967 48.3221 28.0491 48.4656 28.1058C48.609 28.1625 48.7638 28.1926 48.9206 28.1943C51.1375 28.1915 53.3315 28.5952 55.3669 29.3804Z" fill="#19274B"/>
<path d="M44.6578 48.2457C43.8676 48.2421 43.0858 48.1008 42.3562 47.8297C42.3125 47.8121 42.2731 47.7869 42.2403 47.7557C42.2075 47.7244 42.1819 47.6877 42.165 47.6476C42.1481 47.6075 42.1401 47.5648 42.1417 47.522C42.1432 47.4792 42.1542 47.4371 42.1739 47.398C42.1937 47.359 42.2218 47.3238 42.2568 47.2945C42.2918 47.2652 42.3329 47.2423 42.3778 47.2272C42.4226 47.2121 42.4704 47.205 42.5183 47.2064C42.5662 47.2077 42.6134 47.2175 42.6571 47.2352C43.3085 47.4849 44.0148 47.5994 44.7229 47.5698C45.431 47.5403 46.1223 47.3676 46.7449 47.0647C46.7849 47.0411 46.8298 47.0248 46.8769 47.0167C46.924 47.0086 46.9724 47.0089 47.0193 47.0175C47.0663 47.0262 47.1109 47.043 47.1506 47.067C47.1903 47.091 47.2243 47.1218 47.2507 47.1576C47.2771 47.1933 47.2954 47.2334 47.3044 47.2755C47.3135 47.3176 47.3132 47.3608 47.3036 47.4028C47.2939 47.4448 47.2751 47.4846 47.2482 47.5201C47.2214 47.5556 47.1869 47.586 47.1468 47.6096C46.406 48.0373 45.5397 48.2587 44.6578 48.2457Z" fill="#F55B5D"/>
<path d="M45.9512 39.932H45.9217L43.2522 39.7392C43.1556 39.7324 43.0661 39.6915 43.0033 39.6257C42.9405 39.5599 42.9095 39.4744 42.9172 39.3882C42.9248 39.3019 42.9706 39.2219 43.0442 39.1658C43.1179 39.1097 43.2135 39.082 43.3101 39.0889L45.5425 39.2492L44.8464 33.1848C44.8365 33.0989 44.8652 33.0129 44.9262 32.9458C44.9872 32.8787 45.0755 32.836 45.1717 32.8272C45.2679 32.8183 45.3642 32.8439 45.4392 32.8984C45.5143 32.953 45.5621 33.0319 45.572 33.1179L46.3135 39.5718C46.3189 39.6173 46.3135 39.6633 46.2977 39.7068C46.2819 39.7504 46.2561 39.7904 46.2218 39.8244C46.1875 39.8584 46.1456 39.8855 46.0988 39.9041C46.0519 39.9226 46.0013 39.9321 45.9501 39.932H45.9512Z" fill="#F55B5D"/>
<path d="M38.9304 42.5334C42.6076 43.1103 46.3734 43.0631 50.0311 42.3944C49.8848 43.6284 49.21 44.7641 48.148 45.5637C47.086 46.3634 45.7191 46.7652 44.3331 46.6849C39.8161 46.7012 38.9304 42.5334 38.9304 42.5334Z" fill="#F5EFFF"/>
<path d="M38.6669 33.1526C38.6669 34.284 38.0912 35.2012 37.3815 35.2012C36.6718 35.2012 36.0961 34.288 36.0961 33.1526C36.0961 32.0172 36.6718 31.104 37.3815 31.104C38.0912 31.104 38.6669 32.0213 38.6669 33.1526Z" fill="#19274B"/>
<path d="M52.3385 33.1526C52.3385 34.284 51.7639 35.2012 51.0531 35.2012C50.3423 35.2012 49.7677 34.288 49.7677 33.1526C49.7677 32.0172 50.3434 31.104 51.0531 31.104C51.7628 31.104 52.3385 32.0213 52.3385 33.1526Z" fill="#19274B"/>
<path d="M33.9695 37.3519C33.9692 37.4214 33.9459 37.4894 33.9025 37.5471C33.8591 37.6049 33.7974 37.6498 33.7254 37.6763C33.6534 37.7028 33.5742 37.7096 33.4979 37.6959C33.4215 37.6822 33.3514 37.6486 33.2964 37.5994C33.2414 37.5501 33.204 37.4874 33.1889 37.4191C33.1738 37.3509 33.1817 37.2802 33.2115 37.2159C33.2414 37.1517 33.2919 37.0968 33.3566 37.0581C33.4214 37.0195 33.4976 36.9989 33.5754 36.9989C33.6273 36.9989 33.6786 37.008 33.7265 37.0258C33.7743 37.0435 33.8178 37.0696 33.8544 37.1023C33.891 37.1351 33.9201 37.1741 33.9398 37.2169C33.9595 37.2597 33.9696 37.3056 33.9695 37.3519Z" fill="#F55B5D"/>
<path d="M35.8941 38.2042C35.8939 38.2737 35.8706 38.3417 35.8272 38.3995C35.7837 38.4572 35.7221 38.5022 35.6501 38.5287C35.5781 38.5552 35.4989 38.562 35.4225 38.5483C35.3462 38.5346 35.2761 38.501 35.2211 38.4517C35.1661 38.4025 35.1287 38.3397 35.1136 38.2715C35.0985 38.2032 35.1063 38.1325 35.1362 38.0682C35.166 38.0039 35.2165 37.949 35.2813 37.9103C35.3461 37.8717 35.4222 37.8511 35.5001 37.8511C35.5519 37.8511 35.6032 37.8602 35.6511 37.878C35.699 37.8957 35.7425 37.9217 35.7791 37.9545C35.8157 37.9873 35.8447 38.0263 35.8644 38.0691C35.8842 38.1119 35.8943 38.1578 35.8941 38.2042Z" fill="#F55B5D"/>
<path d="M33.9695 39.4286C33.9692 39.4982 33.9459 39.5662 33.9025 39.624C33.8591 39.6817 33.7974 39.7267 33.7254 39.7532C33.6534 39.7797 33.5742 39.7865 33.4979 39.7728C33.4215 39.7591 33.3514 39.7255 33.2964 39.6762C33.2414 39.627 33.204 39.5642 33.1889 39.4959C33.1738 39.4277 33.1817 39.3569 33.2115 39.2927C33.2414 39.2284 33.2919 39.1735 33.3566 39.1348C33.4214 39.0962 33.4976 39.0756 33.5754 39.0756C33.6273 39.0756 33.6786 39.0847 33.7265 39.1025C33.7743 39.1202 33.8178 39.1462 33.8544 39.179C33.891 39.2118 33.9201 39.2508 33.9398 39.2936C33.9595 39.3364 33.9696 39.3823 33.9695 39.4286Z" fill="#F55B5D"/>
<path d="M36.6014 40.1318C36.819 40.1318 36.9954 39.9742 36.9954 39.7798C36.9954 39.5854 36.819 39.4279 36.6014 39.4279C36.3838 39.4279 36.2074 39.5854 36.2074 39.7798C36.2074 39.9742 36.3838 40.1318 36.6014 40.1318Z" fill="#F55B5D"/>
<path d="M38.6183 39.7797C38.8359 39.7797 39.0123 39.6221 39.0123 39.4276C39.0123 39.2332 38.8359 39.0756 38.6183 39.0756C38.4007 39.0756 38.2242 39.2332 38.2242 39.4276C38.2242 39.6221 38.4007 39.7797 38.6183 39.7797Z" fill="#F55B5D"/>
<path d="M38.0936 37.706C38.0936 37.7756 38.0705 37.8437 38.0272 37.9016C37.9839 37.9595 37.9223 38.0046 37.8503 38.0312C37.7783 38.0579 37.6991 38.0649 37.6227 38.0513C37.5463 38.0377 37.4761 38.0042 37.421 37.9549C37.3658 37.9057 37.3283 37.8429 37.3131 37.7747C37.2979 37.7064 37.3057 37.6356 37.3355 37.5712C37.3654 37.5069 37.4159 37.4519 37.4807 37.4132C37.5455 37.3745 37.6216 37.3539 37.6996 37.3539C37.8041 37.3539 37.9043 37.391 37.9782 37.457C38.0521 37.523 38.0936 37.6126 38.0936 37.706Z" fill="#F55B5D"/>
<path d="M55.6304 37.7048C55.848 37.7048 56.0244 37.5472 56.0244 37.3528C56.0244 37.1584 55.848 37.0009 55.6304 37.0009C55.4127 37.0009 55.2363 37.1584 55.2363 37.3528C55.2363 37.5472 55.4127 37.7048 55.6304 37.7048Z" fill="#F55B5D"/>
<path d="M53.7057 38.5552C53.9233 38.5552 54.0997 38.3976 54.0997 38.2032C54.0997 38.0087 53.9233 37.8511 53.7057 37.8511C53.4881 37.8511 53.3116 38.0087 53.3116 38.2032C53.3116 38.3976 53.4881 38.5552 53.7057 38.5552Z" fill="#F55B5D"/>
<path d="M55.6304 39.7797C55.848 39.7797 56.0244 39.6221 56.0244 39.4276C56.0244 39.2332 55.848 39.0756 55.6304 39.0756C55.4127 39.0756 55.2363 39.2332 55.2363 39.4276C55.2363 39.6221 55.4127 39.7797 55.6304 39.7797Z" fill="#F55B5D"/>
<path d="M52.6041 40.1318C52.8217 40.1318 52.9981 39.9742 52.9981 39.7798C52.9981 39.5854 52.8217 39.4279 52.6041 39.4279C52.3865 39.4279 52.2101 39.5854 52.2101 39.7798C52.2101 39.9742 52.3865 40.1318 52.6041 40.1318Z" fill="#F55B5D"/>
<path d="M50.1935 39.4286C50.1937 39.4982 50.217 39.5662 50.2604 39.624C50.3039 39.6817 50.3655 39.7267 50.4375 39.7532C50.5095 39.7797 50.5887 39.7865 50.6651 39.7728C50.7415 39.7591 50.8115 39.7255 50.8665 39.6762C50.9215 39.627 50.959 39.5642 50.9741 39.4959C50.9892 39.4277 50.9813 39.3569 50.9514 39.2927C50.9216 39.2284 50.8711 39.1735 50.8063 39.1348C50.7415 39.0962 50.6654 39.0756 50.5875 39.0756C50.5357 39.0756 50.4843 39.0847 50.4364 39.1025C50.3886 39.1202 50.3451 39.1462 50.3085 39.179C50.2719 39.2118 50.2429 39.2508 50.2231 39.2936C50.2034 39.3364 50.1933 39.3823 50.1935 39.4286Z" fill="#F55B5D"/>
<path d="M51.505 38.0571C51.7226 38.0571 51.899 37.8994 51.899 37.705C51.899 37.5105 51.7226 37.3529 51.505 37.3529C51.2874 37.3529 51.111 37.5105 51.111 37.705C51.111 37.8994 51.2874 38.0571 51.505 38.0571Z" fill="#F55B5D"/>
</svg>
