<svg width="88" height="85" viewBox="0 0 88 85" fill="none" xmlns="http://www.w3.org/2000/svg">
<path d="M87.1421 39.8553C87.1421 18.0744 67.7594 0.41748 43.8496 0.41748C19.9398 0.41748 0.557129 18.0744 0.557129 39.8553C0.557129 61.6363 19.9398 79.2932 43.8496 79.2932C67.7594 79.2932 87.1421 61.6363 87.1421 39.8553Z" fill="#FFE333"/>
<path d="M82.3586 84.447H4.55591C4.55591 84.447 5.60054 79.9398 7.08935 75.409C7.59158 73.5664 8.66385 71.8939 10.1788 70.5901C11.6937 69.2864 13.5875 68.4061 15.6354 68.054C19.6161 67.1218 35.3138 62.6688 35.3138 62.6688L43.41 62.0798H43.4573H43.5022L50.8046 62.6094C50.8046 62.6094 67.2962 67.1167 71.278 68.0519C75.2598 68.9872 78.3364 70.8782 79.8241 75.4069C81.3118 79.9357 82.3586 84.447 82.3586 84.447Z" fill="#E9356E"/>
<path d="M66.1021 81.1084H56.608C56.5015 81.1084 56.3994 81.1469 56.3241 81.2155C56.2489 81.2841 56.2065 81.3771 56.2065 81.4741V84.4448H57.0106V81.8429H65.7006V84.4448H66.5046V81.4741C66.5048 81.426 66.4945 81.3783 66.4743 81.3338C66.4541 81.2893 66.4244 81.2488 66.387 81.2149C66.3496 81.1809 66.3051 81.1539 66.2562 81.1357C66.2073 81.1174 66.1549 81.1081 66.1021 81.1084Z" fill="#C4205C"/>
<path d="M42.9874 73.4502C43.4941 73.4502 43.9049 73.0759 43.9049 72.6143C43.9049 72.1526 43.4941 71.7783 42.9874 71.7783C42.4806 71.7783 42.0698 72.1526 42.0698 72.6143C42.0698 73.0759 42.4806 73.4502 42.9874 73.4502Z" fill="#F5EFFF"/>
<path d="M42.9874 77.8826C43.4941 77.8826 43.9049 77.5084 43.9049 77.0468C43.9049 76.5851 43.4941 76.2109 42.9874 76.2109C42.4806 76.2109 42.0698 76.5851 42.0698 77.0468C42.0698 77.5084 42.4806 77.8826 42.9874 77.8826Z" fill="#F5EFFF"/>
<path d="M42.9874 82.3142C43.4941 82.3142 43.9049 81.9399 43.9049 81.4783C43.9049 81.0166 43.4941 80.6423 42.9874 80.6423C42.4806 80.6423 42.0698 81.0166 42.0698 81.4783C42.0698 81.9399 42.4806 82.3142 42.9874 82.3142Z" fill="#F5EFFF"/>
<path d="M43.5032 62.0728V62.0789H43.4585L43.5032 62.0728Z" fill="#5D46C2"/>
<path d="M43.457 62.0757H43.4102V62.0698L43.457 62.0757Z" fill="#5D46C2"/>
<path d="M50.6732 64.4187C50.6732 64.4187 48.6593 67.8524 43.0268 67.8524C41.5095 67.893 40.0056 67.5839 38.6544 66.9539C37.3032 66.324 36.1484 65.3935 35.2971 64.2487L35.6344 61.7789L35.6907 61.3641L36.2136 57.4714L49.6702 57.8136L49.8951 59.2928L49.9693 59.7773L50.6732 64.4187Z" fill="#FF8881"/>
<path d="M35.6886 61.3635C32.6348 61.9102 29.7731 63.126 27.3506 64.9059C27.3506 64.9059 28.3874 70.4263 35.2995 75.8894L43.0292 67.8531C39.7817 66.5966 37.1647 64.2829 35.6886 61.3635Z" fill="#C4205C"/>
<path d="M50.1751 61.3635C53.2289 61.9102 56.0907 63.126 58.5132 64.9059C58.5132 64.9059 57.4764 70.4263 50.5642 75.8894L42.8345 67.8531C46.0819 66.5966 48.699 64.2829 50.1751 61.3635Z" fill="#C4205C"/>
<path d="M49.8939 59.2957C46.8443 61.6516 41.9101 62.5459 35.6333 61.7787L35.6895 61.3638L36.2124 57.4714L49.669 57.8136L49.8939 59.2957Z" fill="#19274B"/>
<path d="M31.1578 47.3536C28.1476 51.1817 21.665 48.5952 22.107 43.5142C22.5073 38.9045 28.1577 39.6359 28.1577 39.6359L31.1578 47.3536Z" fill="#F55B5D"/>
<path d="M28.3871 47.4521C28.2973 47.452 28.2101 47.4245 28.1394 47.374C28.0687 47.3235 28.0185 47.253 27.9969 47.1735C27.3689 45.5476 26.3038 44.091 24.8989 42.9365C24.8595 42.9045 24.8274 42.8658 24.8044 42.8225C24.7814 42.7793 24.7679 42.7323 24.7648 42.6843C24.7618 42.6363 24.7691 42.5882 24.7864 42.5428C24.8037 42.4974 24.8307 42.4556 24.8658 42.4196C24.9008 42.3837 24.9433 42.3545 24.9908 42.3335C25.0383 42.3125 25.0899 42.3003 25.1425 42.2975C25.1952 42.2947 25.248 42.3014 25.2978 42.3171C25.3477 42.3329 25.3936 42.3575 25.4331 42.3894C26.965 43.638 28.117 45.226 28.7773 46.9994C28.8025 47.0936 28.7856 47.1931 28.7303 47.2761C28.6751 47.359 28.5861 47.4186 28.4827 47.4419C28.4514 47.4488 28.4193 47.4522 28.3871 47.4521Z" fill="#D1373F"/>
<path d="M27.3492 45.3798C27.306 45.3795 27.2631 45.373 27.2222 45.3603C26.5234 45.159 25.7815 45.1147 25.0598 45.2312C24.9554 45.2524 24.8461 45.2349 24.7558 45.1827C24.6655 45.1304 24.6018 45.0476 24.5785 44.9525C24.5552 44.8574 24.5744 44.7578 24.6317 44.6756C24.6891 44.5933 24.78 44.5352 24.8844 44.514C25.7486 44.3667 26.6394 44.4181 27.4763 44.6636C27.5709 44.6882 27.6522 44.7435 27.705 44.8191C27.7577 44.8946 27.7782 44.9852 27.7626 45.0737C27.7469 45.1621 27.6962 45.2422 27.62 45.2988C27.5438 45.3554 27.4475 45.3846 27.3492 45.3808V45.3798Z" fill="#D1373F"/>
<path d="M53.4473 47.3536C56.4574 51.1817 62.9399 48.5952 62.498 43.5142C62.0977 38.9045 56.4473 39.6359 56.4473 39.6359L53.4473 47.3536Z" fill="#F55B5D"/>
<path d="M56.2179 47.4521C56.1858 47.4522 56.1537 47.4488 56.1224 47.4419C56.0711 47.4305 56.0228 47.41 55.9802 47.3816C55.9377 47.3532 55.9017 47.3174 55.8743 47.2763C55.847 47.2352 55.8288 47.1895 55.8208 47.142C55.8128 47.0945 55.8151 47.046 55.8277 46.9993C56.4881 45.2259 57.64 43.638 59.1719 42.3893C59.2515 42.3249 59.356 42.292 59.4623 42.2978C59.5686 42.3035 59.6679 42.3475 59.7386 42.4201C59.8093 42.4926 59.8455 42.5878 59.8391 42.6846C59.8328 42.7814 59.7845 42.872 59.7049 42.9364C58.3001 44.0909 57.2351 45.5476 56.607 47.1735C56.5857 47.2529 56.5357 47.3234 56.4652 47.3739C56.3947 47.4244 56.3076 47.452 56.2179 47.4521Z" fill="#D1373F"/>
<path d="M57.2601 45.3797C57.1618 45.3838 57.0652 45.3549 56.9888 45.2983C56.9124 45.2418 56.8614 45.1617 56.8456 45.0731C56.8297 44.9846 56.8502 44.8939 56.903 44.8182C56.9558 44.7425 57.0372 44.6871 57.1319 44.6625C57.9692 44.4172 58.8604 44.3658 59.725 44.5129C59.8294 44.5341 59.9203 44.5922 59.9776 44.6745C60.035 44.7567 60.0541 44.8563 60.0309 44.9515C60.0076 45.0466 59.9438 45.1294 59.8536 45.1816C59.7633 45.2339 59.654 45.2514 59.5496 45.2302C58.8279 45.1137 58.086 45.158 57.3872 45.3592C57.3463 45.3723 57.3034 45.3792 57.2601 45.3797Z" fill="#D1373F"/>
<path d="M26.9633 34.0399C26.2026 39.6084 27.0078 45.2616 29.3033 50.4688C32.7566 57.831 37.3513 60.1256 42.2349 60.2004C47.7955 60.2803 59.4395 57.3505 57.5954 33.3167C56.3506 17.0733 28.4251 17.6469 26.9633 34.0399Z" fill="#FF8881"/>
<g opacity="0.5">
<path opacity="0.5" d="M33.4809 48.9263C35.6148 48.9263 37.3446 48.1998 37.3446 47.3037C37.3446 46.4076 35.6148 45.6812 33.4809 45.6812C31.347 45.6812 29.6172 46.4076 29.6172 47.3037C29.6172 48.1998 31.347 48.9263 33.4809 48.9263Z" fill="#F55B5D"/>
</g>
<g opacity="0.5">
<path opacity="0.5" d="M52.7433 48.9263C54.8772 48.9263 56.6071 48.1998 56.6071 47.3037C56.6071 46.4076 54.8772 45.6812 52.7433 45.6812C50.6095 45.6812 48.8796 46.4076 48.8796 47.3037C48.8796 48.1998 50.6095 48.9263 52.7433 48.9263Z" fill="#F55B5D"/>
</g>
<path d="M58.2602 40.0038C58.3084 44.5644 57.74 49.113 56.5679 53.547C53.4306 65.6152 42.6636 64.0069 42.6636 64.0069C42.6636 64.0069 32.107 65.6141 28.9686 53.547C27.012 46.0189 26.1675 40.4002 26.1675 40.4002L28.6414 37.4172C28.6414 37.4172 29.8457 47.8146 34.2143 49.6155C34.2143 49.6155 36.1563 46.9255 42.6636 49.4393C49.1722 46.9255 51.3222 49.6155 51.3222 49.6155C55.6908 47.8146 56.0607 37.8086 56.0607 37.8086L58.2602 40.0038Z" fill="#19274B"/>
<path d="M30.2504 29.0051C30.2504 29.0051 31.2906 35.2394 28.3849 37.5186V42.6618L26.679 43.1279C26.679 43.1279 25.1914 36.2525 24.6224 32.4244C23.5193 25.0101 31.1567 24.0708 31.1567 24.0708L30.2504 29.0051Z" fill="#19274B"/>
<path d="M54.1906 29.0051C54.1906 29.0051 53.1505 35.2394 56.0561 37.5186V42.6618L57.7631 43.1279C57.7631 43.1279 59.2508 36.2525 59.8198 32.4244C60.9229 25.0101 53.2854 24.0708 53.2854 24.0708L54.1906 29.0051Z" fill="#19274B"/>
<path d="M25.6953 28.6067C25.6953 28.6067 20.5834 20.3821 32.6929 17.3726C41.1366 15.2736 52.5647 17.4842 56.2181 12.0203C56.2181 12.0203 57.2403 15.7561 55.2207 18.1531C55.2207 18.1531 60.7306 16.6473 62.2588 13.6931C62.2588 13.6931 64.1558 18.3201 61.2187 21.8879C61.9505 22.0678 62.7181 22.0909 63.4613 21.9555C64.2046 21.8201 64.9033 21.5298 65.5029 21.1074C65.5029 21.1074 65.3163 31.1973 57.1155 30.6401C55.6694 29.7367 54.0737 29.0503 52.3893 28.6067C49.3903 27.7709 46.9569 31.9779 39.1519 30.1945C32.1903 28.6047 29.3251 27.5998 25.6953 28.6067Z" fill="#19274B"/>
<path d="M42.9291 56.1541C42.2049 56.1504 41.4883 56.0181 40.8196 55.7647C40.749 55.7259 40.6965 55.6648 40.672 55.593C40.6475 55.5212 40.6527 55.4438 40.6866 55.3753C40.7205 55.3067 40.7808 55.2519 40.8561 55.2212C40.9314 55.1904 41.0164 55.1859 41.0951 55.2084C41.6917 55.4413 42.3384 55.5481 42.9868 55.5206C43.6351 55.493 44.2682 55.332 44.8384 55.0496C44.9127 55.0138 44.999 55.0045 45.0804 55.0237C45.1618 55.0428 45.2325 55.0889 45.2785 55.153C45.3245 55.2172 45.3426 55.2946 45.3292 55.3702C45.3158 55.4459 45.2719 55.5142 45.2061 55.5619C44.5279 55.9597 43.7356 56.1658 42.9291 56.1541Z" fill="#33476D"/>
<path d="M44.1131 48.1115H44.0861L41.6381 47.9312C41.5902 47.9334 41.5423 47.9262 41.4977 47.9101C41.453 47.8941 41.4126 47.8695 41.3793 47.8381C41.3459 47.8067 41.3202 47.7692 41.304 47.7281C41.2878 47.6869 41.2814 47.6431 41.2853 47.5995C41.2892 47.5559 41.3032 47.5136 41.3264 47.4754C41.3497 47.4371 41.3817 47.4039 41.4202 47.3778C41.4587 47.3517 41.5028 47.3334 41.5497 47.324C41.5966 47.3147 41.6452 47.3147 41.6921 47.3238L43.7386 47.4744L43.0999 41.8058C43.102 41.7311 43.1338 41.6596 43.1895 41.6047C43.2452 41.5499 43.321 41.5154 43.4026 41.5077C43.4842 41.5001 43.5661 41.5198 43.6329 41.5631C43.6997 41.6065 43.7469 41.6705 43.7656 41.7433L44.4403 47.7766C44.4447 47.8193 44.4392 47.8623 44.4242 47.903C44.4093 47.9436 44.3851 47.981 44.3533 48.0126C44.3216 48.0443 44.2829 48.0695 44.2398 48.0867C44.1966 48.1039 44.15 48.1127 44.103 48.1125L44.1131 48.1115Z" fill="#F55B5D"/>
<path d="M37.6699 50.8784C41.0417 51.4175 44.4949 51.3734 47.8488 50.7483C47.7144 51.9018 47.0957 52.9634 46.122 53.7108C45.1483 54.4583 43.895 54.8339 42.6244 54.7589C38.4863 54.7743 37.6699 50.8784 37.6699 50.8784Z" fill="#F5EFFF"/>
<path d="M37.4326 41.7729C37.4326 42.8301 36.9052 43.6875 36.2542 43.6875C35.6031 43.6875 35.0757 42.8301 35.0757 41.7729C35.0757 40.7158 35.6031 39.8584 36.2542 39.8584C36.9052 39.8584 37.4326 40.7148 37.4326 41.7729Z" fill="#19274B"/>
<path d="M49.967 41.7729C49.967 42.8301 49.4397 43.6875 48.7886 43.6875C48.1375 43.6875 47.6101 42.8301 47.6101 41.7729C47.6101 40.7158 48.1375 39.8584 48.7886 39.8584C49.4397 39.8584 49.967 40.7148 49.967 41.7729Z" fill="#19274B"/>
<path d="M34.1626 37.5793C35.1613 37.067 36.2461 36.7084 37.3731 36.5181C37.5207 36.4999 37.662 36.452 37.7868 36.3779C37.9116 36.3038 38.0166 36.2052 38.0944 36.0895C38.1721 35.9738 38.2206 35.8437 38.2363 35.7087C38.2519 35.5738 38.2344 35.4374 38.185 35.3094L38.1411 35.1988C38.0661 35.0065 37.9223 34.8429 37.7328 34.7342C37.5433 34.6255 37.3191 34.5781 37.0964 34.5995C35.578 34.693 34.1336 35.232 32.9797 36.136C32.8515 36.2536 32.7613 36.401 32.7186 36.5621C32.676 36.7232 32.6827 36.8918 32.7379 37.0497C32.7817 37.1776 32.856 37.2951 32.9554 37.3937C33.0549 37.4924 33.1771 37.5698 33.3132 37.6204C33.4494 37.671 33.5961 37.6936 33.743 37.6865C33.8898 37.6794 34.0331 37.6428 34.1626 37.5793Z" fill="#19274B"/>
<path d="M50.9127 37.5793C49.914 37.0669 48.8293 36.7083 47.7023 36.518C47.5546 36.5 47.4132 36.4522 47.2883 36.3781C47.1634 36.3041 47.0581 36.2056 46.9803 36.0898C46.9024 35.974 46.8539 35.8439 46.8381 35.7089C46.8224 35.5739 46.8399 35.4374 46.8893 35.3093L46.9332 35.1987C47.0083 35.0066 47.1522 34.8431 47.3417 34.7344C47.5311 34.6257 47.7552 34.5782 47.9778 34.5994C49.4963 34.6929 50.9406 35.232 52.0945 36.136C52.2228 36.2535 52.3131 36.4009 52.3557 36.562C52.3984 36.7231 52.3917 36.8918 52.3363 37.0497C52.2925 37.1774 52.2182 37.2948 52.1188 37.3933C52.0194 37.4919 51.8974 37.5692 51.7614 37.6198C51.6254 37.6704 51.4788 37.693 51.3321 37.686C51.1854 37.679 51.0422 37.6426 50.9127 37.5793Z" fill="#19274B"/>
</svg>
