<svg width="162" height="109" viewBox="0 0 162 109" fill="none" xmlns="http://www.w3.org/2000/svg">
<path opacity="0.1" d="M15.8124 91.172C20.7637 89.132 25.1157 85.868 28.4604 81.686C32.5566 76.7432 35.9282 71.2423 38.4734 65.349H32.1494C27.9246 65.3996 23.7341 64.5839 19.8367 62.9525C15.9392 61.321 12.4174 58.9082 9.48842 55.863C6.44322 52.9341 4.03044 49.4122 2.39895 45.5147C0.76745 41.6173 -0.048159 37.4269 0.00242397 33.202C-0.0519957 28.8114 0.810449 24.4578 2.5346 20.4196C4.25876 16.3813 6.80667 12.7473 10.0154 9.75C16.6908 3.25067 24.0688 0.000666667 32.1494 0C44.0947 0 52.9661 3.59999 58.7634 10.8C64.5608 18 67.4607 27.398 67.4634 38.994C67.4634 51.642 64.2138 64.5537 57.7144 77.729C51.2151 90.9043 42.5194 101.181 31.6274 108.558L15.8124 91.172ZM110.145 91.172C115.098 89.1329 119.451 85.8692 122.797 81.687C126.893 76.7441 130.263 71.2432 132.807 65.35H126.483C122.259 65.4006 118.068 64.585 114.171 62.9535C110.273 61.322 106.751 58.9092 103.822 55.864C100.777 52.935 98.3644 49.4132 96.7329 45.5157C95.1015 41.6183 94.2858 37.4279 94.3364 33.203C94.282 28.8124 95.1444 24.4588 96.8686 20.4206C98.5928 16.3823 101.141 12.7484 104.349 9.75101C111.025 3.25167 118.403 0.00167375 126.483 0.00100708C138.429 0.00100708 147.3 3.601 153.096 10.801C158.893 18.001 161.793 27.399 161.796 38.995C161.796 51.643 158.547 64.5547 152.047 77.73C145.548 90.9053 136.851 101.183 125.956 108.564L110.145 91.172Z" fill="#672ED6"/>
</svg>
