<svg width="35" height="21" viewBox="0 0 35 21" fill="none" xmlns="http://www.w3.org/2000/svg">
<path d="M11.535 12.9052C12.9413 12.9052 14.316 12.5326 15.4853 11.8345C16.6546 11.1364 17.566 10.1442 18.1042 8.98336C18.6424 7.82248 18.7833 6.54508 18.509 5.31266C18.2347 4.08025 17.5576 2.94818 16.5633 2.0596C15.569 1.17102 14.3021 0.565832 12.9229 0.32057C11.5436 0.0753075 10.114 0.200982 8.81469 0.681701C7.51538 1.16242 6.40479 1.97659 5.62333 3.02127C4.84188 4.06595 4.42466 5.29422 4.42444 6.55076C4.41488 7.38753 4.59226 8.21759 4.94619 8.99233C5.30013 9.76708 5.82351 10.4709 6.48569 11.0627C7.14786 11.6545 7.93552 12.1222 8.80254 12.4386C9.66955 12.755 10.5985 12.9136 11.535 12.9052ZM11.535 2.72979C12.3813 2.72878 13.2089 2.95211 13.9131 3.37151C14.6173 3.79091 15.1664 4.38753 15.491 5.08588C15.8156 5.78423 15.901 6.55291 15.7365 7.29467C15.572 8.03642 15.165 8.71791 14.5669 9.25289C13.9688 9.78787 13.2065 10.1523 12.3765 10.3001C11.5466 10.4478 10.6862 10.3723 9.90428 10.083C9.12237 9.79374 8.45406 9.30371 7.98393 8.67495C7.51381 8.04618 7.26298 7.30694 7.26321 6.55076C7.25666 6.0479 7.36269 5.54893 7.57504 5.0832C7.7874 4.61747 8.10181 4.19437 8.4998 3.83876C8.89778 3.48316 9.3713 3.20223 9.89254 3.01248C10.4138 2.82273 10.9722 2.728 11.535 2.73385V2.72979Z" fill="black"/>
<path d="M11.535 14.1949C9.48735 14.2112 7.46374 14.5912 5.58197 15.3128C3.70021 16.0344 1.99786 17.0832 0.573988 18.3982C0.435221 18.5096 0.324248 18.6458 0.248282 18.7981C0.172316 18.9503 0.133057 19.1151 0.133057 19.2818C0.133057 19.4485 0.172316 19.6133 0.248282 19.7656C0.324248 19.9178 0.435221 20.0541 0.573988 20.1655C0.701985 20.2845 0.855565 20.3792 1.02552 20.4438C1.19547 20.5085 1.37829 20.5419 1.56301 20.5419C1.74774 20.5419 1.93056 20.5085 2.10051 20.4438C2.27046 20.3792 2.42404 20.2845 2.55204 20.1655C4.92948 18.0164 8.15253 16.7823 11.5339 16.7262C14.9085 16.8099 18.1205 18.0399 20.5158 20.1655C20.7913 20.399 21.1525 20.535 21.532 20.548C21.9137 20.5441 22.2785 20.4068 22.5483 20.1655C22.6871 20.0541 22.798 19.9178 22.874 19.7656C22.95 19.6133 22.9892 19.4485 22.9892 19.2818C22.9892 19.1151 22.95 18.9503 22.874 18.7981C22.798 18.6458 22.6871 18.5096 22.5483 18.3982C19.6336 15.7643 15.68 14.2554 11.535 14.1949Z" fill="black"/>
<path d="M25.8105 12.9052C26.6565 12.9052 27.4835 12.6811 28.187 12.2611C28.8904 11.8411 29.4386 11.2442 29.7624 10.5459C30.0861 9.84753 30.1708 9.07907 30.0058 8.3377C29.8407 7.59632 29.4334 6.91532 28.8351 6.38082C28.2369 5.84632 27.4748 5.48232 26.645 5.33485C25.8153 5.18738 24.9552 5.26307 24.1736 5.55234C23.392 5.84161 22.724 6.33147 22.254 6.95998C21.7839 7.58849 21.5331 8.32741 21.5331 9.08331C21.5257 9.58702 21.6314 10.0869 21.8438 10.5536C22.0561 11.0202 22.3709 11.4442 22.7696 11.8004C23.1683 12.1566 23.6427 12.4379 24.165 12.6276C24.6873 12.8174 25.2468 12.9118 25.8105 12.9052ZM25.8105 7.84148C26.0962 7.84067 26.3756 7.91562 26.6136 8.05682C26.8515 8.19803 27.0372 8.39914 27.1471 8.6347C27.2571 8.87026 27.2863 9.12966 27.2311 9.38007C27.1759 9.63048 27.0388 9.86063 26.8372 10.0414C26.6355 10.2221 26.3784 10.3454 26.0983 10.3954C25.8182 10.4455 25.5278 10.4202 25.2638 10.3227C24.9998 10.2253 24.7742 10.06 24.6154 9.84784C24.4566 9.63569 24.3718 9.38621 24.3718 9.131C24.3577 8.95876 24.3852 8.78582 24.4524 8.62391C24.5196 8.462 24.625 8.3149 24.7615 8.19259C24.8979 8.07028 25.0623 7.97563 25.2433 7.91504C25.4243 7.85446 25.6177 7.82937 25.8105 7.84148Z" fill="black"/>
<path d="M33.9363 17.1086C32.4524 15.8637 30.6377 14.9775 28.6637 14.5337C26.6897 14.0899 24.6217 14.1031 22.655 14.5722C22.4711 14.6087 22.2972 14.6779 22.1437 14.7756C21.9903 14.8733 21.8603 14.9975 21.7616 15.1409C21.6629 15.2843 21.5975 15.444 21.5692 15.6105C21.5409 15.7769 21.5503 15.9468 21.5968 16.1099C21.6434 16.2731 21.7262 16.4262 21.8402 16.5602C21.9543 16.6942 22.0973 16.8064 22.2609 16.8901C22.4244 16.9737 22.605 17.0272 22.7921 17.0473C22.9792 17.0674 23.1689 17.0538 23.35 17.0071C24.8646 16.6353 26.4605 16.6159 27.9858 16.9506C29.5112 17.2854 30.9154 17.9631 32.065 18.9195C32.1955 19.0427 32.3532 19.1403 32.5281 19.2062C32.7031 19.272 32.8914 19.3046 33.0813 19.302C33.4629 19.2981 33.8277 19.1608 34.0975 18.9195C34.2961 18.6435 34.3879 18.3168 34.3588 17.9897C34.3297 17.6626 34.1812 17.3531 33.9363 17.1086Z" fill="black"/>
</svg>
