<svg width="440" height="350" viewBox="0 0 440 350" fill="none" xmlns="http://www.w3.org/2000/svg">
<path d="M327.404 0C344.092 0.0215116 361.838 8.01153 367.487 22.3147C371.849 33.3532 368.574 46.3401 374.676 56.6728C379.182 64.3023 388.151 69.2141 392.198 77.0576C400.583 93.2948 384.268 112.603 389.462 129.915C394.267 145.922 416 155.091 417.83 171.606C419.001 182.147 410.846 192.244 400.372 196.848C389.897 201.451 377.649 201.433 366.18 199.682C338.043 195.388 311.555 181.316 283.063 182.669C271.334 183.229 259.049 186.347 248.209 182.227C240.471 179.283 234.859 173.095 229.923 166.919C224.257 159.835 218.826 151.779 219.353 143.028C220.125 130.215 232.912 121.209 240.556 110.431C248.43 99.2218 251.593 85.798 249.461 72.6324C239.101 10.9258 277.19 12.8342 282.061 12.7369C286.51 12.6488 301.34 4.35865 307.214 2.80674C313.765 1.00723 320.563 0.0622644 327.404 0V0Z" fill="#1E1E1E"/>
<path d="M148.443 258.839C132.324 247.153 66.7411 207.603 66.0923 202.084C64.8823 191.69 60.8859 183.495 36.4431 176.382C36.4431 176.382 34.4989 179.677 37.8779 183.305C39.7141 185.423 41.9482 187.226 44.4764 188.632C44.4764 188.632 37.9657 190.822 28.3795 183.856C18.7933 176.889 14.7935 170.887 10.7105 172.298C10.7105 172.298 5.96299 168.284 3.6758 168.898C3.20406 169.028 2.80228 169.313 2.54885 169.698C2.29543 170.083 2.20851 170.54 2.30504 170.98C-1.46647 170.409 -0.819861 180.342 5.80894 188.472C15.3378 200.164 32.1217 209.076 41.9699 212.467C49.36 215.012 97.7216 280.169 130.167 287.234C139.505 289.267 155.954 264.285 148.443 258.839Z" fill="white"/>
<path d="M199.188 201.021C199.188 201.021 126.699 247.083 119.687 258.537C112.675 269.99 117.917 300.561 150.208 280.928C182.498 261.295 233.453 225.641 233.453 225.641L199.188 201.021Z" fill="#FFCAD0"/>
<path d="M236.439 159.109C236.439 159.109 216.513 163.685 203.255 178.06C192.123 190.137 174.183 209.544 174.183 209.544L229.177 248.441C229.177 248.441 242.588 177.689 236.439 159.109Z" fill="#FCCB0A"/>
<path d="M371.392 349.752H230.84C230.84 349.752 231.41 327.792 223.598 293.675C215.753 259.588 219.675 241.751 227.488 223.944C235.333 206.138 221.351 164.965 236.44 159.102C242.575 156.719 253.237 152.871 263.698 149.176C266.347 148.259 268.962 147.313 271.477 146.427C283.615 142.151 293.841 138.608 293.841 138.608H319.154C319.154 138.608 336.583 143.862 354.493 150.367C356.84 151.223 359.216 152.109 361.567 152.994V153.025C370.587 156.476 379.204 160.111 385.069 163.44C404.081 174.127 371.392 349.752 371.392 349.752Z" fill="#FCCB0A"/>
<path d="M285.307 81.9317L287.999 129.332L288.781 142.863C289.132 148.524 291.908 153.833 296.513 157.648C301.118 161.463 307.183 163.478 313.403 163.261C319.623 163.043 325.5 160.609 329.77 156.484C334.04 152.358 336.361 146.87 336.234 141.201L335.57 117.066L334.446 76.9749L285.307 81.9317Z" fill="white"/>
<path d="M285.307 81.9316L287.999 126.57C311.051 127.416 327.871 118.879 335.573 107.517L334.448 76.9768L285.307 81.9316Z" fill="#EAECF2"/>
<path d="M267.021 45.2193C266.04 56.0592 266.266 66.9618 267.696 77.7603C270.458 97.5224 272.868 120.169 301.452 122.29C335.507 124.819 346.874 89.1533 346.874 89.1533C346.874 89.1533 362.693 85.7996 364.65 75.9615C366.612 66.0959 354.803 63.118 350.672 66.2577C350.672 66.2577 345.991 24.6479 303.781 24.6479C266.522 24.6479 267.021 45.2193 267.021 45.2193Z" fill="white"/>
<path d="M361.567 152.992V153.022C332.733 185.001 298.734 183.498 298.734 183.498C271.911 178.153 263.697 149.174 263.697 149.174C266.346 148.257 268.961 147.31 271.476 146.424C283.614 142.149 293.84 138.605 293.84 138.605H319.153C319.153 138.605 336.582 143.859 354.492 150.365C356.834 151.219 359.219 152.105 361.567 152.992Z" fill="white"/>
<path d="M354.493 150.374C325.075 179.466 299.604 176.413 299.604 176.413C272.194 166.868 271.477 146.435 271.477 146.435C283.615 142.156 293.841 138.616 293.841 138.616H319.155C319.155 138.616 336.591 143.869 354.493 150.374Z" fill="white"/>
<path d="M281.699 15.6809C281.699 15.6809 285.629 45.7632 264.394 55.6892C264.394 55.6892 253.761 19.2426 281.699 15.6809Z" fill="#1E1E1E"/>
<path d="M275.248 18.5303C275.248 18.5303 282.792 44.7459 301.514 46.2733C320.237 47.8006 316.894 61.5937 333.478 63.2009C343.325 64.1536 347.727 73.4968 347.727 73.4968C347.727 73.4968 349.158 64.2181 358.1 60.9094C367.042 57.6007 336.997 -11.7592 275.248 18.5303Z" fill="#1E1E1E"/>
<path d="M307.01 81.6202C307.01 82.2078 307.201 82.7821 307.559 83.2706C307.917 83.7591 308.427 84.1399 309.023 84.3647C309.619 84.5895 310.274 84.6484 310.907 84.5337C311.539 84.4191 312.12 84.1362 312.577 83.7208C313.033 83.3053 313.343 82.776 313.469 82.1998C313.595 81.6235 313.53 81.0263 313.283 80.4835C313.037 79.9406 312.619 79.4767 312.082 79.1503C311.546 78.8239 310.916 78.6497 310.271 78.6497C309.406 78.6497 308.576 78.9626 307.965 79.5197C307.353 80.0768 307.01 80.8324 307.01 81.6202V81.6202Z" fill="#561E15" stroke="black"/>
<path d="M277.562 81.6202C277.562 82.2078 277.753 82.7821 278.111 83.2706C278.47 83.7591 278.979 84.1399 279.575 84.3647C280.171 84.5895 280.826 84.6484 281.459 84.5337C282.092 84.4191 282.673 84.1362 283.129 83.7208C283.585 83.3053 283.895 82.776 284.021 82.1998C284.147 81.6235 284.082 81.0263 283.836 80.4835C283.589 79.9406 283.171 79.4767 282.635 79.1503C282.098 78.8239 281.468 78.6497 280.823 78.6497C279.958 78.6497 279.128 78.9626 278.517 79.5197C277.905 80.0768 277.562 80.8324 277.562 81.6202V81.6202Z" fill="#561E15" stroke="black"/>
<path d="M322.127 71.2903C322.127 71.2903 317.305 64.0516 307.01 66.6635" stroke="black" stroke-linecap="round" stroke-linejoin="round"/>
<path d="M289.289 66.5436C289.289 66.5436 281.86 60.3703 274.558 67.1357" stroke="black" stroke-linecap="round" stroke-linejoin="round"/>
<path d="M295.804 73.9026C295.804 73.9026 292.287 82.0975 289.29 87.1978C286.293 92.2981 295.154 94.5588 295.154 94.5588" stroke="black" stroke-width="0.75" stroke-linecap="round" stroke-linejoin="round"/>
<path d="M315.331 100.38C315.331 100.38 309.604 107.982 299.603 105.81" stroke="black" stroke-width="0.75" stroke-linecap="round" stroke-linejoin="round"/>
<path d="M350.566 79.5303C350.566 79.5303 350.679 70.311 358.224 72.8289" stroke="black" stroke-width="0.75" stroke-linecap="round" stroke-linejoin="round"/>
<path d="M233.699 319.282H104.957C103.734 319.282 102.561 318.84 101.697 318.052C100.832 317.265 100.346 316.197 100.346 315.083C100.346 313.969 100.832 312.901 101.697 312.113C102.561 311.326 103.734 310.883 104.957 310.883H233.699C234.922 310.883 236.095 311.326 236.959 312.113C237.824 312.901 238.31 313.969 238.31 315.083C238.31 316.197 237.824 317.265 236.959 318.052C236.095 318.84 234.922 319.282 233.699 319.282Z" fill="#672ED6"/>
<path d="M243.359 310.883H113.438L88.6999 220.034C88.4524 219.126 88.4353 218.177 88.6499 217.261C88.8645 216.346 89.3051 215.486 89.9384 214.749C90.5717 214.011 91.381 213.415 92.305 213.004C93.229 212.594 94.2435 212.38 95.2714 212.38H211.239C212.751 212.38 214.22 212.842 215.411 213.691C216.602 214.54 217.447 215.728 217.81 217.066L243.359 310.883Z" fill="white"/>
<path d="M234.457 310.883H104.534L79.7953 220.034C79.5482 219.125 79.5314 218.177 79.7464 217.261C79.9613 216.345 80.4023 215.486 81.0359 214.748C81.6694 214.011 82.479 213.414 83.4032 213.004C84.3274 212.594 85.342 212.38 86.3701 212.38H202.336C203.849 212.38 205.318 212.842 206.509 213.691C207.7 214.54 208.544 215.728 208.908 217.066L234.457 310.883Z" fill="#672ED6"/>
<path d="M336.251 310.883H233.056C232.254 310.883 231.604 311.475 231.604 312.205V317.96C231.604 318.69 232.254 319.282 233.056 319.282H336.251C337.052 319.282 337.702 318.69 337.702 317.96V312.205C337.702 311.475 337.052 310.883 336.251 310.883Z" fill="#672ED6"/>
<path d="M161.851 255.855C164.228 261.489 162.257 267.416 157.448 269.099C152.64 270.782 146.817 267.584 144.443 261.952C142.069 256.32 144.037 250.391 148.845 248.708C153.653 247.025 159.477 250.226 161.851 255.855Z" fill="#672ED6"/>
<path d="M378.493 310.883L370.051 211.116L386.283 253.115L378.493 310.883Z" fill="#FCCB0A"/>
<path d="M379.598 221.245C379.598 221.245 399.654 319.415 404.618 335.489C407.824 345.868 431.233 352.95 438.577 339.219C440.203 336.183 439.821 331.146 439.64 326.012C438.515 294.268 414.131 213.514 414.131 213.514L379.598 221.245Z" fill="white"/>
<path d="M385.083 163.435C385.083 163.435 397.057 169.03 407.115 184.813C417.174 200.595 431.067 228.462 430.167 235.211C424.938 248.199 383.642 261.631 383.642 261.631C383.642 261.631 356.054 179.01 385.083 163.435Z" fill="#FCCB0A"/>
<path d="M408.269 316.53C408.269 316.53 344.585 315.257 332.534 308.702C316.168 299.798 312.373 303.65 302.899 301.512C287.67 298.076 289.346 300.877 289.346 300.877C289.346 300.877 290.047 308.895 301.812 309.912C307.734 310.424 316.642 312.706 314.744 314.044C314.744 314.044 267.533 318.518 258.034 319.283C248.536 320.047 253.163 326.71 260.425 328.238C261.792 329.691 263.567 330.778 265.56 331.383C267.553 331.988 269.689 332.089 271.74 331.673C271.74 331.673 270.204 334.474 288.367 334.474C306.529 334.474 324.792 325.693 334.013 329.511C343.234 333.329 393.037 350.901 424.61 346.823C439.7 344.876 439.812 338.276 439.812 331.291C439.811 319.279 430.028 317.742 408.269 316.53Z" fill="white"/>
</svg>
